<svg width="780" height="156" viewBox="0 0 780 156" fill="none" xmlns="http://www.w3.org/2000/svg">
<path d="M86.0068 118.523C82.8098 114.999 80.0908 110.996 77.8528 106.832C77.2138 105.71 76.0948 105.07 74.8158 105.07C73.5368 105.07 72.4178 105.71 71.7788 106.832C69.3808 110.996 66.8228 114.84 63.7848 118.523C60.1078 122.847 56.4308 126.851 52.9138 130.214C51.9548 131.175 51.6348 132.617 52.1148 133.898C58.5088 148.633 65.8638 156 74.8158 156C83.7688 156 91.1228 148.633 97.3578 133.898C97.8368 132.617 97.5178 131.175 96.5578 130.214C93.2008 126.531 89.5238 122.527 86.0068 118.363V118.523ZM74.9758 149.434C68.2608 149.434 62.8258 141.105 59.3088 133.418C62.6658 130.055 65.8638 126.531 68.9008 122.847C71.1388 120.285 73.0568 117.722 74.9758 114.84C76.7338 117.562 78.8128 120.285 80.8908 122.687C84.0878 126.531 87.4458 130.055 90.4838 133.258C87.1258 140.945 81.5308 149.273 74.9758 149.273V149.434ZM101.994 50.6158C100.875 49.1748 98.7958 48.8538 97.3578 49.9758C91.9218 53.8198 83.6088 63.2688 87.6058 73.6788C83.4488 75.7608 80.2518 79.2838 78.6528 83.7688C75.9348 92.4168 79.9318 103.308 90.8028 116.281C114.304 144.468 130.77 147.512 136.686 147.512C139.084 147.512 141.322 147.031 143.4 145.75V145.43C146.757 143.508 148.835 140.305 149.156 136.621C151.553 122.527 136.046 94.3388 101.994 50.6158ZM142.92 135.5C142.92 137.422 141.641 139.183 140.043 140.144H139.723C138.924 140.625 137.805 140.785 136.845 140.625C133.008 140.625 118.3 138.543 95.9178 111.796C86.8058 100.906 82.9688 91.7768 84.8878 85.6898C86.3268 82.1668 89.3638 79.4448 92.8808 78.3238C93.8408 78.0028 94.7988 77.3628 95.2788 76.4018C95.7588 75.4408 95.5988 74.3188 94.9598 73.3578C90.6428 66.7918 95.5988 60.5458 98.7958 57.1818C139.244 110.035 143.72 128.613 142.76 135.18L142.92 135.5ZM71.1388 83.6087C69.5398 79.1237 66.3428 75.4408 62.0258 73.5188C65.7038 63.2688 57.3898 53.8198 52.2748 49.8148C50.8358 48.6938 48.7578 49.0147 47.6388 50.4557C13.9058 94.3387 -1.76118 122.527 0.15682 136.461C0.63682 140.144 2.55482 143.348 5.75282 145.27L6.07182 145.59C7.99082 146.711 10.3888 147.351 12.6268 147.351C18.7018 147.351 35.1688 144.309 58.5088 116.121C69.8598 102.988 74.0168 92.0967 71.1388 83.6087ZM12.9468 140.785C11.9868 140.785 11.0278 140.785 10.0688 140.305L9.74881 139.984C8.15081 139.023 7.03182 137.261 6.87182 135.339C5.75282 128.773 10.3888 109.715 50.8358 57.3428C54.0328 60.5458 58.8288 66.7918 54.6728 73.5188C54.0328 74.4798 54.0328 75.6008 54.3528 76.5618C54.8318 77.5228 55.6318 78.3237 56.7508 78.4837C60.4278 79.6048 63.3058 82.1668 64.7438 85.8508C66.6628 91.9368 62.9858 101.066 53.8728 112.117C31.3308 138.703 16.7828 140.945 12.6268 140.945L12.9468 140.785ZM42.8418 37.4828C44.9198 40.0458 47.4788 42.2878 50.5158 43.5688C57.8698 47.4128 66.0228 49.1748 74.1758 48.6938H75.2958C83.1288 48.6938 90.9628 47.2528 98.1568 44.0498C101.834 42.7678 105.191 40.3658 107.589 37.1628C109.827 34.2797 111.106 30.5967 111.106 26.9128C111.106 25.7917 111.106 24.8307 110.787 23.7097C108.549 15.5407 101.035 9.93576 92.4018 10.2568C90.6428 10.2568 88.8838 10.5768 87.1258 11.0567C86.4868 11.0567 85.8468 11.3768 85.3668 11.6978C84.5678 11.5378 83.9288 11.0568 83.6088 10.4158C82.8098 8.97476 83.2888 7.05275 84.7278 6.25175C86.1668 5.13075 86.4868 3.04875 85.3668 1.60776C84.4078 0.486755 82.9688 0.00575256 81.5308 0.486755C76.8948 3.04875 75.2958 8.81474 77.8528 13.4597C77.8528 13.4597 77.8528 13.7798 78.0138 13.7798C78.8128 15.2207 80.0908 16.3428 81.5308 17.3038C80.7308 20.3458 80.5718 23.3887 80.8908 26.4317C81.3708 31.7168 83.1288 36.6828 86.0068 41.0068C82.4898 41.6468 78.9718 41.9678 75.4548 41.9678C71.7788 41.9678 68.1018 41.9678 64.5848 41.3268C67.6218 37.0028 69.3808 31.8778 69.8598 26.5918C70.3398 23.2287 69.8598 19.8658 68.9008 16.8228C70.1798 16.0218 71.2988 15.0608 72.0978 13.7798C73.3768 11.5378 73.6968 8.81474 73.0568 6.41275C72.4178 3.84975 70.8188 1.76776 68.5808 0.486755C66.8228 -0.474243 64.5848 0.00576782 63.6248 1.76776C62.6658 3.36876 63.1448 5.45175 64.7438 6.41275C65.3828 6.89275 65.8638 7.53275 66.1828 8.17375C66.3428 8.97475 66.1828 9.77576 65.8638 10.4158C65.5438 10.8968 65.0638 11.3768 64.4248 11.5378C63.9448 11.2177 63.3058 11.0567 62.6658 11.0567C61.0678 10.5768 59.4688 10.4158 57.8698 10.4158C49.3968 9.93576 41.7228 15.5408 39.4848 23.8698C39.1648 24.9908 39.1648 25.9518 39.1648 27.0728C39.1648 30.7558 40.4438 34.4398 42.8418 37.3228V37.4828ZM93.2008 38.7637C91.4428 38.7637 88.0848 33.1587 87.1258 25.7917C86.6458 20.6667 87.6058 17.9438 88.7248 17.6237C89.8438 17.3037 90.9628 17.3038 92.0818 17.3038C97.3578 16.9828 102.314 20.3457 103.752 25.4707C103.752 26.1118 104.072 26.7528 104.072 27.3928V28.6748C102.953 32.8388 99.9158 36.3617 95.9178 37.8027C95.1198 38.2838 94.3198 38.6048 93.5208 38.7637H93.2008ZM57.8698 17.3038C58.9888 17.3038 60.1078 17.3038 61.2268 17.7838C62.3458 18.1038 63.3058 20.9868 62.8258 25.9518C62.0258 33.3187 58.5088 38.9248 56.7508 38.9248C55.7918 38.7638 54.8318 38.4438 53.8728 37.9638C52.4338 37.1628 50.9958 36.0418 49.7168 34.9198C47.4788 33.1588 46.1988 30.4358 46.0388 27.5527C46.0388 26.9128 46.0388 26.2718 46.3598 25.6308C47.6388 20.3457 52.5938 16.6628 58.0298 17.1428L57.8698 17.3038ZM396.313 34.4398C365.139 34.4398 362.261 44.2098 362.261 58.3038V102.347C362.261 116.761 365.298 126.211 396.313 126.211C427.328 126.211 430.365 116.601 430.365 102.347V101.226C430.365 98.3428 427.967 95.9408 425.089 95.9408C422.372 95.7808 419.974 97.7028 419.814 100.425V101.386C419.814 112.277 418.375 118.043 396.473 118.043C374.571 118.043 372.812 112.277 372.812 101.386V83.6087H430.365V58.4638C430.365 44.3698 427.487 34.5998 396.473 34.5998L396.313 34.4398ZM419.814 74.3188H372.972V59.4248C372.972 48.5338 374.251 42.6078 396.473 42.6078C418.695 42.6078 419.814 48.3738 419.814 59.4248V74.3188ZM476.568 34.4398C445.393 34.4398 442.356 44.2098 442.356 58.3038V102.347C442.356 116.761 445.393 126.211 476.568 126.211C507.742 126.211 510.62 116.601 510.62 102.347V101.226C510.62 98.3428 508.381 95.9408 505.344 95.9408C502.307 95.9408 499.909 98.3428 499.909 101.226C499.909 112.117 498.629 117.882 476.568 117.882C454.505 117.882 453.067 112.117 453.067 101.226V83.4478H510.779V58.3038C510.779 44.2098 507.742 34.4398 476.727 34.4398H476.568ZM499.909 74.3188H453.067V59.4248C453.067 48.5338 454.346 42.6078 476.568 42.6078C498.79 42.6078 499.909 48.3738 499.909 59.4248V74.3188ZM269.057 35.8808C266.179 35.8808 263.781 38.1238 263.781 41.0068V41.6468C257.067 36.3618 248.754 33.7998 240.28 34.2798C209.266 34.2798 206.388 44.0498 206.388 58.1428V102.187C206.388 116.601 209.746 126.05 240.28 126.05C248.594 126.37 256.907 123.808 263.622 118.843V129.094C263.622 139.984 262.503 145.91 240.28 145.91C218.059 145.91 217.899 141.265 217.419 132.457C217.26 129.574 214.862 127.492 211.984 127.492C209.266 127.332 206.868 129.414 206.708 132.136V133.418C207.188 146.07 211.344 154.238 240.28 154.238C269.217 154.238 274.333 144.629 274.333 130.375V41.0068C274.333 38.1238 271.935 35.8808 269.057 35.8808ZM263.462 101.066C263.462 111.957 262.343 117.722 240.121 117.722C217.899 117.722 216.94 111.957 216.94 101.066V59.7448C216.94 48.8538 218.059 43.2487 240.121 43.2487C262.183 43.2487 263.462 49.0148 263.462 59.7448V101.066ZM589.595 58.3038V119.004C589.275 121.886 586.717 124.129 583.84 123.808C581.282 123.648 579.204 121.566 579.044 119.004V59.4248C579.044 48.5338 577.445 42.7678 555.703 42.7678C533.961 42.7678 532.362 48.5338 532.362 59.4248V119.004C532.362 121.886 529.964 124.289 527.086 124.289C524.208 124.289 521.811 121.886 521.811 119.004V40.6858C521.811 37.9638 524.208 35.8807 526.927 36.0417H527.086C529.964 36.0417 532.362 38.4438 532.362 41.4868V41.8067C539.076 36.8418 547.39 34.2798 555.703 34.5998C586.078 34.4398 589.595 43.8898 589.595 58.3038ZM667.451 20.0258V119.164C667.451 122.047 665.053 124.449 662.175 124.449C659.298 124.449 656.9 122.047 656.9 119.164V20.0258C656.9 17.1428 659.138 14.7408 662.175 14.7408C665.053 14.7408 667.292 17.1428 667.451 20.0258ZM746.746 41.4868V130.535C746.746 144.789 743.869 154.398 712.694 154.398C681.52 154.398 679.761 146.231 679.122 133.738V133.258C679.122 130.214 681.52 127.812 684.557 127.812C687.595 127.812 689.993 130.214 689.993 133.258C690.473 141.586 693.67 145.91 712.854 145.91C732.038 145.91 736.195 139.984 736.195 129.094V118.843C729.481 123.808 721.168 126.37 712.854 126.05C682 126.05 678.962 116.601 678.962 102.187V41.4868C678.962 38.6048 681.2 36.2018 684.238 36.2018C686.955 36.2018 689.354 38.1238 689.513 41.0068V101.226C689.513 112.117 690.633 117.882 712.694 117.882C734.757 117.882 736.035 112.117 736.035 101.226V41.6468C736.035 38.7638 738.273 36.3618 741.311 36.3618C744.188 36.3618 746.427 38.6048 746.427 41.4868V41.6468L746.746 41.4868ZM645.39 50.6158C645.39 53.0178 643.471 55.1008 641.073 55.2608H611.817V119.164C612.137 122.047 609.898 124.769 607.021 124.929C604.143 125.25 601.426 123.008 601.265 120.125V37.4828C601.265 23.2288 603.664 14.5798 627.484 14.5798H641.233C643.631 14.2598 645.709 15.8618 646.029 18.2637C646.348 20.6667 644.75 22.7487 642.352 23.0688H627.804C613.575 23.0688 612.296 27.7137 612.296 38.7637V45.6508H641.552C643.95 45.9708 645.709 47.8928 645.549 50.2958V50.6158H645.39ZM345.794 83.1278C343.077 83.2878 340.678 81.3658 340.359 78.4837V59.7448C340.359 48.8538 338.601 43.0888 318.297 43.0888C297.994 43.0888 296.395 48.8538 296.395 59.7448V119.324C296.235 122.207 293.997 124.449 291.119 124.449C288.242 124.449 285.843 122.207 285.843 119.164V40.6858C285.843 37.9638 288.242 35.8807 290.959 36.0417H291.119C293.357 36.0417 295.276 37.3228 296.075 39.2448V41.6468C302.47 37.0028 310.143 34.4398 318.137 34.4398C346.914 34.4398 350.91 44.0498 350.91 58.3038V78.0028C350.91 80.7258 348.832 82.8078 346.274 82.9678H345.794V83.1278Z" fill="#78992E"/>
<path d="M779.999 46.6121C779.999 53.1781 774.883 58.4641 768.168 58.4641C761.454 58.4641 756.178 53.3391 756.178 46.6121C756.178 39.8851 761.454 34.9201 768.168 34.9201C774.883 34.9201 779.999 40.0461 779.999 46.6121ZM759.056 46.6121C759.056 51.7371 762.893 55.9011 768.168 55.9011C773.444 55.9011 776.961 51.7371 776.961 46.6121C776.961 41.4871 773.284 37.3221 768.009 37.3221C762.733 37.3221 759.056 41.4871 759.056 46.6121ZM766.25 52.6981H763.532V41.0071C764.651 40.8461 766.09 40.6861 768.009 40.6861C769.927 40.6861 771.206 41.0071 772.005 41.4871C772.645 41.9681 773.124 42.9281 773.124 44.0491C773.124 45.1701 772.165 46.2911 770.727 46.7721C771.846 47.4131 772.485 48.2131 772.805 49.8151C773.124 51.5761 773.444 52.3781 773.604 52.6981H770.727C770.406 52.2171 770.087 51.2561 769.767 49.8151C769.608 48.5341 768.808 47.8931 767.369 47.8931H766.09V52.5381L766.25 52.6981ZM766.41 46.1311H767.689C769.128 46.1311 770.406 45.6511 770.406 44.3701C770.406 43.0881 769.608 42.6081 767.849 42.6081H766.41V46.1311Z" fill="#78992E"/>
</svg>
