<?xml version="1.0" encoding="UTF-8"?>
<svg id="Layer_1" data-name="Layer 1" xmlns="http://www.w3.org/2000/svg" viewBox="0 0 488 98">
  <defs>
    <style>
      .cls-1 {
        fill: #10181f;
      }
    </style>
  </defs>
  <path class="cls-1" d="M53.8,74c-2-2.2-3.7-4.7-5.1-7.3-.4-.7-1.1-1.1-1.9-1.1s-1.5.4-1.9,1.1c-1.5,2.6-3.1,5-5,7.3-2.3,2.7-4.6,5.2-6.8,7.3-.6.6-.8,1.5-.5,2.3,4,9.2,8.6,13.8,14.2,13.8s10.2-4.6,14.1-13.8c.3-.8.1-1.7-.5-2.3-2.1-2.3-4.4-4.8-6.6-7.4v.1ZM46.9,93.3c-4.2,0-7.6-5.2-9.8-10,2.1-2.1,4.1-4.3,6-6.6,1.4-1.6,2.6-3.2,3.8-5,1.1,1.7,2.4,3.4,3.7,4.9,2,2.4,4.1,4.6,6,6.6-2.1,4.8-5.6,10-9.7,10v.1ZM63.8,31.6c-.7-.9-2-1.1-2.9-.4-3.4,2.4-8.6,8.3-6.1,14.8-2.6,1.3-4.6,3.5-5.6,6.3-1.7,5.4.8,12.2,7.6,20.3,14.7,17.6,25,19.5,28.7,19.5,1.5,0,2.9-.3,4.2-1.1v-.2c2.1-1.2,3.4-3.2,3.6-5.5,1.5-8.8-8.2-26.4-29.5-53.7ZM89.4,84.6c0,1.2-.8,2.3-1.8,2.9h-.2c-.5.3-1.2.4-1.8.3-2.4,0-11.6-1.3-25.6-18-5.7-6.8-8.1-12.5-6.9-16.3.9-2.2,2.8-3.9,5-4.6.6-.2,1.2-.6,1.5-1.2.3-.6.2-1.3-.2-1.9-2.7-4.1.4-8,2.4-10.1,25.3,33,28.1,44.6,27.5,48.7l.1.2ZM44.5,52.2c-1-2.8-3-5.1-5.7-6.3,2.3-6.4-2.9-12.3-6.1-14.8-.9-.7-2.2-.5-2.9.4C8.7,58.9-1.1,76.5.1,85.2c.3,2.3,1.5,4.3,3.5,5.5l.2.2c1.2.7,2.7,1.1,4.1,1.1,3.8,0,14.1-1.9,28.7-19.5,7.1-8.2,9.7-15,7.9-20.3ZM8.1,87.9c-.6,0-1.2,0-1.8-.3l-.2-.2c-1-.6-1.7-1.7-1.8-2.9-.7-4.1,2.2-16,27.5-48.7,2,2,5,5.9,2.4,10.1-.4.6-.4,1.3-.2,1.9.3.6.8,1.1,1.5,1.2,2.3.7,4.1,2.3,5,4.6,1.2,3.8-1.1,9.5-6.8,16.4-14.1,16.6-23.2,18-25.8,18l.2-.1ZM26.8,23.4c1.3,1.6,2.9,3,4.8,3.8,4.6,2.4,9.7,3.5,14.8,3.2h.7c4.9,0,9.8-.9,14.3-2.9,2.3-.8,4.4-2.3,5.9-4.3,1.4-1.8,2.2-4.1,2.2-6.4,0-.7,0-1.3-.2-2-1.4-5.1-6.1-8.6-11.5-8.4-1.1,0-2.2.2-3.3.5-.4,0-.8.2-1.1.4-.5-.1-.9-.4-1.1-.8-.5-.9-.2-2.1.7-2.6.9-.7,1.1-2,.4-2.9-.6-.7-1.5-1-2.4-.7-2.9,1.6-3.9,5.2-2.3,8.1,0,0,0,.2.1.2.5.9,1.3,1.6,2.2,2.2-.5,1.9-.6,3.8-.4,5.7.3,3.3,1.4,6.4,3.2,9.1-2.2.4-4.4.6-6.6.6s-4.6,0-6.8-.4c1.9-2.7,3-5.9,3.3-9.2.3-2.1,0-4.2-.6-6.1.8-.5,1.5-1.1,2-1.9.8-1.4,1-3.1.6-4.6-.4-1.6-1.4-2.9-2.8-3.7-1.1-.6-2.5-.3-3.1.8-.6,1-.3,2.3.7,2.9.4.3.7.7.9,1.1.1.5,0,1-.2,1.4-.2.3-.5.6-.9.7-.3-.2-.7-.3-1.1-.3-1-.3-2-.4-3-.4-5.3-.3-10.1,3.2-11.5,8.4-.2.7-.2,1.3-.2,2,0,2.3.8,4.6,2.3,6.4v.1ZM58.3,24.2c-1.1,0-3.2-3.5-3.8-8.1-.3-3.2.3-4.9,1-5.1.7-.2,1.4-.2,2.1-.2,3.3-.2,6.4,1.9,7.3,5.1,0,.4.2.8.2,1.2v.8c-.7,2.6-2.6,4.8-5.1,5.7-.5.3-1,.5-1.5.6h-.2ZM36.2,10.8c.7,0,1.4,0,2.1.3.7.2,1.3,2,1,5.1-.5,4.6-2.7,8.1-3.8,8.1-.6-.1-1.2-.3-1.8-.6-.9-.5-1.8-1.2-2.6-1.9-1.4-1.1-2.2-2.8-2.3-4.6,0-.4,0-.8.2-1.2.8-3.3,3.9-5.6,7.3-5.3l-.1.1ZM247.9,21.5c-19.5,0-21.3,6.1-21.3,14.9v27.5c0,9,1.9,14.9,21.3,14.9s21.3-6,21.3-14.9v-.7c0-1.8-1.5-3.3-3.3-3.3-1.7-.1-3.2,1.1-3.3,2.8v.6c0,6.8-.9,10.4-14.6,10.4s-14.8-3.6-14.8-10.4v-11.1h36v-15.7c0-8.8-1.8-14.9-21.2-14.9l-.1-.1ZM262.6,46.4h-29.3v-9.3c0-6.8.8-10.5,14.7-10.5s14.6,3.6,14.6,10.5v9.3ZM298.1,21.5c-19.5,0-21.4,6.1-21.4,14.9v27.5c0,9,1.9,14.9,21.4,14.9s21.3-6,21.3-14.9v-.7c0-1.8-1.4-3.3-3.3-3.3s-3.4,1.5-3.4,3.3c0,6.8-.8,10.4-14.6,10.4s-14.7-3.6-14.7-10.4v-11.1h36.1v-15.7c0-8.8-1.9-14.9-21.3-14.9h-.1ZM312.7,46.4h-29.3v-9.3c0-6.8.8-10.5,14.7-10.5s14.6,3.6,14.6,10.5v9.3ZM168.3,22.4c-1.8,0-3.3,1.4-3.3,3.2v.4c-4.2-3.3-9.4-4.9-14.7-4.6-19.4,0-21.2,6.1-21.2,14.9v27.5c0,9,2.1,14.9,21.2,14.9,5.2.2,10.4-1.4,14.6-4.5v6.4c0,6.8-.7,10.5-14.6,10.5s-14-2.9-14.3-8.4c-.1-1.8-1.6-3.1-3.4-3.1-1.7-.1-3.2,1.2-3.3,2.9v.8c.3,7.9,2.9,13,21,13s21.3-6,21.3-14.9V25.6c0-1.8-1.5-3.2-3.3-3.2ZM164.8,63.1c0,6.8-.7,10.4-14.6,10.4s-14.5-3.6-14.5-10.4v-25.8c0-6.8.7-10.3,14.5-10.3s14.6,3.6,14.6,10.3v25.8ZM368.8,36.4v37.9c-.2,1.8-1.8,3.2-3.6,3-1.6-.1-2.9-1.4-3-3v-37.2c0-6.8-1-10.4-14.6-10.4s-14.6,3.6-14.6,10.4v37.2c0,1.8-1.5,3.3-3.3,3.3s-3.3-1.5-3.3-3.3V25.4c0-1.7,1.5-3,3.2-2.9h.1c1.8,0,3.3,1.5,3.3,3.4v.2c4.2-3.1,9.4-4.7,14.6-4.5,19-.1,21.2,5.8,21.2,14.8ZM417.5,12.5v61.9c0,1.8-1.5,3.3-3.3,3.3s-3.3-1.5-3.3-3.3V12.5c0-1.8,1.4-3.3,3.3-3.3,1.8,0,3.2,1.5,3.3,3.3ZM467.1,25.9v55.6c0,8.9-1.8,14.9-21.3,14.9s-20.6-5.1-21-12.9v-.3c0-1.9,1.5-3.4,3.4-3.4s3.4,1.5,3.4,3.4c.3,5.2,2.3,7.9,14.3,7.9s14.6-3.7,14.6-10.5v-6.4c-4.2,3.1-9.4,4.7-14.6,4.5-19.3,0-21.2-5.9-21.2-14.9V25.9c0-1.8,1.4-3.3,3.3-3.3,1.7,0,3.2,1.2,3.3,3v37.6c0,6.8.7,10.4,14.5,10.4s14.6-3.6,14.6-10.4V26c0-1.8,1.4-3.3,3.3-3.3,1.8,0,3.2,1.4,3.2,3.2v.1l.2-.1ZM403.7,31.6c0,1.5-1.2,2.8-2.7,2.9h-18.3v39.9c.2,1.8-1.2,3.5-3,3.6-1.8.2-3.5-1.2-3.6-3V23.4c0-8.9,1.5-14.3,16.4-14.3h8.6c1.5-.2,2.8.8,3,2.3.2,1.5-.8,2.8-2.3,3h-9.1c-8.9,0-9.7,2.9-9.7,9.8v4.3h18.3c1.5.2,2.6,1.4,2.5,2.9v.2h-.1ZM216.3,51.9c-1.7.1-3.2-1.1-3.4-2.9v-11.7c0-6.8-1.1-10.4-13.8-10.4s-13.7,3.6-13.7,10.4v37.2c-.1,1.8-1.5,3.2-3.3,3.2s-3.3-1.4-3.3-3.3V25.4c0-1.7,1.5-3,3.2-2.9h.1c1.4,0,2.6.8,3.1,2v1.5c4-2.9,8.8-4.5,13.8-4.5,18,0,20.5,6,20.5,14.9v12.3c0,1.7-1.3,3-2.9,3.1h-.3v.1Z"/>
  <path class="cls-1" d="M487.9,29.1c0,4.1-3.2,7.4-7.4,7.4s-7.5-3.2-7.5-7.4,3.3-7.3,7.5-7.3,7.4,3.2,7.4,7.3ZM474.8,29.1c0,3.2,2.4,5.8,5.7,5.8s5.5-2.6,5.5-5.8-2.3-5.8-5.6-5.8-5.6,2.6-5.6,5.8ZM479.3,32.9h-1.7v-7.3c.7-.1,1.6-.2,2.8-.2s2,.2,2.5.5c.4.3.7.9.7,1.6s-.6,1.4-1.5,1.7c.7.4,1.1.9,1.3,1.9.2,1.1.4,1.6.5,1.8h-1.8c-.2-.3-.4-.9-.6-1.8-.1-.8-.6-1.2-1.5-1.2h-.8v2.9l.1.1ZM479.4,28.8h.8c.9,0,1.7-.3,1.7-1.1s-.5-1.1-1.6-1.1-.8,0-.9,0v2.2Z"/>
</svg>