<?xml version="1.0" encoding="UTF-8"?>
<svg id="Layer_1" data-name="Layer 1" xmlns="http://www.w3.org/2000/svg" viewBox="0 0 361.92 90.2">
  <defs>
    <style>
      .cls-1 {
        fill: #b6f500;
      }
    </style>
  </defs>
  <path class="cls-1" d="M142.18,44.68v-15.7c0-8.8-1.8-14.9-21.2-14.9l-.1-.1c-19.5,0-21.3,6.1-21.3,14.9v27.5c0,9,1.9,14.9,21.3,14.9s21.3-6,21.3-14.9v-.7c0-1.8-1.5-3.3-3.3-3.3-1.7-.1-3.2,1.1-3.3,2.8v.6c0,6.8-.9,10.4-14.6,10.4s-14.8-3.6-14.8-10.4v-11.1h36ZM106.28,29.58c0-6.8.8-10.5,14.7-10.5s14.6,3.6,14.6,10.5v9.3h-29.3v-9.3Z"/>
  <path class="cls-1" d="M192.48,44.58v-15.7c0-8.8-1.9-14.9-21.3-14.9h-.1c-19.5,0-21.4,6.1-21.4,14.9v27.5c0,9,1.9,14.9,21.4,14.9s21.3-6,21.3-14.9v-.7c0-1.8-1.4-3.3-3.3-3.3s-3.4,1.5-3.4,3.3c0,6.8-.8,10.4-14.6,10.4s-14.7-3.6-14.7-10.4v-11.1h36.1ZM156.38,29.58c0-6.8.8-10.5,14.7-10.5s14.6,3.6,14.6,10.5v9.3h-29.3v-9.3Z"/>
  <path class="cls-1" d="M41.28,14.88c-1.8,0-3.3,1.4-3.3,3.2v.4c-4.2-3.3-9.4-4.9-14.7-4.6C3.88,13.88,2.08,19.98,2.08,28.78v27.5c0,9,2.1,14.9,21.2,14.9,5.2.2,10.4-1.4,14.6-4.5v6.4c0,6.8-.7,10.5-14.6,10.5s-14-2.9-14.3-8.4c-.1-1.8-1.6-3.1-3.4-3.1-1.7-.1-3.2,1.2-3.3,2.9v.8c.3,7.9,2.9,13,21,13s21.3-6,21.3-14.9V18.08c0-1.8-1.5-3.2-3.3-3.2ZM37.78,55.58c0,6.8-.7,10.4-14.6,10.4s-14.5-3.6-14.5-10.4v-25.8c0-6.8.7-10.3,14.5-10.3s14.6,3.6,14.6,10.3v25.8Z"/>
  <path class="cls-1" d="M241.78,28.88v37.9c-.2,1.8-1.8,3.2-3.6,3-1.6-.1-2.9-1.4-3-3V29.58c0-6.8-1-10.4-14.6-10.4s-14.6,3.6-14.6,10.4v37.2c0,1.8-1.5,3.3-3.3,3.3s-3.3-1.5-3.3-3.3V17.88c0-1.7,1.5-3,3.2-2.9h.1c1.8,0,3.3,1.5,3.3,3.4v.2c4.2-3.1,9.4-4.7,14.6-4.5,19-.1,21.2,5.8,21.2,14.8Z"/>
  <path class="cls-1" d="M290.48,4.98v61.9c0,1.8-1.5,3.3-3.3,3.3s-3.3-1.5-3.3-3.3V4.98c0-1.8,1.4-3.3,3.3-3.3,1.8,0,3.2,1.5,3.3,3.3Z"/>
  <path class="cls-1" d="M340.08,18.38v55.6c0,8.9-1.8,14.9-21.3,14.9s-20.6-5.1-21-12.9v-.3c0-1.9,1.5-3.4,3.4-3.4s3.4,1.5,3.4,3.4c.3,5.2,2.3,7.9,14.3,7.9s14.6-3.7,14.6-10.5v-6.4c-4.2,3.1-9.4,4.7-14.6,4.5-19.3,0-21.2-5.9-21.2-14.9V18.38c0-1.8,1.4-3.3,3.3-3.3,1.7,0,3.2,1.2,3.3,3v37.6c0,6.8.7,10.4,14.5,10.4s14.6-3.6,14.6-10.4V18.48c0-1.8,1.4-3.3,3.3-3.3,1.8,0,3.2,1.4,3.2,3.2v.1l.2-.1Z"/>
  <path class="cls-1" d="M276.68,24.08c0,1.5-1.2,2.8-2.7,2.9h-18.3v39.9c.2,1.8-1.2,3.5-3,3.6-1.8.2-3.5-1.2-3.6-3V15.88c0-8.9,1.5-14.3,16.4-14.3h8.6c1.5-.2,2.8.8,3,2.3.2,1.5-.8,2.8-2.3,3h-9.1c-8.9,0-9.7,2.9-9.7,9.8v4.3h18.3c1.5.2,2.6,1.4,2.5,2.9v.2h-.1Z"/>
  <path class="cls-1" d="M89.28,44.38c-1.7.1-3.2-1.1-3.4-2.9v-11.7c0-6.8-1.1-10.4-13.8-10.4s-13.7,3.6-13.7,10.4v37.2c-.1,1.8-1.5,3.2-3.3,3.2s-3.3-1.4-3.3-3.3V17.88c0-1.7,1.5-3,3.2-2.9h.1c1.4,0,2.6.8,3.1,2v1.5c4-2.9,8.8-4.5,13.8-4.5,18,0,20.5,6,20.5,14.9v12.3c0,1.7-1.3,3-2.9,3.1h-.3v.1Z"/>
  <path class="cls-1" d="M360.88,21.58c0,4.1-3.2,7.4-7.4,7.4s-7.5-3.2-7.5-7.4,3.3-7.3,7.5-7.3,7.4,3.2,7.4,7.3ZM347.78,21.58c0,3.2,2.4,5.8,5.7,5.8s5.5-2.6,5.5-5.8-2.3-5.8-5.6-5.8-5.6,2.6-5.6,5.8ZM352.28,25.38h-1.7v-7.3c.7-.1,1.6-.2,2.8-.2s2,.2,2.5.5c.4.3.7.9.7,1.6s-.6,1.4-1.5,1.7c.7.4,1.1.9,1.3,1.9.2,1.1.4,1.6.5,1.8h-1.8c-.2-.3-.4-.9-.6-1.8-.1-.8-.6-1.2-1.5-1.2h-.8v2.9l.1.1ZM352.38,21.28h.8c.9,0,1.7-.3,1.7-1.1s-.5-1.1-1.6-1.1-.8,0-.9,0v2.2Z"/>
</svg>