<svg width="565" height="900" viewBox="0 0 565 900" fill="none" xmlns="http://www.w3.org/2000/svg">
<path d="M9.663 186.405C4.349 189.481 0 197.023 0 203.164V784.14C0 790.281 4.349 792.789 9.663 789.712L334.172 601.864C339.486 598.788 343.835 591.246 343.835 585.106V9.06934C343.835 2.09735 336.287 -2.25964 330.25 1.22736L9.663 186.405Z" fill="#B6F500"/>
<path d="M555.192 584.419L353.353 467.887C350.692 466.351 347.184 465.583 343.675 465.585C340.168 465.583 336.659 466.351 333.998 467.887L132.159 584.419C126.841 587.49 122.49 595.026 122.49 601.167V899.774H222.383H464.968H564.861V601.167C564.861 595.026 560.51 587.49 555.192 584.419Z" fill="#79982D"/>
<path d="M188.84 230.942C181.505 235.177 175.504 245.571 175.504 254.041V419.149C175.504 427.619 181.505 438.013 188.84 442.248L331.831 524.802C339.166 529.037 351.169 529.037 358.504 524.802L501.495 442.248C508.83 438.013 514.831 427.619 514.831 419.149V254.041C514.831 245.571 508.83 235.177 501.495 230.942L358.504 148.388C351.169 144.153 339.166 144.153 331.831 148.388L188.84 230.942Z" stroke="white" stroke-width="2" stroke-miterlimit="10"/>
</svg>
