<svg width="2048" height="2048" viewBox="0 0 2048 2048" fill="none" xmlns="http://www.w3.org/2000/svg">
<g clip-path="url(#clip0_13150_4618)">
<rect width="2048" height="2048" fill="black"/>
<path d="M2087.35 166.776C2092.11 169.529 2096 176.276 2096 181.771V701.567C2096 707.062 2092.11 709.306 2087.35 706.553L1797.02 538.486C1792.26 535.734 1788.37 528.986 1788.37 523.492V8.11475C1788.37 1.87695 1795.13 -2.02124 1800.53 1.09857L2087.35 166.776Z" fill="#B6F500"/>
<path d="M1956.14 282.147L1775.55 386.407C1773.17 387.782 1770.03 388.469 1766.89 388.467C1763.76 388.469 1760.62 387.782 1758.24 386.407L1577.65 282.147C1572.89 279.399 1569 272.657 1569 267.162V0L1658.37 0L1875.41 0L1964.79 0V267.162C1964.79 272.657 1960.89 279.399 1956.14 282.147Z" fill="#79982D"/>
<path d="M1925.17 379.529C1931.73 383.318 1937.1 392.617 1937.1 400.195V547.917C1937.1 555.495 1931.73 564.794 1925.17 568.583L1797.24 642.444C1790.67 646.233 1779.93 646.233 1773.37 642.444L1645.44 568.583C1638.88 564.794 1633.51 555.495 1633.51 547.917V400.195C1633.51 392.617 1638.88 383.318 1645.44 379.529L1773.37 305.668C1779.93 301.879 1790.67 301.879 1797.24 305.668L1925.17 379.529Z" stroke="white" stroke-width="2" stroke-miterlimit="10"/>
<path d="M131.985 979.271L112.185 857.771H126.285L139.335 945.071L155.685 858.221H167.685L184.185 945.521L196.935 857.771H210.735L191.235 979.271H178.935L161.985 889.271L144.885 979.271H131.985ZM225.513 979.271V857.771H272.613V870.371H242.463V910.571H266.913V922.571H242.463V967.121H272.913V979.271H225.513ZM286.596 979.271V857.771H303.546V967.121H334.596V979.271H286.596ZM375.787 980.621C367.187 980.621 360.487 978.821 355.687 975.221C350.987 971.621 347.687 966.771 345.787 960.671C343.987 954.571 343.087 947.771 343.087 940.271V897.371C343.087 889.171 343.987 882.021 345.787 875.921C347.687 869.821 350.987 865.121 355.687 861.821C360.487 858.421 367.187 856.721 375.787 856.721C383.387 856.721 389.387 858.121 393.787 860.921C398.287 863.721 401.487 867.721 403.387 872.921C405.387 878.121 406.387 884.371 406.387 891.671V901.271H390.337V892.721C390.337 888.221 390.087 884.271 389.587 880.871C389.187 877.371 387.987 874.671 385.987 872.771C383.987 870.871 380.637 869.921 375.937 869.921C371.137 869.921 367.637 870.971 365.437 873.071C363.237 875.071 361.787 877.971 361.087 881.771C360.487 885.471 360.187 889.821 360.187 894.821V942.971C360.187 949.071 360.687 953.921 361.687 957.521C362.687 961.021 364.337 963.521 366.637 965.021C368.937 966.521 372.037 967.271 375.937 967.271C380.537 967.271 383.837 966.271 385.837 964.271C387.837 962.171 389.087 959.321 389.587 955.721C390.087 952.121 390.337 947.921 390.337 943.121V934.121H406.387V943.121C406.387 950.521 405.487 957.071 403.687 962.771C401.887 968.371 398.787 972.771 394.387 975.971C389.987 979.071 383.787 980.621 375.787 980.621ZM453.584 980.621C445.384 980.621 438.834 979.021 433.934 975.821C429.034 972.621 425.534 968.071 423.434 962.171C421.334 956.171 420.284 949.171 420.284 941.171V895.121C420.284 887.121 421.334 880.271 423.434 874.571C425.634 868.771 429.134 864.371 433.934 861.371C438.834 858.271 445.384 856.721 453.584 856.721C461.784 856.721 468.284 858.271 473.084 861.371C477.884 864.471 481.334 868.871 483.434 874.571C485.634 880.271 486.734 887.121 486.734 895.121V941.321C486.734 949.221 485.634 956.121 483.434 962.021C481.334 967.921 477.884 972.521 473.084 975.821C468.284 979.021 461.784 980.621 453.584 980.621ZM453.584 967.271C458.084 967.271 461.484 966.371 463.784 964.571C466.084 962.671 467.634 960.071 468.434 956.771C469.234 953.371 469.634 949.421 469.634 944.921V891.671C469.634 887.171 469.234 883.321 468.434 880.121C467.634 876.821 466.084 874.321 463.784 872.621C461.484 870.821 458.084 869.921 453.584 869.921C449.084 869.921 445.634 870.821 443.234 872.621C440.934 874.321 439.384 876.821 438.584 880.121C437.784 883.321 437.384 887.171 437.384 891.671V944.921C437.384 949.421 437.784 953.371 438.584 956.771C439.384 960.071 440.934 962.671 443.234 964.571C445.634 966.371 449.084 967.271 453.584 967.271ZM503.093 979.271L505.343 857.771H521.993L543.443 956.321L565.043 857.771H581.543L583.793 979.271H570.143L568.793 891.071L548.243 979.271H538.643L518.243 891.071L516.893 979.271H503.093ZM602.417 979.271V857.771H649.517V870.371H619.367V910.571H643.817V922.571H619.367V967.121H649.817V979.271H602.417ZM711.128 979.271V870.371H690.578V857.771H748.028V870.371H728.078V979.271H711.128ZM790.352 980.621C782.152 980.621 775.602 979.021 770.702 975.821C765.802 972.621 762.302 968.071 760.202 962.171C758.102 956.171 757.052 949.171 757.052 941.171V895.121C757.052 887.121 758.102 880.271 760.202 874.571C762.402 868.771 765.902 864.371 770.702 861.371C775.602 858.271 782.152 856.721 790.352 856.721C798.552 856.721 805.052 858.271 809.852 861.371C814.652 864.471 818.102 868.871 820.202 874.571C822.402 880.271 823.502 887.121 823.502 895.121V941.321C823.502 949.221 822.402 956.121 820.202 962.021C818.102 967.921 814.652 972.521 809.852 975.821C805.052 979.021 798.552 980.621 790.352 980.621ZM790.352 967.271C794.852 967.271 798.252 966.371 800.552 964.571C802.852 962.671 804.402 960.071 805.202 956.771C806.002 953.371 806.402 949.421 806.402 944.921V891.671C806.402 887.171 806.002 883.321 805.202 880.121C804.402 876.821 802.852 874.321 800.552 872.621C798.252 870.821 794.852 869.921 790.352 869.921C785.852 869.921 782.402 870.821 780.002 872.621C777.702 874.321 776.152 876.821 775.352 880.121C774.552 883.321 774.152 887.171 774.152 891.671V944.921C774.152 949.421 774.552 953.371 775.352 956.771C776.152 960.071 777.702 962.671 780.002 964.571C782.402 966.371 785.852 967.271 790.352 967.271Z" fill="white"/>
<path d="M225.585 1428.31C201.585 1428.31 182.535 1423.21 168.435 1413.01C154.335 1402.81 144.135 1388.41 137.835 1369.81C131.835 1350.91 128.835 1328.71 128.835 1303.21V1180.81C128.835 1154.71 131.835 1132.21 137.835 1113.31C143.835 1094.41 154.335 1080.01 169.335 1070.11C184.635 1059.91 205.635 1054.81 232.335 1054.81C257.235 1054.81 277.035 1059.01 291.735 1067.41C306.435 1075.81 316.935 1087.96 323.235 1103.86C329.835 1119.46 333.135 1138.51 333.135 1161.01V1179.91H269.685V1159.21C269.685 1147.51 268.785 1137.46 266.985 1129.06C265.485 1120.66 262.185 1114.36 257.085 1110.16C252.285 1105.66 244.335 1103.41 233.235 1103.41C221.535 1103.41 212.985 1106.26 207.585 1111.96C202.485 1117.66 199.185 1125.16 197.685 1134.46C196.485 1143.76 195.885 1153.96 195.885 1165.06V1317.61C195.885 1330.21 196.935 1341.16 199.035 1350.46C201.135 1359.76 205.035 1366.96 210.735 1372.06C216.435 1376.86 224.535 1379.26 235.035 1379.26C245.835 1379.26 254.085 1376.56 259.785 1371.16C265.485 1365.76 269.385 1358.26 271.485 1348.66C273.885 1339.06 275.085 1327.66 275.085 1314.46V1280.26H235.935V1238.41H334.935V1423.36H292.185L287.235 1387.36C282.435 1399.36 275.085 1409.26 265.185 1417.06C255.585 1424.56 242.385 1428.31 225.585 1428.31ZM385.602 1423.36V1058.86H472.902C497.502 1058.86 518.202 1061.86 535.002 1067.86C552.102 1073.56 565.002 1083.46 573.702 1097.56C582.702 1111.66 587.202 1130.86 587.202 1155.16C587.202 1169.86 585.852 1183.06 583.152 1194.76C580.452 1206.46 575.802 1216.51 569.202 1224.91C562.902 1233.01 554.052 1239.31 542.652 1243.81L593.502 1423.36H526.902L482.802 1256.41H452.202V1423.36H385.602ZM452.202 1214.56H472.902C485.802 1214.56 496.002 1212.76 503.502 1209.16C511.302 1205.26 516.852 1199.26 520.152 1191.16C523.452 1182.76 525.102 1172.11 525.102 1159.21C525.102 1140.91 521.652 1127.26 514.752 1118.26C508.152 1108.96 495.402 1104.31 476.502 1104.31H452.202V1214.56ZM637.848 1423.36V1058.86H790.848V1105.66H704.448V1210.51H772.398V1256.86H704.448V1377.46H791.748V1423.36H637.848ZM830.329 1423.36V1058.86H983.329V1105.66H896.929V1210.51H964.879V1256.86H896.929V1377.46H984.229V1423.36H830.329ZM1022.81 1423.36V1058.86H1069.16L1157.81 1266.76V1058.86H1212.71V1423.36H1168.61L1079.51 1205.56V1423.36H1022.81ZM1268.02 1423.36V1058.86H1417.87V1104.76H1334.62V1210.96H1402.57V1257.31H1334.62V1423.36H1268.02ZM1453.91 1423.36V1058.86H1520.51V1377.46H1608.71V1423.36H1453.91ZM1655.5 1423.36V1284.31L1581.7 1058.86H1643.8L1688.8 1203.31L1731.1 1058.86H1791.85L1718.95 1284.31V1423.36H1655.5Z" fill="#B6F500"/>
<path d="M110.817 1628.39V1576.55H118.049V1598.95H131.361V1576.55H138.593V1628.39H131.361V1604.13H118.049V1628.39H110.817ZM146.564 1628.39V1591.4H153.412V1628.39H146.564ZM146.564 1585.89V1578.73H153.412V1585.89H146.564ZM170.533 1639.97C168.272 1639.97 166.224 1639.72 164.389 1639.21C162.597 1638.74 161.168 1637.99 160.101 1636.97C159.077 1635.94 158.565 1634.6 158.565 1632.93C158.565 1631.65 158.864 1630.52 159.461 1629.54C160.058 1628.6 160.826 1627.79 161.765 1627.11C162.704 1626.43 163.685 1625.89 164.709 1625.51L167.909 1625.96C167.354 1626.47 166.821 1627 166.309 1627.56C165.797 1628.07 165.37 1628.6 165.029 1629.16C164.688 1629.76 164.517 1630.4 164.517 1631.08C164.517 1632.19 164.986 1633.02 165.925 1633.57C166.906 1634.13 168.634 1634.41 171.109 1634.41C173.541 1634.41 175.333 1634.11 176.485 1633.51C177.68 1632.96 178.277 1632.06 178.277 1630.82C178.277 1630.05 178.128 1629.41 177.829 1628.9C177.53 1628.43 177.018 1628.05 176.293 1627.75C175.568 1627.45 174.522 1627.24 173.157 1627.11L165.093 1626.09C163.429 1625.87 162.192 1625.34 161.381 1624.49C160.57 1623.63 160.165 1622.69 160.165 1621.67C160.165 1620.13 160.592 1618.83 161.445 1617.77C162.341 1616.7 163.536 1615.5 165.029 1614.18L167.333 1615.97C167.077 1616.32 166.757 1616.81 166.373 1617.45C165.989 1618.04 165.797 1618.64 165.797 1619.24C165.797 1619.71 166.032 1620.09 166.501 1620.39C167.013 1620.69 167.802 1620.88 168.869 1620.97L175.077 1621.54C177.978 1621.8 180.133 1622.67 181.541 1624.17C182.949 1625.66 183.653 1627.79 183.653 1630.57C183.653 1632.61 183.162 1634.34 182.181 1635.75C181.242 1637.16 179.813 1638.2 177.893 1638.89C175.973 1639.61 173.52 1639.97 170.533 1639.97ZM170.789 1617C168.272 1617 166.224 1616.44 164.645 1615.33C163.066 1614.22 161.893 1612.69 161.125 1610.73C160.4 1608.76 160.037 1606.52 160.037 1604.01C160.037 1601.15 160.442 1598.76 161.253 1596.84C162.064 1594.88 163.258 1593.4 164.837 1592.42C166.458 1591.4 168.442 1590.89 170.789 1590.89C173.221 1590.89 175.205 1591.5 176.741 1592.74C178.277 1593.94 179.408 1595.54 180.133 1597.54C180.858 1599.55 181.221 1601.77 181.221 1604.2C181.221 1606.72 180.88 1608.96 180.197 1610.92C179.557 1612.84 178.469 1614.33 176.933 1615.4C175.44 1616.46 173.392 1617 170.789 1617ZM170.789 1612.07C171.728 1612.07 172.474 1611.9 173.029 1611.56C173.584 1611.17 173.989 1610.64 174.245 1609.96C174.544 1609.28 174.736 1608.44 174.821 1607.46C174.949 1606.44 175.013 1605.29 175.013 1604.01C175.013 1602.73 174.97 1601.57 174.885 1600.55C174.8 1599.53 174.608 1598.67 174.309 1597.99C174.01 1597.26 173.584 1596.71 173.029 1596.33C172.474 1595.94 171.749 1595.75 170.853 1595.75C169.914 1595.75 169.146 1595.94 168.549 1596.33C167.994 1596.67 167.546 1597.2 167.205 1597.93C166.906 1598.61 166.693 1599.46 166.565 1600.49C166.48 1601.51 166.437 1602.68 166.437 1604.01C166.437 1605.16 166.48 1606.22 166.565 1607.21C166.693 1608.19 166.906 1609.04 167.205 1609.77C167.504 1610.49 167.93 1611.07 168.485 1611.49C169.082 1611.88 169.85 1612.07 170.789 1612.07ZM179.941 1597.61L178.341 1595.05C178.682 1594.45 179.45 1593.7 180.645 1592.81C181.84 1591.91 183.12 1591.16 184.485 1590.57L186.277 1595.05C185.68 1595.17 184.869 1595.41 183.845 1595.75C182.864 1596.09 181.968 1596.45 181.157 1596.84C180.346 1597.18 179.941 1597.44 179.941 1597.61ZM189.183 1628.39V1576.55H196.031V1595.24C197.268 1594.04 198.655 1593.02 200.191 1592.17C201.727 1591.31 203.434 1590.89 205.311 1590.89C206.762 1590.89 207.871 1591.27 208.639 1592.04C209.45 1592.81 210.004 1593.77 210.303 1594.92C210.644 1596.07 210.815 1597.24 210.815 1598.44V1628.39H203.967V1600.42C203.967 1599.1 203.775 1598.08 203.391 1597.35C203.007 1596.62 202.218 1596.26 201.023 1596.26C200.212 1596.26 199.359 1596.5 198.463 1596.97C197.61 1597.44 196.799 1598.01 196.031 1598.69V1628.39H189.183ZM216.595 1612.39V1607.21H230.867V1612.39H216.595ZM237.442 1628.39V1576.55H250.306C253.421 1576.55 255.895 1577.13 257.73 1578.28C259.607 1579.39 260.973 1581.01 261.826 1583.14C262.679 1585.28 263.106 1587.86 263.106 1590.89C263.106 1593.62 262.615 1595.98 261.634 1597.99C260.695 1600 259.287 1601.55 257.41 1602.66C255.533 1603.73 253.186 1604.26 250.37 1604.26H244.674V1628.39H237.442ZM244.674 1599.08H248.002C250.093 1599.08 251.735 1598.84 252.93 1598.37C254.125 1597.9 254.978 1597.09 255.49 1595.94C256.002 1594.75 256.258 1593.08 256.258 1590.95C256.258 1588.48 256.066 1586.58 255.682 1585.25C255.341 1583.93 254.594 1583.01 253.442 1582.5C252.29 1581.99 250.498 1581.73 248.066 1581.73H244.674V1599.08ZM276.606 1628.9C273.705 1628.9 271.465 1628.35 269.886 1627.24C268.307 1626.09 267.198 1624.42 266.558 1622.25C265.961 1620.03 265.662 1617.32 265.662 1614.12V1605.67C265.662 1602.38 265.982 1599.65 266.622 1597.48C267.262 1595.3 268.371 1593.66 269.95 1592.55C271.571 1591.44 273.79 1590.89 276.606 1590.89C279.721 1590.89 282.003 1591.53 283.454 1592.81C284.947 1594.09 285.929 1595.94 286.398 1598.37C286.867 1600.76 287.102 1603.64 287.102 1607.01V1610.02H272.51V1617.45C272.51 1618.94 272.638 1620.16 272.894 1621.09C273.193 1622.03 273.641 1622.74 274.238 1623.21C274.878 1623.63 275.689 1623.85 276.67 1623.85C277.694 1623.85 278.462 1623.61 278.974 1623.14C279.529 1622.63 279.891 1621.93 280.062 1621.03C280.275 1620.09 280.382 1619 280.382 1617.77V1615.53H287.038V1616.93C287.038 1620.65 286.249 1623.57 284.67 1625.7C283.091 1627.84 280.403 1628.9 276.606 1628.9ZM272.51 1606.31H280.382V1602.98C280.382 1601.45 280.297 1600.17 280.126 1599.14C279.955 1598.08 279.593 1597.29 279.038 1596.77C278.526 1596.22 277.694 1595.94 276.542 1595.94C275.433 1595.94 274.579 1596.2 273.982 1596.71C273.427 1597.22 273.043 1598.1 272.83 1599.33C272.617 1600.53 272.51 1602.19 272.51 1604.33V1606.31ZM293.496 1628.39V1591.4H300.344V1596.65C301.709 1594.38 303.074 1592.87 304.44 1592.1C305.805 1591.33 307.17 1590.95 308.536 1590.95C308.706 1590.95 308.856 1590.95 308.984 1590.95C309.154 1590.95 309.368 1590.97 309.624 1591.01V1598.57C309.112 1598.35 308.514 1598.18 307.832 1598.05C307.192 1597.88 306.53 1597.8 305.848 1597.8C304.781 1597.8 303.8 1598.05 302.904 1598.57C302.05 1599.04 301.197 1599.97 300.344 1601.38V1628.39H293.496ZM316.042 1628.39V1596.45H311.626V1591.4H316.042V1589.48C316.042 1587.17 316.213 1585.21 316.554 1583.59C316.938 1581.93 317.706 1580.65 318.858 1579.75C320.01 1578.85 321.738 1578.41 324.042 1578.41C324.895 1578.41 325.642 1578.45 326.282 1578.53C326.965 1578.58 327.711 1578.68 328.522 1578.85V1583.85C328.138 1583.76 327.711 1583.7 327.242 1583.65C326.773 1583.57 326.346 1583.53 325.962 1583.53C324.639 1583.53 323.786 1583.97 323.402 1584.87C323.061 1585.72 322.89 1586.88 322.89 1588.33V1591.4H328.522V1596.45H322.89V1628.39H316.042ZM341.167 1628.9C338.436 1628.9 336.282 1628.35 334.703 1627.24C333.124 1626.13 331.994 1624.55 331.311 1622.5C330.671 1620.45 330.351 1618.04 330.351 1615.27V1604.52C330.351 1601.74 330.671 1599.33 331.311 1597.29C331.994 1595.24 333.124 1593.66 334.703 1592.55C336.282 1591.44 338.436 1590.89 341.167 1590.89C343.898 1590.89 346.031 1591.44 347.567 1592.55C349.146 1593.66 350.255 1595.24 350.895 1597.29C351.578 1599.33 351.919 1601.74 351.919 1604.52V1615.27C351.919 1618.04 351.578 1620.45 350.895 1622.5C350.255 1624.55 349.146 1626.13 347.567 1627.24C346.031 1628.35 343.898 1628.9 341.167 1628.9ZM341.167 1623.85C342.49 1623.85 343.407 1623.46 343.919 1622.69C344.474 1621.93 344.794 1620.92 344.879 1619.69C345.007 1618.41 345.071 1617.08 345.071 1615.72V1604.13C345.071 1602.73 345.007 1601.4 344.879 1600.17C344.794 1598.93 344.474 1597.93 343.919 1597.16C343.407 1596.35 342.49 1595.94 341.167 1595.94C339.844 1595.94 338.906 1596.35 338.351 1597.16C337.796 1597.93 337.455 1598.93 337.327 1600.17C337.242 1601.4 337.199 1602.73 337.199 1604.13V1615.72C337.199 1617.08 337.242 1618.41 337.327 1619.69C337.455 1620.92 337.796 1621.93 338.351 1622.69C338.906 1623.46 339.844 1623.85 341.167 1623.85ZM358.371 1628.39V1591.4H365.219V1596.65C366.584 1594.38 367.949 1592.87 369.315 1592.1C370.68 1591.33 372.045 1590.95 373.411 1590.95C373.581 1590.95 373.731 1590.95 373.859 1590.95C374.029 1590.95 374.243 1590.97 374.499 1591.01V1598.57C373.987 1598.35 373.389 1598.18 372.707 1598.05C372.067 1597.88 371.405 1597.8 370.723 1597.8C369.656 1597.8 368.675 1598.05 367.779 1598.57C366.925 1599.04 366.072 1599.97 365.219 1601.38V1628.39H358.371ZM378.741 1628.39V1591.4H385.077V1594.92C386.314 1593.51 387.68 1592.46 389.173 1591.78C390.666 1591.1 392.202 1590.76 393.781 1590.76C395.146 1590.76 396.362 1591.1 397.429 1591.78C398.538 1592.46 399.328 1593.68 399.797 1595.43C401.12 1593.81 402.549 1592.64 404.085 1591.91C405.664 1591.14 407.306 1590.76 409.013 1590.76C410.208 1590.76 411.296 1591.06 412.277 1591.65C413.258 1592.21 414.048 1593.13 414.645 1594.41C415.242 1595.64 415.541 1597.29 415.541 1599.33V1628.39H409.269V1599.78C409.269 1597.99 408.97 1596.8 408.373 1596.2C407.818 1595.56 407.05 1595.24 406.069 1595.24C405.13 1595.24 404.149 1595.52 403.125 1596.07C402.101 1596.58 401.162 1597.31 400.309 1598.25C400.309 1598.42 400.309 1598.59 400.309 1598.76C400.309 1598.93 400.309 1599.12 400.309 1599.33V1628.39H394.037V1599.78C394.037 1597.99 393.738 1596.8 393.141 1596.2C392.586 1595.56 391.818 1595.24 390.837 1595.24C389.898 1595.24 388.917 1595.52 387.893 1596.07C386.912 1596.58 385.973 1597.31 385.077 1598.25V1628.39H378.741ZM427.809 1628.9C426.358 1628.9 425.078 1628.5 423.969 1627.69C422.86 1626.83 421.985 1625.77 421.345 1624.49C420.705 1623.16 420.385 1621.78 420.385 1620.33C420.385 1618.02 420.769 1616.08 421.537 1614.5C422.305 1612.92 423.35 1611.6 424.673 1610.53C426.038 1609.42 427.596 1608.46 429.345 1607.65C431.137 1606.84 433.014 1606.05 434.977 1605.29V1602.66C434.977 1601.17 434.892 1599.93 434.721 1598.95C434.55 1597.97 434.188 1597.24 433.633 1596.77C433.121 1596.26 432.332 1596.01 431.265 1596.01C430.326 1596.01 429.558 1596.22 428.961 1596.65C428.406 1597.07 428.001 1597.69 427.745 1598.5C427.489 1599.27 427.361 1600.19 427.361 1601.25V1603.11L420.577 1602.85C420.662 1598.76 421.601 1595.75 423.393 1593.83C425.185 1591.87 427.958 1590.89 431.713 1590.89C435.382 1590.89 437.985 1591.89 439.521 1593.89C441.057 1595.9 441.825 1598.8 441.825 1602.6V1619.49C441.825 1620.65 441.846 1621.76 441.889 1622.82C441.974 1623.89 442.06 1624.89 442.145 1625.83C442.273 1626.73 442.38 1627.58 442.465 1628.39H436.193C436.065 1627.71 435.894 1626.85 435.681 1625.83C435.51 1624.76 435.382 1623.8 435.297 1622.95C434.87 1624.4 434.038 1625.77 432.801 1627.05C431.606 1628.28 429.942 1628.9 427.809 1628.9ZM430.497 1623.01C431.18 1623.01 431.82 1622.82 432.417 1622.44C433.014 1622.05 433.548 1621.63 434.017 1621.16C434.486 1620.65 434.806 1620.24 434.977 1619.94V1609.45C433.91 1610.04 432.908 1610.64 431.969 1611.24C431.03 1611.84 430.198 1612.48 429.473 1613.16C428.79 1613.8 428.236 1614.54 427.809 1615.4C427.425 1616.21 427.233 1617.15 427.233 1618.21C427.233 1619.71 427.51 1620.88 428.065 1621.73C428.62 1622.59 429.43 1623.01 430.497 1623.01ZM448.429 1628.39V1591.4H455.277V1595.05C456.514 1593.89 457.879 1592.91 459.373 1592.1C460.866 1591.29 462.509 1590.89 464.301 1590.89C465.794 1590.89 466.925 1591.27 467.693 1592.04C468.503 1592.81 469.058 1593.77 469.357 1594.92C469.698 1596.07 469.869 1597.24 469.869 1598.44V1628.39H463.021V1600.42C463.021 1599.1 462.829 1598.08 462.445 1597.35C462.061 1596.62 461.271 1596.26 460.077 1596.26C459.309 1596.26 458.498 1596.5 457.645 1596.97C456.834 1597.39 456.045 1597.93 455.277 1598.57V1628.39H448.429ZM486.666 1628.9C483.636 1628.9 481.332 1628.3 479.754 1627.11C478.218 1625.87 477.172 1624.14 476.618 1621.93C476.106 1619.71 475.85 1617.13 475.85 1614.18V1605.67C475.85 1602.56 476.127 1599.91 476.682 1597.73C477.236 1595.52 478.282 1593.83 479.818 1592.68C481.396 1591.48 483.679 1590.89 486.666 1590.89C489.354 1590.89 491.423 1591.33 492.874 1592.23C494.367 1593.08 495.391 1594.38 495.946 1596.13C496.5 1597.84 496.778 1599.97 496.778 1602.53V1604.71H490.57V1602.47C490.57 1600.85 490.463 1599.57 490.25 1598.63C490.036 1597.69 489.652 1597.01 489.098 1596.58C488.543 1596.16 487.754 1595.94 486.73 1595.94C485.62 1595.94 484.767 1596.2 484.17 1596.71C483.572 1597.22 483.167 1598.1 482.954 1599.33C482.783 1600.53 482.698 1602.17 482.698 1604.26V1615.91C482.698 1619.07 482.996 1621.18 483.594 1622.25C484.191 1623.31 485.258 1623.85 486.794 1623.85C487.946 1623.85 488.778 1623.59 489.29 1623.08C489.844 1622.52 490.186 1621.76 490.314 1620.77C490.484 1619.79 490.57 1618.68 490.57 1617.45V1614.44H496.778V1617C496.778 1619.47 496.479 1621.61 495.882 1623.4C495.327 1625.19 494.303 1626.56 492.81 1627.49C491.359 1628.43 489.311 1628.9 486.666 1628.9ZM512.794 1628.9C509.892 1628.9 507.652 1628.35 506.074 1627.24C504.495 1626.09 503.386 1624.42 502.746 1622.25C502.148 1620.03 501.85 1617.32 501.85 1614.12V1605.67C501.85 1602.38 502.17 1599.65 502.81 1597.48C503.45 1595.3 504.559 1593.66 506.138 1592.55C507.759 1591.44 509.978 1590.89 512.794 1590.89C515.908 1590.89 518.191 1591.53 519.642 1592.81C521.135 1594.09 522.116 1595.94 522.586 1598.37C523.055 1600.76 523.29 1603.64 523.29 1607.01V1610.02H508.698V1617.45C508.698 1618.94 508.826 1620.16 509.082 1621.09C509.38 1622.03 509.828 1622.74 510.426 1623.21C511.066 1623.63 511.876 1623.85 512.858 1623.85C513.882 1623.85 514.65 1623.61 515.162 1623.14C515.716 1622.63 516.079 1621.93 516.25 1621.03C516.463 1620.09 516.57 1619 516.57 1617.77V1615.53H523.226V1616.93C523.226 1620.65 522.436 1623.57 520.858 1625.7C519.279 1627.84 516.591 1628.9 512.794 1628.9ZM508.698 1606.31H516.57V1602.98C516.57 1601.45 516.484 1600.17 516.314 1599.14C516.143 1598.08 515.78 1597.29 515.226 1596.77C514.714 1596.22 513.882 1595.94 512.73 1595.94C511.62 1595.94 510.767 1596.2 510.17 1596.71C509.615 1597.22 509.231 1598.1 509.018 1599.33C508.804 1600.53 508.698 1602.19 508.698 1604.33V1606.31ZM557.684 1628.97C554.015 1628.97 551.156 1628.2 549.108 1626.66C547.103 1625.13 545.695 1623.06 544.884 1620.45C544.116 1617.85 543.732 1614.95 543.732 1611.75V1593.45C543.732 1589.95 544.116 1586.9 544.884 1584.29C545.695 1581.69 547.103 1579.69 549.108 1578.28C551.156 1576.83 554.015 1576.1 557.684 1576.1C560.927 1576.1 563.487 1576.7 565.364 1577.89C567.284 1579.09 568.649 1580.8 569.46 1583.01C570.313 1585.23 570.74 1587.9 570.74 1591.01V1595.11H563.892V1591.46C563.892 1589.54 563.785 1587.86 563.572 1586.41C563.401 1584.91 562.889 1583.76 562.036 1582.95C561.183 1582.14 559.753 1581.73 557.748 1581.73C555.7 1581.73 554.207 1582.18 553.268 1583.08C552.329 1583.93 551.711 1585.17 551.412 1586.79C551.156 1588.37 551.028 1590.22 551.028 1592.36V1612.9C551.028 1615.5 551.241 1617.57 551.668 1619.11C552.095 1620.6 552.799 1621.67 553.78 1622.31C554.761 1622.95 556.084 1623.27 557.748 1623.27C559.711 1623.27 561.119 1622.84 561.972 1621.99C562.825 1621.09 563.359 1619.88 563.572 1618.34C563.785 1616.81 563.892 1615.01 563.892 1612.97V1609.13H570.74V1612.97C570.74 1616.12 570.356 1618.92 569.588 1621.35C568.82 1623.74 567.497 1625.62 565.62 1626.98C563.743 1628.3 561.097 1628.97 557.684 1628.97ZM587.23 1628.9C584.499 1628.9 582.344 1628.35 580.766 1627.24C579.187 1626.13 578.056 1624.55 577.374 1622.5C576.734 1620.45 576.414 1618.04 576.414 1615.27V1604.52C576.414 1601.74 576.734 1599.33 577.374 1597.29C578.056 1595.24 579.187 1593.66 580.766 1592.55C582.344 1591.44 584.499 1590.89 587.23 1590.89C589.96 1590.89 592.094 1591.44 593.63 1592.55C595.208 1593.66 596.318 1595.24 596.958 1597.29C597.64 1599.33 597.982 1601.74 597.982 1604.52V1615.27C597.982 1618.04 597.64 1620.45 596.958 1622.5C596.318 1624.55 595.208 1626.13 593.63 1627.24C592.094 1628.35 589.96 1628.9 587.23 1628.9ZM587.23 1623.85C588.552 1623.85 589.47 1623.46 589.982 1622.69C590.536 1621.93 590.856 1620.92 590.942 1619.69C591.07 1618.41 591.134 1617.08 591.134 1615.72V1604.13C591.134 1602.73 591.07 1601.4 590.942 1600.17C590.856 1598.93 590.536 1597.93 589.982 1597.16C589.47 1596.35 588.552 1595.94 587.23 1595.94C585.907 1595.94 584.968 1596.35 584.414 1597.16C583.859 1597.93 583.518 1598.93 583.39 1600.17C583.304 1601.4 583.262 1602.73 583.262 1604.13V1615.72C583.262 1617.08 583.304 1618.41 583.39 1619.69C583.518 1620.92 583.859 1621.93 584.414 1622.69C584.968 1623.46 585.907 1623.85 587.23 1623.85ZM604.241 1628.39V1591.4H611.089V1595.05C612.326 1593.89 613.692 1592.91 615.185 1592.1C616.678 1591.29 618.321 1590.89 620.113 1590.89C621.606 1590.89 622.737 1591.27 623.505 1592.04C624.316 1592.81 624.87 1593.77 625.169 1594.92C625.51 1596.07 625.681 1597.24 625.681 1598.44V1628.39H618.833V1600.42C618.833 1599.1 618.641 1598.08 618.257 1597.35C617.873 1596.62 617.084 1596.26 615.889 1596.26C615.121 1596.26 614.31 1596.5 613.457 1596.97C612.646 1597.39 611.857 1597.93 611.089 1598.57V1628.39H604.241ZM642.222 1628.9C640.302 1628.9 638.745 1628.54 637.55 1627.81C636.398 1627.09 635.545 1626.06 634.99 1624.74C634.478 1623.42 634.222 1621.86 634.222 1620.07V1595.94H630.318V1591.4H634.222V1580.58H641.07V1591.4H647.022V1595.94H641.07V1619.62C641.07 1621.07 641.305 1622.12 641.774 1622.76C642.243 1623.36 643.139 1623.65 644.462 1623.65C644.803 1623.65 645.187 1623.63 645.614 1623.59C646.083 1623.55 646.531 1623.5 646.958 1623.46V1628.52C646.105 1628.65 645.315 1628.73 644.59 1628.77C643.865 1628.86 643.075 1628.9 642.222 1628.9ZM662.294 1628.9C659.392 1628.9 657.152 1628.35 655.574 1627.24C653.995 1626.09 652.886 1624.42 652.246 1622.25C651.648 1620.03 651.35 1617.32 651.35 1614.12V1605.67C651.35 1602.38 651.67 1599.65 652.31 1597.48C652.95 1595.3 654.059 1593.66 655.638 1592.55C657.259 1591.44 659.478 1590.89 662.294 1590.89C665.408 1590.89 667.691 1591.53 669.142 1592.81C670.635 1594.09 671.616 1595.94 672.086 1598.37C672.555 1600.76 672.79 1603.64 672.79 1607.01V1610.02H658.198V1617.45C658.198 1618.94 658.326 1620.16 658.582 1621.09C658.88 1622.03 659.328 1622.74 659.926 1623.21C660.566 1623.63 661.376 1623.85 662.358 1623.85C663.382 1623.85 664.15 1623.61 664.662 1623.14C665.216 1622.63 665.579 1621.93 665.75 1621.03C665.963 1620.09 666.07 1619 666.07 1617.77V1615.53H672.726V1616.93C672.726 1620.65 671.936 1623.57 670.358 1625.7C668.779 1627.84 666.091 1628.9 662.294 1628.9ZM658.198 1606.31H666.07V1602.98C666.07 1601.45 665.984 1600.17 665.814 1599.14C665.643 1598.08 665.28 1597.29 664.726 1596.77C664.214 1596.22 663.382 1595.94 662.23 1595.94C661.12 1595.94 660.267 1596.2 659.67 1596.71C659.115 1597.22 658.731 1598.1 658.518 1599.33C658.304 1600.53 658.198 1602.19 658.198 1604.33V1606.31ZM678.991 1628.39V1591.4H685.839V1595.05C687.076 1593.89 688.442 1592.91 689.935 1592.1C691.428 1591.29 693.071 1590.89 694.863 1590.89C696.356 1590.89 697.487 1591.27 698.255 1592.04C699.066 1592.81 699.62 1593.77 699.919 1594.92C700.26 1596.07 700.431 1597.24 700.431 1598.44V1628.39H693.583V1600.42C693.583 1599.1 693.391 1598.08 693.007 1597.35C692.623 1596.62 691.834 1596.26 690.639 1596.26C689.871 1596.26 689.06 1596.5 688.207 1596.97C687.396 1597.39 686.607 1597.93 685.839 1598.57V1628.39H678.991ZM716.972 1628.9C715.052 1628.9 713.495 1628.54 712.3 1627.81C711.148 1627.09 710.295 1626.06 709.74 1624.74C709.228 1623.42 708.972 1621.86 708.972 1620.07V1595.94H705.068V1591.4H708.972V1580.58H715.82V1591.4H721.772V1595.94H715.82V1619.62C715.82 1621.07 716.055 1622.12 716.524 1622.76C716.993 1623.36 717.889 1623.65 719.212 1623.65C719.553 1623.65 719.937 1623.63 720.364 1623.59C720.833 1623.55 721.281 1623.5 721.708 1623.46V1628.52C720.855 1628.65 720.065 1628.73 719.34 1628.77C718.615 1628.86 717.825 1628.9 716.972 1628.9ZM755.253 1628.97C751.754 1628.97 748.959 1628.28 746.869 1626.92C744.778 1625.55 743.285 1623.61 742.389 1621.09C741.493 1618.53 741.045 1615.55 741.045 1612.13V1592.49C741.045 1589.07 741.493 1586.15 742.389 1583.72C743.327 1581.24 744.821 1579.37 746.869 1578.09C748.959 1576.76 751.754 1576.1 755.253 1576.1C758.751 1576.1 761.525 1576.76 763.573 1578.09C765.621 1579.41 767.093 1581.29 767.989 1583.72C768.927 1586.15 769.397 1589.07 769.397 1592.49V1612.2C769.397 1615.57 768.927 1618.51 767.989 1621.03C767.093 1623.55 765.621 1625.51 763.573 1626.92C761.525 1628.28 758.751 1628.97 755.253 1628.97ZM755.253 1623.27C757.173 1623.27 758.623 1622.89 759.605 1622.12C760.586 1621.31 761.247 1620.2 761.589 1618.79C761.93 1617.34 762.101 1615.65 762.101 1613.73V1591.01C762.101 1589.09 761.93 1587.45 761.589 1586.09C761.247 1584.68 760.586 1583.61 759.605 1582.89C758.623 1582.12 757.173 1581.73 755.253 1581.73C753.333 1581.73 751.861 1582.12 750.837 1582.89C749.855 1583.61 749.194 1584.68 748.853 1586.09C748.511 1587.45 748.341 1589.09 748.341 1591.01V1613.73C748.341 1615.65 748.511 1617.34 748.853 1618.79C749.194 1620.2 749.855 1621.31 750.837 1622.12C751.861 1622.89 753.333 1623.27 755.253 1623.27ZM775.929 1640.55V1591.4H782.777V1594.34C783.587 1593.4 784.569 1592.59 785.721 1591.91C786.873 1591.23 788.238 1590.89 789.817 1590.89C791.737 1590.89 793.251 1591.4 794.361 1592.42C795.513 1593.4 796.366 1594.66 796.921 1596.2C797.475 1597.69 797.838 1599.23 798.009 1600.81C798.179 1602.34 798.265 1603.66 798.265 1604.77V1613.73C798.265 1616.34 798.009 1618.81 797.497 1621.16C796.985 1623.46 796.046 1625.34 794.681 1626.79C793.358 1628.2 791.481 1628.9 789.049 1628.9C787.726 1628.9 786.553 1628.58 785.529 1627.94C784.505 1627.26 783.587 1626.49 782.777 1625.64V1640.55H775.929ZM787.705 1623.53C788.899 1623.53 789.753 1623.1 790.265 1622.25C790.777 1621.35 791.097 1620.16 791.225 1618.66C791.353 1617.17 791.417 1615.53 791.417 1613.73V1604.77C791.417 1603.24 791.331 1601.83 791.161 1600.55C790.99 1599.23 790.627 1598.18 790.073 1597.41C789.518 1596.65 788.643 1596.26 787.449 1596.26C786.553 1596.26 785.699 1596.45 784.889 1596.84C784.078 1597.22 783.374 1597.67 782.777 1598.18V1621.86C783.417 1622.33 784.142 1622.74 784.953 1623.08C785.763 1623.38 786.681 1623.53 787.705 1623.53ZM814.731 1628.9C811.83 1628.9 809.59 1628.35 808.011 1627.24C806.432 1626.09 805.323 1624.42 804.683 1622.25C804.086 1620.03 803.787 1617.32 803.787 1614.12V1605.67C803.787 1602.38 804.107 1599.65 804.747 1597.48C805.387 1595.3 806.496 1593.66 808.075 1592.55C809.696 1591.44 811.915 1590.89 814.731 1590.89C817.846 1590.89 820.128 1591.53 821.579 1592.81C823.072 1594.09 824.054 1595.94 824.523 1598.37C824.992 1600.76 825.227 1603.64 825.227 1607.01V1610.02H810.635V1617.45C810.635 1618.94 810.763 1620.16 811.019 1621.09C811.318 1622.03 811.766 1622.74 812.363 1623.21C813.003 1623.63 813.814 1623.85 814.795 1623.85C815.819 1623.85 816.587 1623.61 817.099 1623.14C817.654 1622.63 818.016 1621.93 818.187 1621.03C818.4 1620.09 818.507 1619 818.507 1617.77V1615.53H825.163V1616.93C825.163 1620.65 824.374 1623.57 822.795 1625.7C821.216 1627.84 818.528 1628.9 814.731 1628.9ZM810.635 1606.31H818.507V1602.98C818.507 1601.45 818.422 1600.17 818.251 1599.14C818.08 1598.08 817.718 1597.29 817.163 1596.77C816.651 1596.22 815.819 1595.94 814.667 1595.94C813.558 1595.94 812.704 1596.2 812.107 1596.71C811.552 1597.22 811.168 1598.1 810.955 1599.33C810.742 1600.53 810.635 1602.19 810.635 1604.33V1606.31ZM831.621 1628.39V1591.4H838.469V1596.65C839.834 1594.38 841.199 1592.87 842.565 1592.1C843.93 1591.33 845.295 1590.95 846.661 1590.95C846.831 1590.95 846.981 1590.95 847.109 1590.95C847.279 1590.95 847.493 1590.97 847.749 1591.01V1598.57C847.237 1598.35 846.639 1598.18 845.957 1598.05C845.317 1597.88 844.655 1597.8 843.973 1597.8C842.906 1597.8 841.925 1598.05 841.029 1598.57C840.175 1599.04 839.322 1599.97 838.469 1601.38V1628.39H831.621ZM856.997 1628.9C855.546 1628.9 854.266 1628.5 853.157 1627.69C852.047 1626.83 851.173 1625.77 850.533 1624.49C849.893 1623.16 849.573 1621.78 849.573 1620.33C849.573 1618.02 849.957 1616.08 850.725 1614.5C851.493 1612.92 852.538 1611.6 853.861 1610.53C855.226 1609.42 856.783 1608.46 858.533 1607.65C860.325 1606.84 862.202 1606.05 864.165 1605.29V1602.66C864.165 1601.17 864.079 1599.93 863.909 1598.95C863.738 1597.97 863.375 1597.24 862.821 1596.77C862.309 1596.26 861.519 1596.01 860.453 1596.01C859.514 1596.01 858.746 1596.22 858.149 1596.65C857.594 1597.07 857.189 1597.69 856.933 1598.5C856.677 1599.27 856.549 1600.19 856.549 1601.25V1603.11L849.765 1602.85C849.85 1598.76 850.789 1595.75 852.581 1593.83C854.373 1591.87 857.146 1590.89 860.901 1590.89C864.57 1590.89 867.173 1591.89 868.709 1593.89C870.245 1595.9 871.013 1598.8 871.013 1602.6V1619.49C871.013 1620.65 871.034 1621.76 871.077 1622.82C871.162 1623.89 871.247 1624.89 871.333 1625.83C871.461 1626.73 871.567 1627.58 871.653 1628.39H865.381C865.253 1627.71 865.082 1626.85 864.869 1625.83C864.698 1624.76 864.57 1623.8 864.485 1622.95C864.058 1624.4 863.226 1625.77 861.989 1627.05C860.794 1628.28 859.13 1628.9 856.997 1628.9ZM859.685 1623.01C860.367 1623.01 861.007 1622.82 861.605 1622.44C862.202 1622.05 862.735 1621.63 863.205 1621.16C863.674 1620.65 863.994 1620.24 864.165 1619.94V1609.45C863.098 1610.04 862.095 1610.64 861.157 1611.24C860.218 1611.84 859.386 1612.48 858.661 1613.16C857.978 1613.8 857.423 1614.54 856.997 1615.4C856.613 1616.21 856.421 1617.15 856.421 1618.21C856.421 1619.71 856.698 1620.88 857.253 1621.73C857.807 1622.59 858.618 1623.01 859.685 1623.01ZM887.41 1628.9C885.49 1628.9 883.932 1628.54 882.738 1627.81C881.586 1627.09 880.732 1626.06 880.178 1624.74C879.666 1623.42 879.41 1621.86 879.41 1620.07V1595.94H875.506V1591.4H879.41V1580.58H886.258V1591.4H892.21V1595.94H886.258V1619.62C886.258 1621.07 886.492 1622.12 886.962 1622.76C887.431 1623.36 888.327 1623.65 889.65 1623.65C889.991 1623.65 890.375 1623.63 890.802 1623.59C891.271 1623.55 891.719 1623.5 892.146 1623.46V1628.52C891.292 1628.65 890.503 1628.73 889.778 1628.77C889.052 1628.86 888.263 1628.9 887.41 1628.9ZM897.689 1628.39V1591.4H904.537V1628.39H897.689ZM897.689 1585.89V1578.73H904.537V1585.89H897.689ZM922.042 1628.9C919.311 1628.9 917.157 1628.35 915.578 1627.24C913.999 1626.13 912.869 1624.55 912.186 1622.5C911.546 1620.45 911.226 1618.04 911.226 1615.27V1604.52C911.226 1601.74 911.546 1599.33 912.186 1597.29C912.869 1595.24 913.999 1593.66 915.578 1592.55C917.157 1591.44 919.311 1590.89 922.042 1590.89C924.773 1590.89 926.906 1591.44 928.442 1592.55C930.021 1593.66 931.13 1595.24 931.77 1597.29C932.453 1599.33 932.794 1601.74 932.794 1604.52V1615.27C932.794 1618.04 932.453 1620.45 931.77 1622.5C931.13 1624.55 930.021 1626.13 928.442 1627.24C926.906 1628.35 924.773 1628.9 922.042 1628.9ZM922.042 1623.85C923.365 1623.85 924.282 1623.46 924.794 1622.69C925.349 1621.93 925.669 1620.92 925.754 1619.69C925.882 1618.41 925.946 1617.08 925.946 1615.72V1604.13C925.946 1602.73 925.882 1601.4 925.754 1600.17C925.669 1598.93 925.349 1597.93 924.794 1597.16C924.282 1596.35 923.365 1595.94 922.042 1595.94C920.719 1595.94 919.781 1596.35 919.226 1597.16C918.671 1597.93 918.33 1598.93 918.202 1600.17C918.117 1601.4 918.074 1602.73 918.074 1604.13V1615.72C918.074 1617.08 918.117 1618.41 918.202 1619.69C918.33 1620.92 918.671 1621.93 919.226 1622.69C919.781 1623.46 920.719 1623.85 922.042 1623.85ZM939.054 1628.39V1591.4H945.902V1595.05C947.139 1593.89 948.504 1592.91 949.998 1592.1C951.491 1591.29 953.134 1590.89 954.926 1590.89C956.419 1590.89 957.55 1591.27 958.318 1592.04C959.128 1592.81 959.683 1593.77 959.982 1594.92C960.323 1596.07 960.494 1597.24 960.494 1598.44V1628.39H953.646V1600.42C953.646 1599.1 953.454 1598.08 953.07 1597.35C952.686 1596.62 951.896 1596.26 950.702 1596.26C949.934 1596.26 949.123 1596.5 948.27 1596.97C947.459 1597.39 946.67 1597.93 945.902 1598.57V1628.39H939.054ZM975.755 1628.9C972.725 1628.9 970.293 1627.96 968.459 1626.09C966.624 1624.17 965.579 1621.65 965.323 1618.53L971.019 1616.81C971.36 1619.15 971.936 1620.92 972.747 1622.12C973.557 1623.27 974.752 1623.85 976.331 1623.85C977.568 1623.85 978.507 1623.5 979.147 1622.82C979.787 1622.1 980.107 1621.14 980.107 1619.94C980.107 1618.88 979.872 1617.92 979.403 1617.06C978.933 1616.21 978.165 1615.33 977.099 1614.44L970.763 1609C969.483 1607.89 968.395 1606.65 967.499 1605.29C966.645 1603.92 966.219 1602.15 966.219 1599.97C966.219 1598.01 966.603 1596.37 967.371 1595.05C968.181 1593.68 969.291 1592.66 970.699 1591.97C972.149 1591.25 973.835 1590.89 975.755 1590.89C978.827 1590.89 981.173 1591.85 982.795 1593.77C984.416 1595.64 985.355 1597.93 985.611 1600.61L980.747 1602.34C980.576 1601.06 980.32 1599.95 979.979 1599.01C979.637 1598.03 979.147 1597.29 978.507 1596.77C977.867 1596.22 977.035 1595.94 976.011 1595.94C974.901 1595.94 974.005 1596.33 973.323 1597.09C972.683 1597.82 972.363 1598.69 972.363 1599.72C972.363 1600.36 972.491 1601 972.747 1601.64C973.045 1602.24 973.536 1602.83 974.219 1603.43L980.747 1609.45C981.643 1610.26 982.475 1611.13 983.243 1612.07C984.053 1613.01 984.715 1614.08 985.227 1615.27C985.739 1616.46 985.995 1617.85 985.995 1619.43C985.995 1621.52 985.568 1623.27 984.715 1624.68C983.861 1626.09 982.667 1627.15 981.131 1627.88C979.595 1628.56 977.803 1628.9 975.755 1628.9Z" fill="white"/>
<path d="M117.537 1723.39L109.089 1671.55H115.105L120.673 1708.8L127.649 1671.74H132.769L139.809 1708.99L145.249 1671.55H151.137L142.817 1723.39H137.569L130.337 1684.99L123.041 1723.39H117.537ZM157.058 1723.39V1671.55H163.906V1690.24C165.143 1689.04 166.53 1688.02 168.066 1687.17C169.602 1686.31 171.309 1685.89 173.186 1685.89C174.637 1685.89 175.746 1686.27 176.514 1687.04C177.325 1687.81 177.879 1688.77 178.178 1689.92C178.519 1691.07 178.69 1692.24 178.69 1693.44V1723.39H171.842V1695.42C171.842 1694.1 171.65 1693.08 171.266 1692.35C170.882 1691.62 170.093 1691.26 168.898 1691.26C168.087 1691.26 167.234 1691.5 166.338 1691.97C165.485 1692.44 164.674 1693.01 163.906 1693.69V1723.39H157.058ZM195.606 1723.9C192.705 1723.9 190.465 1723.35 188.886 1722.24C187.307 1721.09 186.198 1719.42 185.558 1717.25C184.961 1715.03 184.662 1712.32 184.662 1709.12V1700.67C184.662 1697.38 184.982 1694.65 185.622 1692.48C186.262 1690.3 187.371 1688.66 188.95 1687.55C190.571 1686.44 192.79 1685.89 195.606 1685.89C198.721 1685.89 201.003 1686.53 202.454 1687.81C203.947 1689.09 204.929 1690.94 205.398 1693.37C205.867 1695.76 206.102 1698.64 206.102 1702.01V1705.02H191.51V1712.45C191.51 1713.94 191.638 1715.16 191.894 1716.09C192.193 1717.03 192.641 1717.74 193.238 1718.21C193.878 1718.63 194.689 1718.85 195.67 1718.85C196.694 1718.85 197.462 1718.61 197.974 1718.14C198.529 1717.63 198.891 1716.93 199.062 1716.03C199.275 1715.09 199.382 1714 199.382 1712.77V1710.53H206.038V1711.93C206.038 1715.65 205.249 1718.57 203.67 1720.7C202.091 1722.84 199.403 1723.9 195.606 1723.9ZM191.51 1701.31H199.382V1697.98C199.382 1696.45 199.297 1695.17 199.126 1694.14C198.955 1693.08 198.593 1692.29 198.038 1691.77C197.526 1691.22 196.694 1690.94 195.542 1690.94C194.433 1690.94 193.579 1691.2 192.982 1691.71C192.427 1692.22 192.043 1693.1 191.83 1694.33C191.617 1695.53 191.51 1697.19 191.51 1699.33V1701.31ZM212.496 1723.39V1686.4H219.344V1691.65C220.709 1689.38 222.074 1687.87 223.44 1687.1C224.805 1686.33 226.17 1685.95 227.536 1685.95C227.706 1685.95 227.856 1685.95 227.984 1685.95C228.154 1685.95 228.368 1685.97 228.624 1686.01V1693.57C228.112 1693.35 227.514 1693.18 226.832 1693.05C226.192 1692.88 225.53 1692.8 224.848 1692.8C223.781 1692.8 222.8 1693.05 221.904 1693.57C221.05 1694.04 220.197 1694.97 219.344 1696.38V1723.39H212.496ZM242.919 1723.9C240.017 1723.9 237.777 1723.35 236.199 1722.24C234.62 1721.09 233.511 1719.42 232.871 1717.25C232.273 1715.03 231.975 1712.32 231.975 1709.12V1700.67C231.975 1697.38 232.295 1694.65 232.935 1692.48C233.575 1690.3 234.684 1688.66 236.263 1687.55C237.884 1686.44 240.103 1685.89 242.919 1685.89C246.033 1685.89 248.316 1686.53 249.767 1687.81C251.26 1689.09 252.241 1690.94 252.711 1693.37C253.18 1695.76 253.415 1698.64 253.415 1702.01V1705.02H238.823V1712.45C238.823 1713.94 238.951 1715.16 239.207 1716.09C239.505 1717.03 239.953 1717.74 240.551 1718.21C241.191 1718.63 242.001 1718.85 242.983 1718.85C244.007 1718.85 244.775 1718.61 245.287 1718.14C245.841 1717.63 246.204 1716.93 246.375 1716.03C246.588 1715.09 246.695 1714 246.695 1712.77V1710.53H253.351V1711.93C253.351 1715.65 252.561 1718.57 250.983 1720.7C249.404 1722.84 246.716 1723.9 242.919 1723.9ZM238.823 1701.31H246.695V1697.98C246.695 1696.45 246.609 1695.17 246.439 1694.14C246.268 1693.08 245.905 1692.29 245.351 1691.77C244.839 1691.22 244.007 1690.94 242.855 1690.94C241.745 1690.94 240.892 1691.2 240.295 1691.71C239.74 1692.22 239.356 1693.1 239.143 1694.33C238.929 1695.53 238.823 1697.19 238.823 1699.33V1701.31ZM273.665 1732.67V1727.42C275.329 1727.42 276.652 1727.34 277.633 1727.17C278.614 1727.04 279.318 1726.76 279.745 1726.33C280.172 1725.95 280.385 1725.4 280.385 1724.67C280.385 1724.29 280.236 1723.43 279.937 1722.11C279.638 1720.79 279.318 1719.38 278.977 1717.89L271.553 1686.4H278.465L283.457 1714.05L288.257 1686.4H295.169L286.337 1725.44C285.953 1727.23 285.249 1728.64 284.225 1729.66C283.201 1730.73 281.878 1731.5 280.257 1731.97C278.678 1732.44 276.758 1732.67 274.497 1732.67H273.665ZM309.48 1723.9C306.749 1723.9 304.594 1723.35 303.016 1722.24C301.437 1721.13 300.306 1719.55 299.624 1717.5C298.984 1715.45 298.664 1713.04 298.664 1710.27V1699.52C298.664 1696.74 298.984 1694.33 299.624 1692.29C300.306 1690.24 301.437 1688.66 303.016 1687.55C304.594 1686.44 306.749 1685.89 309.48 1685.89C312.21 1685.89 314.344 1686.44 315.88 1687.55C317.458 1688.66 318.568 1690.24 319.208 1692.29C319.89 1694.33 320.232 1696.74 320.232 1699.52V1710.27C320.232 1713.04 319.89 1715.45 319.208 1717.5C318.568 1719.55 317.458 1721.13 315.88 1722.24C314.344 1723.35 312.21 1723.9 309.48 1723.9ZM309.48 1718.85C310.802 1718.85 311.72 1718.46 312.232 1717.69C312.786 1716.93 313.106 1715.92 313.192 1714.69C313.32 1713.41 313.384 1712.08 313.384 1710.72V1699.13C313.384 1697.73 313.32 1696.4 313.192 1695.17C313.106 1693.93 312.786 1692.93 312.232 1692.16C311.72 1691.35 310.802 1690.94 309.48 1690.94C308.157 1690.94 307.218 1691.35 306.664 1692.16C306.109 1692.93 305.768 1693.93 305.64 1695.17C305.554 1696.4 305.512 1697.73 305.512 1699.13V1710.72C305.512 1712.08 305.554 1713.41 305.64 1714.69C305.768 1715.92 306.109 1716.93 306.664 1717.69C307.218 1718.46 308.157 1718.85 309.48 1718.85ZM331.803 1723.9C330.352 1723.9 329.222 1723.52 328.411 1722.75C327.6 1721.98 327.024 1721.02 326.683 1719.87C326.384 1718.72 326.235 1717.54 326.235 1716.35V1686.4H333.083V1714.3C333.083 1715.62 333.275 1716.67 333.659 1717.44C334.043 1718.16 334.832 1718.53 336.027 1718.53C336.795 1718.53 337.584 1718.31 338.395 1717.89C339.248 1717.42 340.059 1716.86 340.827 1716.22V1686.4H347.675V1723.39H340.827V1719.74C339.632 1720.89 338.267 1721.88 336.731 1722.69C335.238 1723.5 333.595 1723.9 331.803 1723.9ZM354.871 1723.39V1686.4H361.719V1691.65C363.084 1689.38 364.449 1687.87 365.815 1687.1C367.18 1686.33 368.545 1685.95 369.911 1685.95C370.081 1685.95 370.231 1685.95 370.359 1685.95C370.529 1685.95 370.743 1685.97 370.999 1686.01V1693.57C370.487 1693.35 369.889 1693.18 369.207 1693.05C368.567 1692.88 367.905 1692.8 367.223 1692.8C366.156 1692.8 365.175 1693.05 364.279 1693.57C363.425 1694.04 362.572 1694.97 361.719 1696.38V1723.39H354.871ZM403.114 1723.9C401.791 1723.9 400.597 1723.58 399.53 1722.94C398.506 1722.26 397.61 1721.51 396.842 1720.7V1723.39H389.994V1671.55H396.842V1689.34C397.653 1688.4 398.613 1687.59 399.722 1686.91C400.874 1686.23 402.239 1685.89 403.818 1685.89C405.738 1685.89 407.253 1686.4 408.362 1687.42C409.514 1688.4 410.367 1689.66 410.922 1691.2C411.477 1692.69 411.839 1694.23 412.01 1695.81C412.181 1697.34 412.266 1698.66 412.266 1699.77V1708.73C412.266 1711.34 412.01 1713.81 411.498 1716.16C410.986 1718.46 410.069 1720.34 408.746 1721.79C407.423 1723.2 405.546 1723.9 403.114 1723.9ZM401.706 1718.53C402.901 1718.53 403.754 1718.1 404.266 1717.25C404.778 1716.35 405.098 1715.16 405.226 1713.66C405.354 1712.17 405.418 1710.53 405.418 1708.73V1699.77C405.418 1698.24 405.333 1696.83 405.162 1695.55C404.991 1694.23 404.629 1693.18 404.074 1692.41C403.519 1691.65 402.645 1691.26 401.45 1691.26C400.554 1691.26 399.701 1691.45 398.89 1691.84C398.122 1692.22 397.439 1692.65 396.842 1693.12V1716.86C397.439 1717.33 398.143 1717.74 398.954 1718.08C399.807 1718.38 400.725 1718.53 401.706 1718.53ZM428.731 1723.9C425.83 1723.9 423.59 1723.35 422.011 1722.24C420.432 1721.09 419.323 1719.42 418.683 1717.25C418.086 1715.03 417.787 1712.32 417.787 1709.12V1700.67C417.787 1697.38 418.107 1694.65 418.747 1692.48C419.387 1690.3 420.496 1688.66 422.075 1687.55C423.696 1686.44 425.915 1685.89 428.731 1685.89C431.846 1685.89 434.128 1686.53 435.579 1687.81C437.072 1689.09 438.054 1690.94 438.523 1693.37C438.992 1695.76 439.227 1698.64 439.227 1702.01V1705.02H424.635V1712.45C424.635 1713.94 424.763 1715.16 425.019 1716.09C425.318 1717.03 425.766 1717.74 426.363 1718.21C427.003 1718.63 427.814 1718.85 428.795 1718.85C429.819 1718.85 430.587 1718.61 431.099 1718.14C431.654 1717.63 432.016 1716.93 432.187 1716.03C432.4 1715.09 432.507 1714 432.507 1712.77V1710.53H439.163V1711.93C439.163 1715.65 438.374 1718.57 436.795 1720.7C435.216 1722.84 432.528 1723.9 428.731 1723.9ZM424.635 1701.31H432.507V1697.98C432.507 1696.45 432.422 1695.17 432.251 1694.14C432.08 1693.08 431.718 1692.29 431.163 1691.77C430.651 1691.22 429.819 1690.94 428.667 1690.94C427.558 1690.94 426.704 1691.2 426.107 1691.71C425.552 1692.22 425.168 1693.1 424.955 1694.33C424.742 1695.53 424.635 1697.19 424.635 1699.33V1701.31ZM454.005 1723.9C450.975 1723.9 448.543 1722.96 446.709 1721.09C444.874 1719.17 443.829 1716.65 443.573 1713.53L449.269 1711.81C449.61 1714.15 450.186 1715.92 450.997 1717.12C451.807 1718.27 453.002 1718.85 454.581 1718.85C455.818 1718.85 456.757 1718.5 457.397 1717.82C458.037 1717.1 458.357 1716.14 458.357 1714.94C458.357 1713.88 458.122 1712.92 457.653 1712.06C457.183 1711.21 456.415 1710.33 455.349 1709.44L449.013 1704C447.733 1702.89 446.645 1701.65 445.749 1700.29C444.895 1698.92 444.469 1697.15 444.469 1694.97C444.469 1693.01 444.853 1691.37 445.621 1690.05C446.431 1688.68 447.541 1687.66 448.949 1686.97C450.399 1686.25 452.085 1685.89 454.005 1685.89C457.077 1685.89 459.423 1686.85 461.045 1688.77C462.666 1690.64 463.605 1692.93 463.861 1695.61L458.997 1697.34C458.826 1696.06 458.57 1694.95 458.229 1694.01C457.887 1693.03 457.397 1692.29 456.757 1691.77C456.117 1691.22 455.285 1690.94 454.261 1690.94C453.151 1690.94 452.255 1691.33 451.573 1692.09C450.933 1692.82 450.613 1693.69 450.613 1694.72C450.613 1695.36 450.741 1696 450.997 1696.64C451.295 1697.24 451.786 1697.83 452.469 1698.43L458.997 1704.45C459.893 1705.26 460.725 1706.13 461.493 1707.07C462.303 1708.01 462.965 1709.08 463.477 1710.27C463.989 1711.46 464.245 1712.85 464.245 1714.43C464.245 1716.52 463.818 1718.27 462.965 1719.68C462.111 1721.09 460.917 1722.15 459.381 1722.88C457.845 1723.56 456.053 1723.9 454.005 1723.9ZM479.222 1723.9C477.302 1723.9 475.745 1723.54 474.55 1722.81C473.398 1722.09 472.545 1721.06 471.99 1719.74C471.478 1718.42 471.222 1716.86 471.222 1715.07V1690.94H467.318V1686.4H471.222V1675.58H478.07V1686.4H484.022V1690.94H478.07V1714.62C478.07 1716.07 478.305 1717.12 478.774 1717.76C479.243 1718.36 480.139 1718.65 481.462 1718.65C481.803 1718.65 482.187 1718.63 482.614 1718.59C483.083 1718.55 483.531 1718.5 483.958 1718.46V1723.52C483.105 1723.65 482.315 1723.73 481.59 1723.77C480.865 1723.86 480.075 1723.9 479.222 1723.9ZM503.679 1723.39V1686.4H510.015V1689.92C511.252 1688.51 512.617 1687.46 514.111 1686.78C515.604 1686.1 517.14 1685.76 518.719 1685.76C520.084 1685.76 521.3 1686.1 522.367 1686.78C523.476 1687.46 524.265 1688.68 524.735 1690.43C526.057 1688.81 527.487 1687.64 529.023 1686.91C530.601 1686.14 532.244 1685.76 533.951 1685.76C535.145 1685.76 536.233 1686.06 537.215 1686.65C538.196 1687.21 538.985 1688.13 539.583 1689.41C540.18 1690.64 540.479 1692.29 540.479 1694.33V1723.39H534.207V1694.78C534.207 1692.99 533.908 1691.8 533.311 1691.2C532.756 1690.56 531.988 1690.24 531.007 1690.24C530.068 1690.24 529.087 1690.52 528.063 1691.07C527.039 1691.58 526.1 1692.31 525.247 1693.25C525.247 1693.42 525.247 1693.59 525.247 1693.76C525.247 1693.93 525.247 1694.12 525.247 1694.33V1723.39H518.975V1694.78C518.975 1692.99 518.676 1691.8 518.079 1691.2C517.524 1690.56 516.756 1690.24 515.775 1690.24C514.836 1690.24 513.855 1690.52 512.831 1691.07C511.849 1691.58 510.911 1692.31 510.015 1693.25V1723.39H503.679ZM557.355 1723.9C554.624 1723.9 552.469 1723.35 550.891 1722.24C549.312 1721.13 548.181 1719.55 547.499 1717.5C546.859 1715.45 546.539 1713.04 546.539 1710.27V1699.52C546.539 1696.74 546.859 1694.33 547.499 1692.29C548.181 1690.24 549.312 1688.66 550.891 1687.55C552.469 1686.44 554.624 1685.89 557.355 1685.89C560.085 1685.89 562.219 1686.44 563.755 1687.55C565.333 1688.66 566.443 1690.24 567.083 1692.29C567.765 1694.33 568.107 1696.74 568.107 1699.52V1710.27C568.107 1713.04 567.765 1715.45 567.083 1717.5C566.443 1719.55 565.333 1721.13 563.755 1722.24C562.219 1723.35 560.085 1723.9 557.355 1723.9ZM557.355 1718.85C558.677 1718.85 559.595 1718.46 560.107 1717.69C560.661 1716.93 560.981 1715.92 561.067 1714.69C561.195 1713.41 561.259 1712.08 561.259 1710.72V1699.13C561.259 1697.73 561.195 1696.4 561.067 1695.17C560.981 1693.93 560.661 1692.93 560.107 1692.16C559.595 1691.35 558.677 1690.94 557.355 1690.94C556.032 1690.94 555.093 1691.35 554.539 1692.16C553.984 1692.93 553.643 1693.93 553.515 1695.17C553.429 1696.4 553.387 1697.73 553.387 1699.13V1710.72C553.387 1712.08 553.429 1713.41 553.515 1714.69C553.643 1715.92 553.984 1716.93 554.539 1717.69C555.093 1718.46 556.032 1718.85 557.355 1718.85ZM574.366 1723.39V1686.4H580.702V1689.92C581.939 1688.51 583.305 1687.46 584.798 1686.78C586.291 1686.1 587.827 1685.76 589.406 1685.76C590.771 1685.76 591.987 1686.1 593.054 1686.78C594.163 1687.46 594.953 1688.68 595.422 1690.43C596.745 1688.81 598.174 1687.64 599.71 1686.91C601.289 1686.14 602.931 1685.76 604.638 1685.76C605.833 1685.76 606.921 1686.06 607.902 1686.65C608.883 1687.21 609.673 1688.13 610.27 1689.41C610.867 1690.64 611.166 1692.29 611.166 1694.33V1723.39H604.894V1694.78C604.894 1692.99 604.595 1691.8 603.998 1691.2C603.443 1690.56 602.675 1690.24 601.694 1690.24C600.755 1690.24 599.774 1690.52 598.75 1691.07C597.726 1691.58 596.787 1692.31 595.934 1693.25C595.934 1693.42 595.934 1693.59 595.934 1693.76C595.934 1693.93 595.934 1694.12 595.934 1694.33V1723.39H589.662V1694.78C589.662 1692.99 589.363 1691.8 588.766 1691.2C588.211 1690.56 587.443 1690.24 586.462 1690.24C585.523 1690.24 584.542 1690.52 583.518 1691.07C582.537 1691.58 581.598 1692.31 580.702 1693.25V1723.39H574.366ZM628.106 1723.9C625.205 1723.9 622.965 1723.35 621.386 1722.24C619.807 1721.09 618.698 1719.42 618.058 1717.25C617.461 1715.03 617.162 1712.32 617.162 1709.12V1700.67C617.162 1697.38 617.482 1694.65 618.122 1692.48C618.762 1690.3 619.871 1688.66 621.45 1687.55C623.071 1686.44 625.29 1685.89 628.106 1685.89C631.221 1685.89 633.503 1686.53 634.954 1687.81C636.447 1689.09 637.429 1690.94 637.898 1693.37C638.367 1695.76 638.602 1698.64 638.602 1702.01V1705.02H624.01V1712.45C624.01 1713.94 624.138 1715.16 624.394 1716.09C624.693 1717.03 625.141 1717.74 625.738 1718.21C626.378 1718.63 627.189 1718.85 628.17 1718.85C629.194 1718.85 629.962 1718.61 630.474 1718.14C631.029 1717.63 631.391 1716.93 631.562 1716.03C631.775 1715.09 631.882 1714 631.882 1712.77V1710.53H638.538V1711.93C638.538 1715.65 637.749 1718.57 636.17 1720.7C634.591 1722.84 631.903 1723.9 628.106 1723.9ZM624.01 1701.31H631.882V1697.98C631.882 1696.45 631.797 1695.17 631.626 1694.14C631.455 1693.08 631.093 1692.29 630.538 1691.77C630.026 1691.22 629.194 1690.94 628.042 1690.94C626.933 1690.94 626.079 1691.2 625.482 1691.71C624.927 1692.22 624.543 1693.1 624.33 1694.33C624.117 1695.53 624.01 1697.19 624.01 1699.33V1701.31ZM644.804 1723.39V1686.4H651.652V1690.05C652.889 1688.89 654.254 1687.91 655.748 1687.1C657.241 1686.29 658.884 1685.89 660.676 1685.89C662.169 1685.89 663.3 1686.27 664.068 1687.04C664.878 1687.81 665.433 1688.77 665.732 1689.92C666.073 1691.07 666.244 1692.24 666.244 1693.44V1723.39H659.396V1695.42C659.396 1694.1 659.204 1693.08 658.82 1692.35C658.436 1691.62 657.646 1691.26 656.452 1691.26C655.684 1691.26 654.873 1691.5 654.02 1691.97C653.209 1692.39 652.42 1692.93 651.652 1693.57V1723.39H644.804ZM682.785 1723.9C680.865 1723.9 679.307 1723.54 678.113 1722.81C676.961 1722.09 676.107 1721.06 675.553 1719.74C675.041 1718.42 674.785 1716.86 674.785 1715.07V1690.94H670.881V1686.4H674.785V1675.58H681.633V1686.4H687.585V1690.94H681.633V1714.62C681.633 1716.07 681.867 1717.12 682.337 1717.76C682.806 1718.36 683.702 1718.65 685.025 1718.65C685.366 1718.65 685.75 1718.63 686.177 1718.59C686.646 1718.55 687.094 1718.5 687.521 1718.46V1723.52C686.667 1723.65 685.878 1723.73 685.153 1723.77C684.427 1723.86 683.638 1723.9 682.785 1723.9ZM701.192 1723.9C698.163 1723.9 695.731 1722.96 693.896 1721.09C692.061 1719.17 691.016 1716.65 690.76 1713.53L696.456 1711.81C696.797 1714.15 697.373 1715.92 698.184 1717.12C698.995 1718.27 700.189 1718.85 701.768 1718.85C703.005 1718.85 703.944 1718.5 704.584 1717.82C705.224 1717.1 705.544 1716.14 705.544 1714.94C705.544 1713.88 705.309 1712.92 704.84 1712.06C704.371 1711.21 703.603 1710.33 702.536 1709.44L696.2 1704C694.92 1702.89 693.832 1701.65 692.936 1700.29C692.083 1698.92 691.656 1697.15 691.656 1694.97C691.656 1693.01 692.04 1691.37 692.808 1690.05C693.619 1688.68 694.728 1687.66 696.136 1686.97C697.587 1686.25 699.272 1685.89 701.192 1685.89C704.264 1685.89 706.611 1686.85 708.232 1688.77C709.853 1690.64 710.792 1692.93 711.048 1695.61L706.184 1697.34C706.013 1696.06 705.757 1694.95 705.416 1694.01C705.075 1693.03 704.584 1692.29 703.944 1691.77C703.304 1691.22 702.472 1690.94 701.448 1690.94C700.339 1690.94 699.443 1691.33 698.76 1692.09C698.12 1692.82 697.8 1693.69 697.8 1694.72C697.8 1695.36 697.928 1696 698.184 1696.64C698.483 1697.24 698.973 1697.83 699.656 1698.43L706.184 1704.45C707.08 1705.26 707.912 1706.13 708.68 1707.07C709.491 1708.01 710.152 1709.08 710.664 1710.27C711.176 1711.46 711.432 1712.85 711.432 1714.43C711.432 1716.52 711.005 1718.27 710.152 1719.68C709.299 1721.09 708.104 1722.15 706.568 1722.88C705.032 1723.56 703.24 1723.9 701.192 1723.9ZM733.355 1723.39V1691.45H728.939V1686.4H733.355V1684.48C733.355 1682 733.611 1679.96 734.123 1678.33C734.677 1676.71 735.595 1675.5 736.875 1674.69C738.155 1673.88 739.904 1673.47 742.123 1673.47C742.677 1673.47 743.253 1673.49 743.851 1673.53C744.491 1673.58 745.152 1673.64 745.835 1673.73V1678.85C745.408 1678.76 744.981 1678.7 744.555 1678.65C744.171 1678.61 743.808 1678.59 743.467 1678.59C742.144 1678.59 741.269 1678.95 740.843 1679.68C740.416 1680.4 740.203 1681.62 740.203 1683.33V1686.4H755.307V1723.39H748.459V1691.45H740.203V1723.39H733.355ZM749.099 1680.89V1673.73H755.371V1680.89H749.099ZM762.616 1723.39V1686.4H769.464V1690.05C770.701 1688.89 772.067 1687.91 773.56 1687.1C775.053 1686.29 776.696 1685.89 778.488 1685.89C779.981 1685.89 781.112 1686.27 781.88 1687.04C782.691 1687.81 783.245 1688.77 783.544 1689.92C783.885 1691.07 784.056 1692.24 784.056 1693.44V1723.39H777.208V1695.42C777.208 1694.1 777.016 1693.08 776.632 1692.35C776.248 1691.62 775.459 1691.26 774.264 1691.26C773.496 1691.26 772.685 1691.5 771.832 1691.97C771.021 1692.39 770.232 1692.93 769.464 1693.57V1723.39H762.616ZM799.317 1723.9C796.202 1723.9 793.877 1722.77 792.341 1720.51C790.805 1718.21 790.037 1714.32 790.037 1708.86V1701.69C790.037 1698.88 790.272 1696.28 790.741 1693.89C791.21 1691.45 792.085 1689.51 793.365 1688.06C794.688 1686.61 796.608 1685.89 799.125 1685.89C800.362 1685.89 801.493 1686.16 802.517 1686.72C803.541 1687.27 804.458 1687.96 805.269 1688.77V1671.55H812.117V1723.39H805.269V1721.02C804.458 1721.88 803.562 1722.58 802.581 1723.13C801.642 1723.65 800.554 1723.9 799.317 1723.9ZM801.045 1718.53C801.685 1718.53 802.368 1718.42 803.093 1718.21C803.818 1717.95 804.544 1717.59 805.269 1717.12V1692.86C804.672 1692.44 804.01 1692.07 803.285 1691.77C802.56 1691.43 801.77 1691.26 800.917 1691.26C799.338 1691.26 798.272 1692.03 797.717 1693.57C797.162 1695.06 796.885 1696.87 796.885 1699.01V1709.44C796.885 1711.14 796.97 1712.7 797.141 1714.11C797.354 1715.48 797.76 1716.56 798.357 1717.37C798.954 1718.14 799.85 1718.53 801.045 1718.53ZM843.535 1723.9C841.615 1723.9 840.057 1723.54 838.863 1722.81C837.711 1722.09 836.857 1721.06 836.303 1719.74C835.791 1718.42 835.535 1716.86 835.535 1715.07V1690.94H831.631V1686.4H835.535V1675.58H842.383V1686.4H848.335V1690.94H842.383V1714.62C842.383 1716.07 842.617 1717.12 843.087 1717.76C843.556 1718.36 844.452 1718.65 845.775 1718.65C846.116 1718.65 846.5 1718.63 846.927 1718.59C847.396 1718.55 847.844 1718.5 848.271 1718.46V1723.52C847.417 1723.65 846.628 1723.73 845.903 1723.77C845.177 1723.86 844.388 1723.9 843.535 1723.9ZM853.558 1723.39V1671.55H860.406V1690.24C861.643 1689.04 863.03 1688.02 864.566 1687.17C866.102 1686.31 867.809 1685.89 869.686 1685.89C871.137 1685.89 872.246 1686.27 873.014 1687.04C873.825 1687.81 874.379 1688.77 874.678 1689.92C875.019 1691.07 875.19 1692.24 875.19 1693.44V1723.39H868.342V1695.42C868.342 1694.1 868.15 1693.08 867.766 1692.35C867.382 1691.62 866.593 1691.26 865.398 1691.26C864.587 1691.26 863.734 1691.5 862.838 1691.97C861.985 1692.44 861.174 1693.01 860.406 1693.69V1723.39H853.558ZM892.106 1723.9C889.205 1723.9 886.965 1723.35 885.386 1722.24C883.807 1721.09 882.698 1719.42 882.058 1717.25C881.461 1715.03 881.162 1712.32 881.162 1709.12V1700.67C881.162 1697.38 881.482 1694.65 882.122 1692.48C882.762 1690.3 883.871 1688.66 885.45 1687.55C887.071 1686.44 889.29 1685.89 892.106 1685.89C895.221 1685.89 897.503 1686.53 898.954 1687.81C900.447 1689.09 901.429 1690.94 901.898 1693.37C902.367 1695.76 902.602 1698.64 902.602 1702.01V1705.02H888.01V1712.45C888.01 1713.94 888.138 1715.16 888.394 1716.09C888.693 1717.03 889.141 1717.74 889.738 1718.21C890.378 1718.63 891.189 1718.85 892.17 1718.85C893.194 1718.85 893.962 1718.61 894.474 1718.14C895.029 1717.63 895.391 1716.93 895.562 1716.03C895.775 1715.09 895.882 1714 895.882 1712.77V1710.53H902.538V1711.93C902.538 1715.65 901.749 1718.57 900.17 1720.7C898.591 1722.84 895.903 1723.9 892.106 1723.9ZM888.01 1701.31H895.882V1697.98C895.882 1696.45 895.797 1695.17 895.626 1694.14C895.455 1693.08 895.093 1692.29 894.538 1691.77C894.026 1691.22 893.194 1690.94 892.042 1690.94C890.933 1690.94 890.079 1691.2 889.482 1691.71C888.927 1692.22 888.543 1693.1 888.33 1694.33C888.117 1695.53 888.01 1697.19 888.01 1699.33V1701.31ZM909.252 1723.39V1686.4H916.1V1723.39H909.252ZM909.252 1680.89V1673.73H916.1V1680.89H909.252ZM923.621 1723.39V1686.4H930.469V1691.65C931.834 1689.38 933.199 1687.87 934.565 1687.1C935.93 1686.33 937.295 1685.95 938.661 1685.95C938.831 1685.95 938.981 1685.95 939.109 1685.95C939.279 1685.95 939.493 1685.97 939.749 1686.01V1693.57C939.237 1693.35 938.639 1693.18 937.957 1693.05C937.317 1692.88 936.655 1692.8 935.973 1692.8C934.906 1692.8 933.925 1693.05 933.029 1693.57C932.175 1694.04 931.322 1694.97 930.469 1696.38V1723.39H923.621ZM964.184 1723.9C962.733 1723.9 961.453 1723.5 960.344 1722.69C959.235 1721.83 958.36 1720.77 957.72 1719.49C957.08 1718.16 956.76 1716.78 956.76 1715.33C956.76 1713.02 957.144 1711.08 957.912 1709.5C958.68 1707.92 959.725 1706.6 961.048 1705.53C962.413 1704.42 963.971 1703.46 965.72 1702.65C967.512 1701.84 969.389 1701.05 971.352 1700.29V1697.66C971.352 1696.17 971.267 1694.93 971.096 1693.95C970.925 1692.97 970.563 1692.24 970.008 1691.77C969.496 1691.26 968.707 1691.01 967.64 1691.01C966.701 1691.01 965.933 1691.22 965.336 1691.65C964.781 1692.07 964.376 1692.69 964.12 1693.5C963.864 1694.27 963.736 1695.19 963.736 1696.25V1698.11L956.952 1697.85C957.037 1693.76 957.976 1690.75 959.768 1688.83C961.56 1686.87 964.333 1685.89 968.088 1685.89C971.757 1685.89 974.36 1686.89 975.896 1688.89C977.432 1690.9 978.2 1693.8 978.2 1697.6V1714.49C978.2 1715.65 978.221 1716.76 978.264 1717.82C978.349 1718.89 978.435 1719.89 978.52 1720.83C978.648 1721.73 978.755 1722.58 978.84 1723.39H972.568C972.44 1722.71 972.269 1721.85 972.056 1720.83C971.885 1719.76 971.757 1718.8 971.672 1717.95C971.245 1719.4 970.413 1720.77 969.176 1722.05C967.981 1723.28 966.317 1723.9 964.184 1723.9ZM966.872 1718.01C967.555 1718.01 968.195 1717.82 968.792 1717.44C969.389 1717.05 969.923 1716.63 970.392 1716.16C970.861 1715.65 971.181 1715.24 971.352 1714.94V1704.45C970.285 1705.04 969.283 1705.64 968.344 1706.24C967.405 1706.84 966.573 1707.48 965.848 1708.16C965.165 1708.8 964.611 1709.54 964.184 1710.4C963.8 1711.21 963.608 1712.15 963.608 1713.21C963.608 1714.71 963.885 1715.88 964.44 1716.73C964.995 1717.59 965.805 1718.01 966.872 1718.01ZM990.116 1723.9C988.665 1723.9 987.534 1723.52 986.724 1722.75C985.913 1721.98 985.337 1721.02 984.996 1719.87C984.697 1718.72 984.548 1717.54 984.548 1716.35V1686.4H991.396V1714.3C991.396 1715.62 991.588 1716.67 991.972 1717.44C992.356 1718.16 993.145 1718.53 994.34 1718.53C995.108 1718.53 995.897 1718.31 996.708 1717.89C997.561 1717.42 998.372 1716.86 999.14 1716.22V1686.4H1005.99V1723.39H999.14V1719.74C997.945 1720.89 996.58 1721.88 995.044 1722.69C993.55 1723.5 991.908 1723.9 990.116 1723.9ZM1021.57 1723.9C1018.45 1723.9 1016.13 1722.77 1014.59 1720.51C1013.06 1718.21 1012.29 1714.32 1012.29 1708.86V1701.69C1012.29 1698.88 1012.52 1696.28 1012.99 1693.89C1013.46 1691.45 1014.34 1689.51 1015.62 1688.06C1016.94 1686.61 1018.86 1685.89 1021.38 1685.89C1022.61 1685.89 1023.74 1686.16 1024.77 1686.72C1025.79 1687.27 1026.71 1687.96 1027.52 1688.77V1671.55H1034.37V1723.39H1027.52V1721.02C1026.71 1721.88 1025.81 1722.58 1024.83 1723.13C1023.89 1723.65 1022.8 1723.9 1021.57 1723.9ZM1023.3 1718.53C1023.94 1718.53 1024.62 1718.42 1025.34 1718.21C1026.07 1717.95 1026.79 1717.59 1027.52 1717.12V1692.86C1026.92 1692.44 1026.26 1692.07 1025.54 1691.77C1024.81 1691.43 1024.02 1691.26 1023.17 1691.26C1021.59 1691.26 1020.52 1692.03 1019.97 1693.57C1019.41 1695.06 1019.14 1696.87 1019.14 1699.01V1709.44C1019.14 1711.14 1019.22 1712.7 1019.39 1714.11C1019.6 1715.48 1020.01 1716.56 1020.61 1717.37C1021.2 1718.14 1022.1 1718.53 1023.3 1718.53ZM1041.75 1723.39V1686.4H1048.6V1723.39H1041.75ZM1041.75 1680.89V1673.73H1048.6V1680.89H1041.75ZM1066.17 1723.9C1063.27 1723.9 1061.03 1723.35 1059.45 1722.24C1057.87 1721.09 1056.76 1719.42 1056.12 1717.25C1055.52 1715.03 1055.22 1712.32 1055.22 1709.12V1700.67C1055.22 1697.38 1055.54 1694.65 1056.18 1692.48C1056.82 1690.3 1057.93 1688.66 1059.51 1687.55C1061.13 1686.44 1063.35 1685.89 1066.17 1685.89C1069.28 1685.89 1071.57 1686.53 1073.02 1687.81C1074.51 1689.09 1075.49 1690.94 1075.96 1693.37C1076.43 1695.76 1076.66 1698.64 1076.66 1702.01V1705.02H1062.07V1712.45C1062.07 1713.94 1062.2 1715.16 1062.46 1716.09C1062.76 1717.03 1063.2 1717.74 1063.8 1718.21C1064.44 1718.63 1065.25 1718.85 1066.23 1718.85C1067.26 1718.85 1068.02 1718.61 1068.54 1718.14C1069.09 1717.63 1069.45 1716.93 1069.62 1716.03C1069.84 1715.09 1069.94 1714 1069.94 1712.77V1710.53H1076.6V1711.93C1076.6 1715.65 1075.81 1718.57 1074.23 1720.7C1072.65 1722.84 1069.97 1723.9 1066.17 1723.9ZM1062.07 1701.31H1069.94V1697.98C1069.94 1696.45 1069.86 1695.17 1069.69 1694.14C1069.52 1693.08 1069.16 1692.29 1068.6 1691.77C1068.09 1691.22 1067.26 1690.94 1066.1 1690.94C1065 1690.94 1064.14 1691.2 1063.54 1691.71C1062.99 1692.22 1062.61 1693.1 1062.39 1694.33C1062.18 1695.53 1062.07 1697.19 1062.07 1699.33V1701.31ZM1082.87 1723.39V1686.4H1089.71V1690.05C1090.95 1688.89 1092.32 1687.91 1093.81 1687.1C1095.3 1686.29 1096.95 1685.89 1098.74 1685.89C1100.23 1685.89 1101.36 1686.27 1102.13 1687.04C1102.94 1687.81 1103.5 1688.77 1103.79 1689.92C1104.14 1691.07 1104.31 1692.24 1104.31 1693.44V1723.39H1097.46V1695.42C1097.46 1694.1 1097.27 1693.08 1096.88 1692.35C1096.5 1691.62 1095.71 1691.26 1094.51 1691.26C1093.75 1691.26 1092.94 1691.5 1092.08 1691.97C1091.27 1692.39 1090.48 1692.93 1089.71 1693.57V1723.39H1082.87ZM1121.1 1723.9C1118.07 1723.9 1115.77 1723.3 1114.19 1722.11C1112.66 1720.87 1111.61 1719.14 1111.06 1716.93C1110.54 1714.71 1110.29 1712.13 1110.29 1709.18V1700.67C1110.29 1697.56 1110.56 1694.91 1111.12 1692.73C1111.67 1690.52 1112.72 1688.83 1114.26 1687.68C1115.83 1686.48 1118.12 1685.89 1121.1 1685.89C1123.79 1685.89 1125.86 1686.33 1127.31 1687.23C1128.8 1688.08 1129.83 1689.38 1130.38 1691.13C1130.94 1692.84 1131.22 1694.97 1131.22 1697.53V1699.71H1125.01V1697.47C1125.01 1695.85 1124.9 1694.57 1124.69 1693.63C1124.47 1692.69 1124.09 1692.01 1123.54 1691.58C1122.98 1691.16 1122.19 1690.94 1121.17 1690.94C1120.06 1690.94 1119.2 1691.2 1118.61 1691.71C1118.01 1692.22 1117.6 1693.1 1117.39 1694.33C1117.22 1695.53 1117.14 1697.17 1117.14 1699.26V1710.91C1117.14 1714.07 1117.43 1716.18 1118.03 1717.25C1118.63 1718.31 1119.7 1718.85 1121.23 1718.85C1122.38 1718.85 1123.22 1718.59 1123.73 1718.08C1124.28 1717.52 1124.62 1716.76 1124.75 1715.77C1124.92 1714.79 1125.01 1713.68 1125.01 1712.45V1709.44H1131.22V1712C1131.22 1714.47 1130.92 1716.61 1130.32 1718.4C1129.76 1720.19 1128.74 1721.56 1127.25 1722.49C1125.8 1723.43 1123.75 1723.9 1121.1 1723.9ZM1147.23 1723.9C1144.33 1723.9 1142.09 1723.35 1140.51 1722.24C1138.93 1721.09 1137.82 1719.42 1137.18 1717.25C1136.59 1715.03 1136.29 1712.32 1136.29 1709.12V1700.67C1136.29 1697.38 1136.61 1694.65 1137.25 1692.48C1137.89 1690.3 1139 1688.66 1140.58 1687.55C1142.2 1686.44 1144.42 1685.89 1147.23 1685.89C1150.35 1685.89 1152.63 1686.53 1154.08 1687.81C1155.57 1689.09 1156.55 1690.94 1157.02 1693.37C1157.49 1695.76 1157.73 1698.64 1157.73 1702.01V1705.02H1143.14V1712.45C1143.14 1713.94 1143.26 1715.16 1143.52 1716.09C1143.82 1717.03 1144.27 1717.74 1144.86 1718.21C1145.5 1718.63 1146.31 1718.85 1147.3 1718.85C1148.32 1718.85 1149.09 1718.61 1149.6 1718.14C1150.15 1717.63 1150.52 1716.93 1150.69 1716.03C1150.9 1715.09 1151.01 1714 1151.01 1712.77V1710.53H1157.66V1711.93C1157.66 1715.65 1156.87 1718.57 1155.3 1720.7C1153.72 1722.84 1151.03 1723.9 1147.23 1723.9ZM1143.14 1701.31H1151.01V1697.98C1151.01 1696.45 1150.92 1695.17 1150.75 1694.14C1150.58 1693.08 1150.22 1692.29 1149.66 1691.77C1149.15 1691.22 1148.32 1690.94 1147.17 1690.94C1146.06 1690.94 1145.2 1691.2 1144.61 1691.71C1144.05 1692.22 1143.67 1693.1 1143.46 1694.33C1143.24 1695.53 1143.14 1697.19 1143.14 1699.33V1701.31Z" fill="#999999"/>
<g clip-path="url(#clip1_13150_4618)">
<path d="M1746.05 1892.94C1730.47 1892.94 1728.98 1897.81 1728.98 1904.89V1926.92C1728.98 1934.13 1730.54 1938.86 1746.05 1938.86C1761.56 1938.86 1763.08 1934.06 1763.08 1926.92V1926.32C1763.08 1924.85 1761.89 1923.66 1760.43 1923.66C1760.43 1923.66 1760.41 1923.66 1760.4 1923.66C1759.05 1923.55 1757.87 1924.55 1757.76 1925.91C1757.76 1925.96 1757.76 1926.02 1757.75 1926.07V1926.37C1757.75 1931.84 1757.04 1934.68 1746.06 1934.68C1735.09 1934.68 1734.24 1931.79 1734.24 1926.37V1917.5H1763.04V1904.89C1763.09 1897.82 1761.6 1892.95 1746.06 1892.95L1746.05 1892.94ZM1757.76 1912.95H1734.3V1905.49C1734.3 1900.02 1734.96 1897.1 1746.05 1897.1C1757.15 1897.1 1757.76 1900.02 1757.76 1905.49V1912.95ZM1786.18 1892.94C1770.58 1892.94 1769.09 1897.81 1769.09 1904.89V1926.92C1769.09 1934.13 1770.65 1938.86 1786.18 1938.86C1801.71 1938.86 1803.21 1934.06 1803.21 1926.92V1926.32C1803.23 1924.86 1802.05 1923.67 1800.59 1923.66C1800.58 1923.66 1800.56 1923.66 1800.55 1923.66C1799.07 1923.65 1797.86 1924.84 1797.84 1926.32C1797.84 1926.34 1797.84 1926.36 1797.84 1926.37C1797.84 1931.84 1797.2 1934.68 1786.16 1934.68C1775.11 1934.68 1774.4 1931.79 1774.4 1926.37V1917.5H1803.25V1904.89C1803.25 1897.82 1801.69 1892.95 1786.18 1892.95V1892.94ZM1797.87 1912.95H1774.47V1905.49C1774.47 1900.02 1775.11 1897.1 1786.23 1897.1C1797.35 1897.1 1797.92 1900.02 1797.92 1905.49L1797.87 1912.95ZM1682.32 1893.73C1680.89 1893.73 1679.72 1894.88 1679.71 1896.33V1896.65C1676.36 1894.02 1672.19 1892.71 1667.95 1892.95C1652.42 1892.94 1651 1897.82 1651 1904.89V1926.92C1651 1934.13 1652.7 1938.86 1667.96 1938.86C1672.15 1939.01 1676.28 1937.75 1679.67 1935.28V1940.42C1679.67 1945.87 1679.07 1948.81 1667.96 1948.81C1658.15 1948.81 1656.73 1946.51 1656.49 1942.1C1656.38 1940.68 1655.18 1939.6 1653.77 1939.64C1652.41 1939.53 1651.22 1940.56 1651.12 1941.93C1651.12 1941.99 1651.12 1942.04 1651.12 1942.1V1942.56C1651.38 1948.92 1653.42 1953.01 1667.94 1953.01C1683.47 1953.01 1684.97 1948.21 1684.97 1941.07V1896.32C1684.91 1894.89 1683.75 1893.76 1682.34 1893.72L1682.32 1893.73ZM1679.6 1926.36C1679.6 1931.83 1679.01 1934.68 1667.89 1934.68C1656.77 1934.68 1656.27 1931.78 1656.27 1926.36V1905.69C1656.27 1900.25 1656.85 1897.4 1667.89 1897.4C1678.94 1897.4 1679.6 1900.25 1679.6 1905.69V1926.36ZM1842.76 1904.94V1935.34C1842.63 1936.82 1841.32 1937.91 1839.84 1937.77C1838.56 1937.65 1837.54 1936.63 1837.42 1935.34V1905.49C1837.42 1900.04 1836.64 1897.13 1825.73 1897.13C1814.82 1897.13 1814.1 1900.04 1814.1 1905.49V1935.35C1814.1 1936.82 1812.9 1938.01 1811.44 1938.01C1809.97 1938.01 1808.79 1936.82 1808.79 1935.35V1896.12C1808.86 1894.78 1810 1893.74 1811.34 1893.82C1811.37 1893.82 1811.41 1893.82 1811.44 1893.82C1812.91 1893.83 1814.1 1895.03 1814.1 1896.5V1896.69C1817.47 1894.17 1821.61 1892.89 1825.81 1893.05C1841 1892.94 1842.76 1897.74 1842.76 1904.88V1904.93V1904.94ZM1881.71 1885.78V1935.38C1881.71 1936.86 1880.52 1938.04 1879.06 1938.04C1877.6 1938.04 1876.4 1936.85 1876.4 1935.38V1885.74C1876.39 1884.28 1877.56 1883.08 1879.02 1883.07C1879.04 1883.07 1879.05 1883.07 1879.07 1883.07C1880.5 1883.13 1881.64 1884.3 1881.68 1885.74L1881.73 1885.78L1881.71 1885.78ZM1921.38 1896.5V1941.06C1921.38 1948.2 1919.96 1953 1904.37 1953C1890.07 1953 1887.92 1948.91 1887.6 1942.69V1942.44C1887.6 1940.93 1888.83 1939.7 1890.33 1939.7C1891.83 1939.7 1893.06 1940.93 1893.06 1942.44V1942.55C1893.33 1946.64 1894.94 1948.79 1904.52 1948.79C1915.64 1948.79 1916.23 1945.85 1916.23 1940.41V1935.26C1912.85 1937.76 1908.72 1939.03 1904.52 1938.84C1889.12 1938.84 1887.56 1934.12 1887.56 1926.9V1896.5C1887.55 1895.04 1888.72 1893.85 1890.18 1893.84C1890.2 1893.84 1890.23 1893.84 1890.25 1893.84C1891.63 1893.78 1892.8 1894.84 1892.86 1896.22C1892.86 1896.32 1892.86 1896.41 1892.86 1896.5V1926.36C1892.86 1931.83 1893.44 1934.68 1904.49 1934.68C1915.53 1934.68 1916.2 1931.83 1916.2 1926.36V1896.5C1916.18 1895.04 1917.36 1893.85 1918.81 1893.84C1918.83 1893.84 1918.84 1893.84 1918.86 1893.84C1920.27 1893.84 1921.4 1894.98 1921.4 1896.39C1921.4 1896.43 1921.4 1896.47 1921.4 1896.51L1921.38 1896.5ZM1870.65 1901.1C1870.65 1902.31 1869.7 1903.32 1868.49 1903.4H1853.82V1935.41C1853.96 1936.89 1852.88 1938.2 1851.4 1938.34C1849.93 1938.48 1848.62 1937.39 1848.48 1935.91C1848.47 1935.74 1848.47 1935.58 1848.48 1935.41V1894.51C1848.48 1887.36 1849.65 1883.02 1861.61 1883.02H1868.49C1869.67 1882.86 1870.76 1883.68 1870.92 1884.86C1871.08 1886.04 1870.25 1887.13 1869.08 1887.29C1868.94 1887.31 1868.81 1887.31 1868.68 1887.31H1861.8C1854.72 1887.31 1854.01 1889.61 1854.01 1895.16V1898.59H1868.68C1869.85 1898.73 1870.73 1899.74 1870.69 1900.93L1870.65 1901.09V1901.1ZM1720.73 1917.36C1719.35 1917.46 1718.15 1916.44 1718.05 1915.06V1905.64C1718.05 1900.2 1717.16 1897.28 1707.01 1897.28C1696.86 1897.28 1696.03 1900.2 1696.03 1905.64V1935.5C1695.95 1936.92 1694.79 1938.04 1693.38 1938.08C1691.92 1938.09 1690.73 1936.91 1690.72 1935.45C1690.72 1935.44 1690.72 1935.42 1690.72 1935.41V1896.12C1690.79 1894.78 1691.94 1893.74 1693.27 1893.82C1693.3 1893.82 1693.34 1893.82 1693.38 1893.82C1694.46 1893.8 1695.44 1894.45 1695.85 1895.44C1695.9 1895.84 1695.9 1896.25 1695.85 1896.66C1699.05 1894.31 1702.92 1893.05 1706.89 1893.03C1721.33 1893.03 1723.27 1897.83 1723.27 1904.98V1914.88C1723.31 1916.21 1722.27 1917.32 1720.94 1917.36C1720.87 1917.36 1720.79 1917.36 1720.73 1917.36Z" fill="#B6F500"/>
<path d="M1938 1899.08C1938 1902.39 1935.41 1904.98 1932.05 1904.98C1928.69 1904.98 1926.06 1902.39 1926.06 1899.08C1926.06 1895.77 1928.71 1893.26 1932.05 1893.26C1935.38 1893.26 1938 1895.84 1938 1899.08ZM1927.55 1899.08C1927.55 1901.67 1929.46 1903.73 1932.08 1903.73C1934.7 1903.73 1936.51 1901.67 1936.51 1899.12C1936.51 1896.56 1934.63 1894.43 1932.05 1894.43C1929.47 1894.43 1927.55 1896.52 1927.55 1899.08ZM1931.13 1902.14H1929.79V1896.31C1930.31 1896.21 1931.07 1896.13 1932.02 1896.13C1933.11 1896.13 1933.61 1896.31 1934.04 1896.56C1934.36 1896.81 1934.61 1897.27 1934.61 1897.84C1934.61 1898.48 1934.11 1898.98 1933.4 1899.19V1899.26C1933.97 1899.48 1934.29 1899.9 1934.46 1900.68C1934.64 1901.57 1934.74 1901.92 1934.89 1902.14H1933.43C1933.26 1901.92 1933.14 1901.39 1932.97 1900.72C1932.87 1900.08 1932.51 1899.8 1931.76 1899.8H1931.12V1902.14H1931.13ZM1931.16 1898.83H1931.8C1932.55 1898.83 1933.14 1898.59 1933.14 1897.98C1933.14 1897.46 1932.75 1897.1 1931.91 1897.1C1931.55 1897.1 1931.31 1897.13 1931.16 1897.17V1898.83Z" fill="#B6F500"/>
</g>
<line x1="110" y1="1849.67" x2="1938" y2="1849.67" stroke="white" stroke-opacity="0.6"/>
<path d="M121.664 1943.48C119.552 1943.48 117.792 1943.05 116.384 1942.19C115.008 1941.29 113.968 1940.06 113.264 1938.49C112.56 1936.89 112.128 1935.03 111.968 1932.92L115.184 1931.96C115.344 1933.56 115.632 1935.02 116.048 1936.33C116.464 1937.61 117.12 1938.63 118.016 1939.4C118.912 1940.14 120.144 1940.51 121.712 1940.51C123.44 1940.51 124.784 1940.06 125.744 1939.16C126.704 1938.27 127.184 1936.84 127.184 1934.89C127.184 1933.16 126.752 1931.67 125.888 1930.43C125.056 1929.18 123.904 1927.87 122.432 1926.49L115.568 1919.91C114.352 1918.73 113.456 1917.51 112.88 1916.27C112.304 1914.99 112.016 1913.59 112.016 1912.09C112.016 1909.4 112.816 1907.34 114.416 1905.9C116.016 1904.46 118.144 1903.74 120.8 1903.74C122.176 1903.74 123.408 1903.91 124.496 1904.27C125.616 1904.62 126.56 1905.19 127.328 1905.99C128.128 1906.76 128.752 1907.77 129.2 1909.02C129.648 1910.27 129.952 1911.79 130.112 1913.58L126.992 1914.39C126.864 1912.76 126.592 1911.37 126.176 1910.22C125.792 1909.03 125.168 1908.14 124.304 1907.53C123.472 1906.92 122.304 1906.62 120.8 1906.62C119.2 1906.62 117.888 1907.03 116.864 1907.87C115.84 1908.7 115.328 1909.99 115.328 1911.75C115.328 1912.81 115.52 1913.77 115.904 1914.63C116.32 1915.5 117.04 1916.43 118.064 1917.42L124.928 1923.9C126.464 1925.34 127.792 1926.94 128.912 1928.7C130.032 1930.46 130.592 1932.44 130.592 1934.65C130.592 1936.6 130.208 1938.23 129.44 1939.55C128.704 1940.86 127.664 1941.85 126.32 1942.52C124.976 1943.16 123.424 1943.48 121.664 1943.48ZM143.214 1943L136.638 1904.12H139.758L144.894 1935.71L150.75 1904.7H153.774L159.774 1935.75L164.526 1904.12H167.598L161.31 1943H158.478L152.286 1910.94L146.19 1943H143.214ZM175.655 1943V1904.12H179.303V1943H175.655ZM189.079 1943V1904.12H198.391C200.727 1904.12 202.567 1904.55 203.911 1905.42C205.255 1906.28 206.199 1907.48 206.743 1909.02C207.319 1910.55 207.607 1912.36 207.607 1914.44C207.607 1916.27 207.303 1917.96 206.695 1919.53C206.119 1921.07 205.143 1922.3 203.767 1923.23C202.423 1924.15 200.647 1924.62 198.439 1924.62H192.727V1943H189.079ZM192.727 1921.88H197.383C198.951 1921.88 200.215 1921.66 201.175 1921.21C202.167 1920.73 202.887 1919.95 203.335 1918.86C203.783 1917.77 204.007 1916.3 204.007 1914.44C204.007 1912.46 203.815 1910.92 203.431 1909.83C203.047 1908.71 202.375 1907.95 201.415 1907.53C200.487 1907.08 199.159 1906.86 197.431 1906.86H192.727V1921.88ZM215.114 1943V1904.12H229.178V1906.95H218.81V1921.55H227.258V1924.23H218.81V1940.27H229.274V1943H215.114ZM248.308 1931.29V1928.51H258.532V1931.29H248.308ZM284.17 1943V1906.95H276.826V1904.12H294.97V1906.95H287.818V1943H284.17ZM311.294 1943.48C308.702 1943.48 306.67 1942.99 305.198 1941.99C303.758 1940.97 302.734 1939.56 302.126 1937.77C301.55 1935.95 301.262 1933.87 301.262 1931.53V1915.4C301.262 1913.03 301.566 1910.99 302.174 1909.26C302.814 1907.5 303.854 1906.14 305.294 1905.18C306.766 1904.22 308.766 1903.74 311.294 1903.74C313.79 1903.74 315.758 1904.22 317.198 1905.18C318.67 1906.14 319.71 1907.5 320.318 1909.26C320.926 1910.99 321.23 1913.03 321.23 1915.4V1931.58C321.23 1933.91 320.926 1935.98 320.318 1937.77C319.742 1939.53 318.734 1940.92 317.294 1941.95C315.854 1942.97 313.854 1943.48 311.294 1943.48ZM311.294 1940.55C312.99 1940.55 314.286 1940.22 315.182 1939.55C316.078 1938.84 316.686 1937.88 317.006 1936.67C317.358 1935.42 317.534 1933.98 317.534 1932.35V1914.73C317.534 1913.1 317.358 1911.67 317.006 1910.46C316.686 1909.24 316.078 1908.31 315.182 1907.67C314.286 1907 312.99 1906.67 311.294 1906.67C309.566 1906.67 308.238 1907 307.31 1907.67C306.414 1908.31 305.79 1909.24 305.438 1910.46C305.118 1911.67 304.958 1913.1 304.958 1914.73V1932.35C304.958 1933.98 305.118 1935.42 305.438 1936.67C305.79 1937.88 306.414 1938.84 307.31 1939.55C308.238 1940.22 309.566 1940.55 311.294 1940.55ZM351.11 1943.48C348.998 1943.48 347.238 1943.05 345.83 1942.19C344.454 1941.29 343.414 1940.06 342.71 1938.49C342.006 1936.89 341.574 1935.03 341.414 1932.92L344.63 1931.96C344.79 1933.56 345.078 1935.02 345.494 1936.33C345.91 1937.61 346.566 1938.63 347.462 1939.4C348.358 1940.14 349.59 1940.51 351.158 1940.51C352.886 1940.51 354.23 1940.06 355.19 1939.16C356.15 1938.27 356.63 1936.84 356.63 1934.89C356.63 1933.16 356.198 1931.67 355.334 1930.43C354.502 1929.18 353.35 1927.87 351.878 1926.49L345.014 1919.91C343.798 1918.73 342.902 1917.51 342.326 1916.27C341.75 1914.99 341.462 1913.59 341.462 1912.09C341.462 1909.4 342.262 1907.34 343.862 1905.9C345.462 1904.46 347.59 1903.74 350.246 1903.74C351.622 1903.74 352.854 1903.91 353.942 1904.27C355.062 1904.62 356.006 1905.19 356.774 1905.99C357.574 1906.76 358.198 1907.77 358.646 1909.02C359.094 1910.27 359.398 1911.79 359.558 1913.58L356.438 1914.39C356.31 1912.76 356.038 1911.37 355.622 1910.22C355.238 1909.03 354.614 1908.14 353.75 1907.53C352.918 1906.92 351.75 1906.62 350.246 1906.62C348.646 1906.62 347.334 1907.03 346.31 1907.87C345.286 1908.7 344.774 1909.99 344.774 1911.75C344.774 1912.81 344.966 1913.77 345.35 1914.63C345.766 1915.5 346.486 1916.43 347.51 1917.42L354.374 1923.9C355.91 1925.34 357.238 1926.94 358.358 1928.7C359.478 1930.46 360.038 1932.44 360.038 1934.65C360.038 1936.6 359.654 1938.23 358.886 1939.55C358.15 1940.86 357.11 1941.85 355.766 1942.52C354.422 1943.16 352.87 1943.48 351.11 1943.48ZM367.764 1943V1904.12H381.828V1906.95H371.46V1921.55H379.908V1924.23H371.46V1940.27H381.924V1943H367.764ZM389.769 1943V1904.12H403.833V1906.95H393.465V1921.55H401.913V1924.23H393.465V1940.27H403.929V1943H389.769ZM424.499 1943V1904.12H428.147V1921.35H440.387V1904.12H444.035V1943H440.387V1924.09H428.147V1943H424.499ZM462.938 1943.48C460.346 1943.48 458.314 1942.99 456.842 1941.99C455.402 1940.97 454.378 1939.56 453.77 1937.77C453.194 1935.95 452.906 1933.87 452.906 1931.53V1915.4C452.906 1913.03 453.21 1910.99 453.818 1909.26C454.458 1907.5 455.498 1906.14 456.938 1905.18C458.41 1904.22 460.41 1903.74 462.938 1903.74C465.434 1903.74 467.402 1904.22 468.842 1905.18C470.314 1906.14 471.354 1907.5 471.962 1909.26C472.57 1910.99 472.874 1913.03 472.874 1915.4V1931.58C472.874 1933.91 472.57 1935.98 471.962 1937.77C471.386 1939.53 470.378 1940.92 468.938 1941.95C467.498 1942.97 465.498 1943.48 462.938 1943.48ZM462.938 1940.55C464.634 1940.55 465.93 1940.22 466.826 1939.55C467.722 1938.84 468.33 1937.88 468.65 1936.67C469.002 1935.42 469.178 1933.98 469.178 1932.35V1914.73C469.178 1913.1 469.002 1911.67 468.65 1910.46C468.33 1909.24 467.722 1908.31 466.826 1907.67C465.93 1907 464.634 1906.67 462.938 1906.67C461.21 1906.67 459.882 1907 458.954 1907.67C458.058 1908.31 457.434 1909.24 457.082 1910.46C456.762 1911.67 456.602 1913.1 456.602 1914.73V1932.35C456.602 1933.98 456.762 1935.42 457.082 1936.67C457.434 1937.88 458.058 1938.84 458.954 1939.55C459.882 1940.22 461.21 1940.55 462.938 1940.55ZM486.669 1943L480.093 1904.12H483.213L488.349 1935.71L494.205 1904.7H497.229L503.229 1935.75L507.981 1904.12H511.053L504.765 1943H501.933L495.741 1910.94L489.645 1943H486.669ZM531.787 1943V1904.12H535.435V1943H531.787ZM550.011 1943V1906.95H542.667V1904.12H560.811V1906.95H553.659V1943H550.011ZM585.491 1943L578.915 1904.12H582.035L587.171 1935.71L593.027 1904.7H596.051L602.051 1935.75L606.803 1904.12H609.875L603.587 1943H600.755L594.563 1910.94L588.467 1943H585.491ZM626.958 1943.48C624.366 1943.48 622.334 1942.99 620.862 1941.99C619.422 1940.97 618.398 1939.56 617.79 1937.77C617.214 1935.95 616.926 1933.87 616.926 1931.53V1915.4C616.926 1913.03 617.23 1910.99 617.838 1909.26C618.478 1907.5 619.518 1906.14 620.958 1905.18C622.43 1904.22 624.43 1903.74 626.958 1903.74C629.454 1903.74 631.422 1904.22 632.862 1905.18C634.334 1906.14 635.374 1907.5 635.982 1909.26C636.59 1910.99 636.894 1913.03 636.894 1915.4V1931.58C636.894 1933.91 636.59 1935.98 635.982 1937.77C635.406 1939.53 634.398 1940.92 632.958 1941.95C631.518 1942.97 629.518 1943.48 626.958 1943.48ZM626.958 1940.55C628.654 1940.55 629.95 1940.22 630.846 1939.55C631.742 1938.84 632.35 1937.88 632.67 1936.67C633.022 1935.42 633.198 1933.98 633.198 1932.35V1914.73C633.198 1913.1 633.022 1911.67 632.67 1910.46C632.35 1909.24 631.742 1908.31 630.846 1907.67C629.95 1907 628.654 1906.67 626.958 1906.67C625.23 1906.67 623.902 1907 622.974 1907.67C622.078 1908.31 621.454 1909.24 621.102 1910.46C620.782 1911.67 620.622 1913.1 620.622 1914.73V1932.35C620.622 1933.98 620.782 1935.42 621.102 1936.67C621.454 1937.88 622.078 1938.84 622.974 1939.55C623.902 1940.22 625.23 1940.55 626.958 1940.55ZM645.84 1943V1904.12H654.624C657.056 1904.12 658.96 1904.52 660.336 1905.32C661.744 1906.09 662.752 1907.23 663.36 1908.73C663.968 1910.2 664.272 1911.96 664.272 1914.01C664.272 1915.45 664.112 1916.81 663.792 1918.09C663.472 1919.37 662.928 1920.46 662.16 1921.35C661.392 1922.25 660.304 1922.84 658.896 1923.13L664.848 1943H661.296L655.584 1923.9H649.488V1943H645.84ZM649.488 1921.21H654.432C656.064 1921.21 657.328 1920.94 658.224 1920.39C659.12 1919.85 659.76 1919.05 660.144 1917.99C660.528 1916.94 660.72 1915.61 660.72 1914.01C660.72 1911.61 660.304 1909.82 659.472 1908.63C658.64 1907.45 656.992 1906.86 654.528 1906.86H649.488V1921.21ZM673.235 1943V1904.12H676.931V1924.67L687.299 1904.12H690.803L682.835 1920.83L692.531 1943H688.931L680.387 1923.56L676.931 1929.9V1943H673.235ZM706.966 1943.48C704.854 1943.48 703.094 1943.05 701.686 1942.19C700.31 1941.29 699.27 1940.06 698.566 1938.49C697.862 1936.89 697.43 1935.03 697.27 1932.92L700.486 1931.96C700.646 1933.56 700.934 1935.02 701.35 1936.33C701.766 1937.61 702.422 1938.63 703.318 1939.4C704.214 1940.14 705.446 1940.51 707.014 1940.51C708.742 1940.51 710.086 1940.06 711.046 1939.16C712.006 1938.27 712.486 1936.84 712.486 1934.89C712.486 1933.16 712.054 1931.67 711.19 1930.43C710.358 1929.18 709.206 1927.87 707.734 1926.49L700.87 1919.91C699.654 1918.73 698.758 1917.51 698.182 1916.27C697.606 1914.99 697.318 1913.59 697.318 1912.09C697.318 1909.4 698.118 1907.34 699.718 1905.9C701.318 1904.46 703.446 1903.74 706.102 1903.74C707.478 1903.74 708.71 1903.91 709.798 1904.27C710.918 1904.62 711.862 1905.19 712.63 1905.99C713.43 1906.76 714.054 1907.77 714.502 1909.02C714.95 1910.27 715.254 1911.79 715.414 1913.58L712.294 1914.39C712.166 1912.76 711.894 1911.37 711.478 1910.22C711.094 1909.03 710.47 1908.14 709.606 1907.53C708.774 1906.92 707.606 1906.62 706.102 1906.62C704.502 1906.62 703.19 1907.03 702.166 1907.87C701.142 1908.7 700.63 1909.99 700.63 1911.75C700.63 1912.81 700.822 1913.77 701.206 1914.63C701.622 1915.5 702.342 1916.43 703.366 1917.42L710.23 1923.9C711.766 1925.34 713.094 1926.94 714.214 1928.7C715.334 1930.46 715.894 1932.44 715.894 1934.65C715.894 1936.6 715.51 1938.23 714.742 1939.55C714.006 1940.86 712.966 1941.85 711.622 1942.52C710.278 1943.16 708.726 1943.48 706.966 1943.48Z" fill="#999999"/>
<path d="M150.338 110C128.247 110 110.338 127.909 110.338 150C110.338 172.092 128.247 190 150.338 190C172.429 190 190.338 172.092 190.338 150C190.338 127.909 172.429 110 150.338 110ZM140.163 132.593C140.81 130.187 143.027 128.567 145.475 128.706C145.937 128.706 146.399 128.752 146.861 128.891C147.046 128.891 147.231 128.938 147.369 129.03C147.554 128.983 147.693 128.845 147.785 128.706C147.877 128.521 147.924 128.289 147.877 128.058C147.785 127.873 147.646 127.688 147.462 127.549C147 127.271 146.861 126.67 147.138 126.207C147.416 125.698 148.062 125.559 148.57 125.837C149.217 126.207 149.679 126.809 149.864 127.549C150.049 128.243 149.956 129.03 149.586 129.678C149.356 130.048 149.033 130.325 148.663 130.557C148.94 131.436 149.078 132.408 148.94 133.38C148.801 134.907 148.293 136.388 147.416 137.638C148.432 137.823 149.494 137.823 150.557 137.823C151.573 137.823 152.589 137.73 153.606 137.545C152.774 136.296 152.266 134.861 152.128 133.334C152.035 132.454 152.081 131.575 152.312 130.696C151.896 130.418 151.527 130.094 151.296 129.678C151.25 129.678 151.25 129.585 151.25 129.585C150.511 128.243 150.973 126.577 152.312 125.837C152.728 125.698 153.144 125.837 153.421 126.161C153.744 126.577 153.652 127.179 153.236 127.503C152.82 127.734 152.682 128.289 152.913 128.706C153.005 128.891 153.19 129.03 153.421 129.076C153.56 128.983 153.744 128.891 153.929 128.891C154.437 128.752 154.945 128.66 155.454 128.66C157.948 128.567 160.119 130.187 160.766 132.547C160.859 132.871 160.859 133.149 160.859 133.472C160.859 134.537 160.489 135.601 159.842 136.434C159.149 137.36 158.179 138.054 157.116 138.425C155.038 139.35 152.774 139.767 150.511 139.767H150.187C147.831 139.905 145.475 139.396 143.351 138.285C142.473 137.915 141.734 137.267 141.133 136.527V136.481C140.44 135.647 140.07 134.583 140.07 133.519C140.07 133.195 140.07 132.918 140.163 132.593ZM132.402 168.274C131.756 168.274 131.063 168.089 130.508 167.765L130.416 167.672C129.492 167.117 128.938 166.191 128.799 165.127C128.244 161.101 132.772 152.956 142.519 140.276C142.842 139.859 143.443 139.767 143.859 140.091C145.337 141.247 147.739 143.978 146.677 146.94C147.924 147.495 148.847 148.559 149.309 149.855C150.141 152.308 148.94 155.454 145.66 159.249C138.916 167.394 134.157 168.274 132.402 168.274ZM156.885 164.387C155.084 168.644 152.959 170.773 150.372 170.773C147.785 170.773 145.66 168.644 143.812 164.387C143.674 164.016 143.766 163.6 144.043 163.322C145.06 162.35 146.122 161.193 147.185 159.944C148.062 158.88 148.801 157.769 149.494 156.565C149.679 156.242 150.002 156.056 150.372 156.056C150.742 156.056 151.065 156.242 151.25 156.565C151.896 157.769 152.682 158.925 153.606 159.944V159.898C154.622 161.101 155.684 162.258 156.655 163.322C156.932 163.6 157.024 164.016 156.885 164.387ZM171.853 165.173C171.76 166.238 171.159 167.163 170.189 167.718V167.811C169.589 168.181 168.942 168.32 168.249 168.32C166.54 168.32 161.782 167.441 154.991 159.296C151.85 155.547 150.695 152.4 151.481 149.901C151.943 148.605 152.867 147.587 154.068 146.986C152.913 143.978 155.315 141.247 156.885 140.136C157.301 139.813 157.902 139.905 158.225 140.322C168.064 152.956 172.546 161.101 171.853 165.173Z" fill="#B6F500"/>
<path d="M150.418 158.879C149.864 159.712 149.309 160.453 148.663 161.193C147.785 162.257 146.861 163.275 145.891 164.248C146.908 166.469 148.478 168.875 150.418 168.875V168.829C152.312 168.829 153.929 166.423 154.899 164.201C154.021 163.275 153.051 162.257 152.127 161.147C151.527 160.453 150.926 159.666 150.418 158.879Z" fill="#B6F500"/>
<path d="M147.462 150.503C147.046 149.438 146.215 148.698 145.152 148.374C144.829 148.328 144.598 148.096 144.459 147.819C144.367 147.541 144.367 147.217 144.552 146.94C145.753 144.996 144.367 143.191 143.443 142.265C131.755 157.398 130.416 162.906 130.739 164.803C130.785 165.358 131.109 165.867 131.571 166.145L131.663 166.238C131.941 166.376 132.218 166.376 132.494 166.376L132.402 166.422C133.603 166.422 137.807 165.775 144.32 158.093C146.954 154.899 148.016 152.262 147.462 150.503Z" fill="#B6F500"/>
<path d="M155.684 136.897H155.777C156.008 136.851 156.239 136.758 156.47 136.62C157.624 136.203 158.502 135.185 158.826 133.982V133.611C158.826 133.426 158.733 133.241 158.733 133.056C158.317 131.575 156.885 130.603 155.361 130.696C155.038 130.696 154.714 130.696 154.391 130.789C154.067 130.881 153.79 131.667 153.929 133.149C154.206 135.277 155.176 136.897 155.684 136.897Z" fill="#B6F500"/>
<path d="M143.12 135.786C143.489 136.11 143.905 136.434 144.321 136.666C144.598 136.804 144.875 136.897 145.152 136.943C145.66 136.943 146.677 135.324 146.908 133.195C147.046 131.76 146.769 130.927 146.446 130.835C146.122 130.696 145.799 130.696 145.475 130.696L145.521 130.65C143.951 130.511 142.519 131.575 142.149 133.102C142.057 133.288 142.057 133.473 142.057 133.658C142.104 134.491 142.473 135.277 143.12 135.786Z" fill="#B6F500"/>
<path d="M157.302 142.219C156.378 143.191 154.946 144.996 156.193 146.893C156.378 147.171 156.424 147.495 156.286 147.773C156.147 148.05 155.869 148.235 155.593 148.328C154.577 148.652 153.699 149.439 153.283 150.457C152.729 152.215 153.837 154.853 156.47 158C162.937 165.728 167.187 166.33 168.296 166.33C168.573 166.377 168.897 166.33 169.128 166.191H169.22C169.682 165.913 170.051 165.404 170.051 164.849L170.005 164.757C170.282 162.859 168.989 157.491 157.302 142.219Z" fill="#B6F500"/>
<path d="M222.69 171.5V156.668L214.818 132.62H221.442L226.242 148.028L230.754 132.62H237.234L229.458 156.668V171.5H222.69ZM250.654 172.028C247.902 172.028 245.71 171.516 244.078 170.492C242.446 169.468 241.278 167.996 240.574 166.076C239.87 164.156 239.518 161.884 239.518 159.26V144.716C239.518 142.092 239.87 139.852 240.574 137.996C241.278 136.108 242.446 134.668 244.078 133.676C245.71 132.684 247.902 132.188 250.654 132.188C253.47 132.188 255.678 132.684 257.278 133.676C258.91 134.668 260.078 136.108 260.782 137.996C261.518 139.852 261.886 142.092 261.886 144.716V159.308C261.886 161.9 261.518 164.156 260.782 166.076C260.078 167.964 258.91 169.436 257.278 170.492C255.678 171.516 253.47 172.028 250.654 172.028ZM250.654 166.796C251.838 166.796 252.702 166.54 253.246 166.028C253.822 165.516 254.206 164.812 254.398 163.916C254.59 163.02 254.686 162.044 254.686 160.988V143.084C254.686 141.996 254.59 141.02 254.398 140.156C254.206 139.292 253.822 138.62 253.246 138.14C252.702 137.628 251.838 137.372 250.654 137.372C249.534 137.372 248.686 137.628 248.11 138.14C247.534 138.62 247.15 139.292 246.958 140.156C246.766 141.02 246.67 141.996 246.67 143.084V160.988C246.67 162.044 246.75 163.02 246.91 163.916C247.102 164.812 247.486 165.516 248.062 166.028C248.638 166.54 249.502 166.796 250.654 166.796ZM277.797 172.028C274.917 172.028 272.677 171.5 271.077 170.444C269.477 169.388 268.373 167.884 267.765 165.932C267.157 163.98 266.853 161.644 266.853 158.924V132.62H273.765V159.74C273.765 160.956 273.845 162.108 274.005 163.196C274.165 164.252 274.533 165.116 275.109 165.788C275.717 166.428 276.613 166.748 277.797 166.748C279.045 166.748 279.941 166.428 280.485 165.788C281.061 165.116 281.429 164.252 281.589 163.196C281.781 162.108 281.877 160.956 281.877 159.74V132.62H288.741V158.924C288.741 161.644 288.437 163.98 287.829 165.932C287.221 167.884 286.117 169.388 284.517 170.444C282.949 171.5 280.709 172.028 277.797 172.028ZM293.8 145.82L293.08 143.612C294.168 143.58 294.888 143.148 295.24 142.316C295.624 141.484 295.816 140.3 295.816 138.764H292.84V132.62H299.128C299.128 133.484 299.128 134.348 299.128 135.212C299.128 136.044 299.112 136.844 299.08 137.612C299.016 140.236 298.616 142.252 297.88 143.66C297.144 145.036 295.784 145.756 293.8 145.82ZM303.516 171.5V132.62H312.828C315.452 132.62 317.66 132.94 319.452 133.58C321.276 134.188 322.652 135.244 323.58 136.748C324.54 138.252 325.02 140.3 325.02 142.892C325.02 144.46 324.876 145.868 324.588 147.116C324.3 148.364 323.804 149.436 323.1 150.332C322.428 151.196 321.484 151.868 320.268 152.348L325.692 171.5H318.588L313.884 153.692H310.62V171.5H303.516ZM310.62 149.228H312.828C314.204 149.228 315.292 149.036 316.092 148.652C316.924 148.236 317.516 147.596 317.868 146.732C318.22 145.836 318.396 144.7 318.396 143.324C318.396 141.372 318.028 139.916 317.292 138.956C316.588 137.964 315.228 137.468 313.212 137.468H310.62V149.228ZM330.422 171.5V132.62H346.742V137.612H337.526V148.796H344.774V153.74H337.526V166.604H346.838V171.5H330.422ZM362.817 171.5V132.62H369.825V171.5H362.817ZM375.844 171.5V132.62H380.788L390.244 154.796V132.62H396.1V171.5H391.396L381.892 148.268V171.5H375.844ZM403.392 162.38L401.424 132.668H407.952L405.648 162.38H403.392ZM401.376 171.5V165.164H407.712V171.5H401.376Z" fill="#B6F500"/>
<path d="M1902.19 167.576C1899.91 167.576 1898.03 167.096 1896.52 166.136C1895.05 165.176 1893.93 163.848 1893.16 162.152C1892.43 160.456 1892.06 158.504 1892.06 156.296V139.064C1892.06 136.792 1892.41 134.808 1893.11 133.112C1893.85 131.384 1894.95 130.04 1896.43 129.08C1897.93 128.12 1899.85 127.64 1902.19 127.64C1904.52 127.64 1906.43 128.12 1907.9 129.08C1909.4 130.04 1910.51 131.384 1911.21 133.112C1911.95 134.808 1912.31 136.792 1912.31 139.064V156.296C1912.31 158.504 1911.93 160.456 1911.16 162.152C1910.43 163.848 1909.31 165.176 1907.8 166.136C1906.33 167.096 1904.46 167.576 1902.19 167.576ZM1902.19 161.864C1903.18 161.864 1903.91 161.56 1904.39 160.952C1904.87 160.344 1905.19 159.608 1905.35 158.744C1905.51 157.88 1905.59 157.032 1905.59 156.2V139.16C1905.59 138.264 1905.51 137.384 1905.35 136.52C1905.23 135.624 1904.92 134.872 1904.44 134.264C1903.96 133.656 1903.21 133.352 1902.19 133.352C1901.16 133.352 1900.41 133.656 1899.93 134.264C1899.45 134.872 1899.13 135.624 1898.97 136.52C1898.84 137.384 1898.78 138.264 1898.78 139.16V156.2C1898.78 157.032 1898.86 157.88 1899.02 158.744C1899.21 159.608 1899.55 160.344 1900.03 160.952C1900.51 161.56 1901.23 161.864 1902.19 161.864ZM1922.26 167V135.464C1922.07 135.56 1921.68 135.704 1921.11 135.896C1920.56 136.088 1919.95 136.28 1919.28 136.472C1918.61 136.632 1917.99 136.792 1917.41 136.952C1916.87 137.112 1916.48 137.24 1916.26 137.336V132.392C1916.71 132.232 1917.27 132.008 1917.94 131.72C1918.61 131.432 1919.31 131.112 1920.05 130.76C1920.82 130.376 1921.52 129.96 1922.16 129.512C1922.83 129.064 1923.38 128.6 1923.79 128.12H1928.88V167H1922.26Z" fill="#B6F500"/>
<path d="M-22.1071 380.772C-30.2663 380.772 -40.2792 386.553 -44.3589 393.619L-123.886 531.364C-127.966 538.43 -127.966 549.992 -123.886 557.058L-44.3564 694.804C-40.2768 701.87 -30.2631 707.652 -22.1039 707.652L136.953 707.653C145.112 707.653 155.125 701.872 159.205 694.806L238.731 557.061C242.811 549.995 242.811 538.433 238.732 531.367L159.202 393.621C155.122 386.555 145.109 380.773 136.949 380.773L-22.1071 380.772Z" stroke="#B6F500" stroke-width="2" stroke-miterlimit="10" stroke-dasharray="20 20"/>
</g>
<defs>
<clipPath id="clip0_13150_4618">
<rect width="2048" height="2048" fill="white"/>
</clipPath>
<clipPath id="clip1_13150_4618">
<rect width="287" height="70" fill="white" transform="translate(1651 1883)"/>
</clipPath>
</defs>
</svg>
