<svg width="2048" height="2048" viewBox="0 0 2048 2048" fill="none" xmlns="http://www.w3.org/2000/svg">
<rect width="2048" height="2048" fill="#EEEEE9"/>
<path d="M1205.86 995.165L1218.43 995.165L1218.43 995.165L1218.43 997.164L1231 997.165L1231 995.165L1243.57 995.164L1243.57 995.165L1243.57 997.165L1256.14 997.165L1256.14 995.165L1268.71 995.164L1268.71 995.165L1268.71 997.164L1273.84 997.164L1276.41 1001.61L1278.14 1000.61L1284.43 1011.5L1282.7 1012.5L1288.98 1023.38L1290.71 1022.38L1297 1033.27L1295.27 1034.27L1301.55 1045.16L1303.28 1044.16L1309.57 1055.04L1307.84 1056.04L1314.12 1066.93L1315.86 1065.93L1322.14 1076.82L1320.41 1077.82L1326.7 1088.71L1328.43 1087.71L1334.71 1098.59L1332.98 1099.59L1339.27 1110.48L1341 1109.48L1347.28 1120.37L1345.55 1121.37L1351.84 1132.25L1353.57 1131.25L1359.86 1142.14L1358.12 1143.14L1360.69 1147.58L1358.12 1152.03L1359.85 1153.03L1353.57 1163.91L1351.84 1162.91L1345.55 1173.8L1347.28 1174.8L1341 1185.69L1339.27 1184.69L1332.98 1195.58L1334.71 1196.58L1328.43 1207.46L1326.69 1206.46L1320.41 1217.35L1322.14 1218.35L1315.85 1229.24L1314.12 1228.24L1307.84 1239.12L1309.57 1240.12L1303.28 1251.01L1301.55 1250.01L1295.27 1260.9L1297 1261.9L1290.71 1272.78L1288.98 1271.78L1282.7 1282.67L1284.43 1283.67L1278.14 1294.56L1276.41 1293.56L1273.84 1298L1268.71 1298L1268.71 1300L1256.14 1300L1256.14 1298L1243.57 1298L1243.57 1300L1231 1300L1231 1298L1218.43 1298L1218.43 1300L1205.86 1300L1205.86 1298L1193.29 1298L1193.29 1300L1180.71 1300L1180.71 1298L1168.14 1298L1168.14 1300L1155.57 1300L1155.57 1298L1143 1298L1143 1300L1130.43 1300L1130.43 1298L1117.86 1298L1117.86 1300L1105.29 1300L1105.29 1298L1100.16 1298L1097.59 1293.56L1095.86 1294.56L1089.57 1283.67L1091.3 1282.67L1085.02 1271.79L1083.29 1272.79L1077 1261.9L1078.73 1260.9L1072.45 1250.01L1070.72 1251.01L1064.43 1240.12L1066.16 1239.12L1059.88 1228.24L1058.14 1229.24L1051.86 1218.35L1053.59 1217.35L1047.3 1206.46L1045.57 1207.46L1039.29 1196.58L1041.02 1195.58L1034.73 1184.69L1033 1185.69L1026.72 1174.8L1028.45 1173.8L1022.16 1162.91L1020.43 1163.91L1014.14 1153.03L1015.88 1152.03L1013.31 1147.58L1015.88 1143.14L1014.14 1142.14L1014.14 1142.14L1020.43 1131.25L1020.43 1131.25L1022.16 1132.25L1028.45 1121.37L1026.72 1120.37L1026.71 1120.37L1033 1109.48L1034.73 1110.48L1041.02 1099.59L1039.29 1098.59L1039.29 1098.59L1045.57 1087.7L1047.3 1088.71L1053.59 1077.82L1051.86 1076.82L1051.86 1076.82L1058.14 1065.93L1059.88 1066.93L1066.16 1056.04L1064.43 1055.04L1064.43 1055.04L1070.71 1044.16L1070.72 1044.16L1072.45 1045.16L1078.73 1034.27L1077 1033.27L1077 1033.27L1083.29 1022.38L1085.02 1023.38L1091.3 1012.49L1089.57 1011.5L1089.57 1011.5L1095.86 1000.61L1097.59 1001.61L1100.16 997.165L1105.29 997.165L1105.29 995.165L1117.86 995.165L1117.86 995.165L1117.86 997.164L1130.43 997.165L1130.43 995.165L1143 995.164L1143 995.165L1143 997.165L1155.57 997.165L1155.57 995.165L1168.14 995.164L1168.14 995.165L1168.14 997.165L1180.71 997.165L1180.71 995.165L1193.29 995.164L1193.29 995.165L1193.29 997.164L1205.86 997.165L1205.86 995.165Z" stroke="#79982D" stroke-width="4" stroke-dasharray="12 12"/>
<g clip-path="url(#clip0_13150_4981)">
<path d="M1746.05 1892.94C1730.47 1892.94 1728.98 1897.81 1728.98 1904.89V1926.92C1728.98 1934.13 1730.54 1938.86 1746.05 1938.86C1761.56 1938.86 1763.08 1934.06 1763.08 1926.92V1926.32C1763.08 1924.85 1761.89 1923.66 1760.43 1923.66C1760.43 1923.66 1760.41 1923.66 1760.4 1923.66C1759.05 1923.55 1757.87 1924.55 1757.76 1925.91C1757.76 1925.96 1757.76 1926.02 1757.75 1926.07V1926.37C1757.75 1931.84 1757.04 1934.68 1746.06 1934.68C1735.09 1934.68 1734.24 1931.79 1734.24 1926.37V1917.5H1763.04V1904.89C1763.09 1897.82 1761.6 1892.95 1746.06 1892.95L1746.05 1892.94ZM1757.76 1912.95H1734.3V1905.49C1734.3 1900.02 1734.96 1897.1 1746.05 1897.1C1757.15 1897.1 1757.76 1900.02 1757.76 1905.49V1912.95ZM1786.18 1892.94C1770.58 1892.94 1769.09 1897.81 1769.09 1904.89V1926.92C1769.09 1934.13 1770.65 1938.86 1786.18 1938.86C1801.71 1938.86 1803.21 1934.06 1803.21 1926.92V1926.32C1803.23 1924.86 1802.05 1923.67 1800.59 1923.66C1800.58 1923.66 1800.56 1923.66 1800.55 1923.66C1799.07 1923.65 1797.86 1924.84 1797.84 1926.32C1797.84 1926.34 1797.84 1926.36 1797.84 1926.37C1797.84 1931.84 1797.2 1934.68 1786.16 1934.68C1775.11 1934.68 1774.4 1931.79 1774.4 1926.37V1917.5H1803.25V1904.89C1803.25 1897.82 1801.69 1892.95 1786.18 1892.95V1892.94ZM1797.87 1912.95H1774.47V1905.49C1774.47 1900.02 1775.11 1897.1 1786.23 1897.1C1797.35 1897.1 1797.92 1900.02 1797.92 1905.49L1797.87 1912.95ZM1682.32 1893.73C1680.89 1893.73 1679.72 1894.88 1679.71 1896.33V1896.65C1676.36 1894.02 1672.19 1892.71 1667.95 1892.95C1652.42 1892.94 1651 1897.82 1651 1904.89V1926.92C1651 1934.13 1652.7 1938.86 1667.96 1938.86C1672.15 1939.01 1676.28 1937.75 1679.67 1935.28V1940.42C1679.67 1945.87 1679.07 1948.81 1667.96 1948.81C1658.15 1948.81 1656.73 1946.51 1656.49 1942.1C1656.38 1940.68 1655.18 1939.6 1653.77 1939.64C1652.41 1939.53 1651.22 1940.56 1651.12 1941.93C1651.12 1941.99 1651.12 1942.04 1651.12 1942.1V1942.56C1651.38 1948.92 1653.42 1953.01 1667.94 1953.01C1683.47 1953.01 1684.97 1948.21 1684.97 1941.07V1896.32C1684.91 1894.89 1683.75 1893.76 1682.34 1893.72L1682.32 1893.73ZM1679.6 1926.36C1679.6 1931.83 1679.01 1934.68 1667.89 1934.68C1656.77 1934.68 1656.27 1931.78 1656.27 1926.36V1905.69C1656.27 1900.25 1656.85 1897.4 1667.89 1897.4C1678.94 1897.4 1679.6 1900.25 1679.6 1905.69V1926.36ZM1842.76 1904.94V1935.34C1842.63 1936.82 1841.32 1937.91 1839.84 1937.77C1838.56 1937.65 1837.54 1936.63 1837.42 1935.34V1905.49C1837.42 1900.04 1836.64 1897.13 1825.73 1897.13C1814.82 1897.13 1814.1 1900.04 1814.1 1905.49V1935.35C1814.1 1936.82 1812.9 1938.01 1811.44 1938.01C1809.97 1938.01 1808.79 1936.82 1808.79 1935.35V1896.12C1808.86 1894.78 1810 1893.74 1811.34 1893.82C1811.37 1893.82 1811.41 1893.82 1811.44 1893.82C1812.91 1893.83 1814.1 1895.03 1814.1 1896.5V1896.69C1817.47 1894.17 1821.61 1892.89 1825.81 1893.05C1841 1892.94 1842.76 1897.74 1842.76 1904.88V1904.93V1904.94ZM1881.71 1885.78V1935.38C1881.71 1936.86 1880.52 1938.04 1879.06 1938.04C1877.6 1938.04 1876.4 1936.85 1876.4 1935.38V1885.74C1876.39 1884.28 1877.56 1883.08 1879.02 1883.07C1879.04 1883.07 1879.05 1883.07 1879.07 1883.07C1880.5 1883.13 1881.64 1884.3 1881.68 1885.74L1881.73 1885.78L1881.71 1885.78ZM1921.38 1896.5V1941.06C1921.38 1948.2 1919.96 1953 1904.37 1953C1890.07 1953 1887.92 1948.91 1887.6 1942.69V1942.44C1887.6 1940.93 1888.83 1939.7 1890.33 1939.7C1891.83 1939.7 1893.06 1940.93 1893.06 1942.44V1942.55C1893.33 1946.64 1894.94 1948.79 1904.52 1948.79C1915.64 1948.79 1916.23 1945.85 1916.23 1940.41V1935.26C1912.85 1937.76 1908.72 1939.03 1904.52 1938.84C1889.12 1938.84 1887.56 1934.12 1887.56 1926.9V1896.5C1887.55 1895.04 1888.72 1893.85 1890.18 1893.84C1890.2 1893.84 1890.23 1893.84 1890.25 1893.84C1891.63 1893.78 1892.8 1894.84 1892.86 1896.22C1892.86 1896.32 1892.86 1896.41 1892.86 1896.5V1926.36C1892.86 1931.83 1893.44 1934.68 1904.49 1934.68C1915.53 1934.68 1916.2 1931.83 1916.2 1926.36V1896.5C1916.18 1895.04 1917.36 1893.85 1918.81 1893.84C1918.83 1893.84 1918.84 1893.84 1918.86 1893.84C1920.27 1893.84 1921.4 1894.98 1921.4 1896.39C1921.4 1896.43 1921.4 1896.47 1921.4 1896.51L1921.38 1896.5ZM1870.65 1901.1C1870.65 1902.31 1869.7 1903.32 1868.49 1903.4H1853.82V1935.41C1853.96 1936.89 1852.88 1938.2 1851.4 1938.34C1849.93 1938.48 1848.62 1937.39 1848.48 1935.91C1848.47 1935.74 1848.47 1935.58 1848.48 1935.41V1894.51C1848.48 1887.36 1849.65 1883.02 1861.61 1883.02H1868.49C1869.67 1882.86 1870.76 1883.68 1870.92 1884.86C1871.08 1886.04 1870.25 1887.13 1869.08 1887.29C1868.94 1887.31 1868.81 1887.31 1868.68 1887.31H1861.8C1854.72 1887.31 1854.01 1889.61 1854.01 1895.16V1898.59H1868.68C1869.85 1898.73 1870.73 1899.74 1870.69 1900.93L1870.65 1901.09V1901.1ZM1720.73 1917.36C1719.35 1917.46 1718.15 1916.44 1718.05 1915.06V1905.64C1718.05 1900.2 1717.16 1897.28 1707.01 1897.28C1696.86 1897.28 1696.03 1900.2 1696.03 1905.64V1935.5C1695.95 1936.92 1694.79 1938.04 1693.38 1938.08C1691.92 1938.09 1690.73 1936.91 1690.72 1935.45C1690.72 1935.44 1690.72 1935.42 1690.72 1935.41V1896.12C1690.79 1894.78 1691.94 1893.74 1693.27 1893.82C1693.3 1893.82 1693.34 1893.82 1693.38 1893.82C1694.46 1893.8 1695.44 1894.45 1695.85 1895.44C1695.9 1895.84 1695.9 1896.25 1695.85 1896.66C1699.05 1894.31 1702.92 1893.05 1706.89 1893.03C1721.33 1893.03 1723.27 1897.83 1723.27 1904.98V1914.88C1723.31 1916.21 1722.27 1917.32 1720.94 1917.36C1720.87 1917.36 1720.79 1917.36 1720.73 1917.36Z" fill="#79982D"/>
<path d="M1938 1899.08C1938 1902.39 1935.41 1904.98 1932.05 1904.98C1928.69 1904.98 1926.06 1902.39 1926.06 1899.08C1926.06 1895.77 1928.71 1893.26 1932.05 1893.26C1935.38 1893.26 1938 1895.84 1938 1899.08ZM1927.55 1899.08C1927.55 1901.67 1929.46 1903.73 1932.08 1903.73C1934.7 1903.73 1936.51 1901.67 1936.51 1899.12C1936.51 1896.56 1934.63 1894.43 1932.05 1894.43C1929.47 1894.43 1927.55 1896.52 1927.55 1899.08ZM1931.13 1902.14H1929.79V1896.31C1930.31 1896.21 1931.07 1896.13 1932.02 1896.13C1933.11 1896.13 1933.61 1896.31 1934.04 1896.56C1934.36 1896.81 1934.61 1897.27 1934.61 1897.84C1934.61 1898.48 1934.11 1898.98 1933.4 1899.19V1899.26C1933.97 1899.48 1934.29 1899.9 1934.46 1900.68C1934.64 1901.57 1934.74 1901.92 1934.89 1902.14H1933.43C1933.26 1901.92 1933.15 1901.39 1932.97 1900.72C1932.87 1900.08 1932.51 1899.8 1931.76 1899.8H1931.12V1902.14H1931.13ZM1931.16 1898.83H1931.8C1932.55 1898.83 1933.15 1898.59 1933.15 1897.98C1933.15 1897.46 1932.75 1897.1 1931.91 1897.1C1931.55 1897.1 1931.31 1897.13 1931.16 1897.17V1898.83Z" fill="#79982D"/>
</g>
<line x1="110" y1="1849.67" x2="1938" y2="1849.67" stroke="#5D5D59"/>
<path d="M113.408 1943V1904.12H127.376V1906.86H117.056V1921.5H125.648V1924.19H117.056V1943H113.408ZM134.9 1943V1904.12H138.548V1943H134.9ZM148.324 1943V1904.12H150.964L163.348 1934.31V1904.12H166.516V1943H163.924L151.492 1912.47V1943H148.324ZM176.142 1943V1904.12H184.59C187.31 1904.12 189.422 1904.6 190.926 1905.56C192.462 1906.49 193.55 1907.82 194.19 1909.55C194.83 1911.27 195.15 1913.27 195.15 1915.55V1931C195.15 1933.4 194.83 1935.51 194.19 1937.34C193.55 1939.13 192.494 1940.52 191.022 1941.51C189.55 1942.51 187.518 1943 184.926 1943H176.142ZM179.79 1940.27H184.686C186.734 1940.27 188.238 1939.85 189.198 1939.02C190.158 1938.15 190.766 1936.99 191.022 1935.51C191.278 1934.01 191.406 1932.31 191.406 1930.43V1915.93C191.406 1913.98 191.23 1912.35 190.878 1911.03C190.558 1909.69 189.902 1908.68 188.91 1908.01C187.95 1907.31 186.494 1906.95 184.542 1906.95H179.79V1940.27ZM222.922 1943V1930.09L214.138 1904.12H217.69L224.698 1925.72L231.418 1904.12H235.018L226.474 1930.09V1943H222.922ZM251.185 1943.48C248.593 1943.48 246.561 1942.99 245.089 1941.99C243.649 1940.97 242.625 1939.56 242.017 1937.77C241.441 1935.95 241.153 1933.87 241.153 1931.53V1915.4C241.153 1913.03 241.457 1910.99 242.065 1909.26C242.705 1907.5 243.745 1906.14 245.185 1905.18C246.657 1904.22 248.657 1903.74 251.185 1903.74C253.681 1903.74 255.649 1904.22 257.089 1905.18C258.561 1906.14 259.601 1907.5 260.209 1909.26C260.817 1910.99 261.121 1913.03 261.121 1915.4V1931.58C261.121 1933.91 260.817 1935.98 260.209 1937.77C259.633 1939.53 258.625 1940.92 257.185 1941.95C255.745 1942.97 253.745 1943.48 251.185 1943.48ZM251.185 1940.55C252.881 1940.55 254.177 1940.22 255.073 1939.55C255.969 1938.84 256.577 1937.88 256.897 1936.67C257.249 1935.42 257.425 1933.98 257.425 1932.35V1914.73C257.425 1913.1 257.249 1911.67 256.897 1910.46C256.577 1909.24 255.969 1908.31 255.073 1907.67C254.177 1907 252.881 1906.67 251.185 1906.67C249.457 1906.67 248.129 1907 247.201 1907.67C246.305 1908.31 245.681 1909.24 245.329 1910.46C245.009 1911.67 244.849 1913.1 244.849 1914.73V1932.35C244.849 1933.98 245.009 1935.42 245.329 1936.67C245.681 1937.88 246.305 1938.84 247.201 1939.55C248.129 1940.22 249.457 1940.55 251.185 1940.55ZM279.572 1943.48C276.948 1943.48 274.9 1943.02 273.428 1942.09C271.988 1941.13 270.996 1939.82 270.452 1938.15C269.908 1936.46 269.636 1934.54 269.636 1932.39V1904.12H273.188V1932.49C273.188 1933.99 273.348 1935.37 273.668 1936.62C274.02 1937.83 274.66 1938.79 275.588 1939.5C276.516 1940.2 277.844 1940.55 279.572 1940.55C281.236 1940.55 282.532 1940.2 283.46 1939.5C284.388 1938.76 285.028 1937.79 285.38 1936.57C285.764 1935.35 285.956 1933.99 285.956 1932.49V1904.12H289.46V1932.39C289.46 1934.54 289.172 1936.46 288.596 1938.15C288.02 1939.82 287.012 1941.13 285.572 1942.09C284.132 1943.02 282.132 1943.48 279.572 1943.48ZM298.729 1943V1904.12H307.513C309.945 1904.12 311.849 1904.52 313.225 1905.32C314.633 1906.09 315.641 1907.23 316.249 1908.73C316.857 1910.2 317.161 1911.96 317.161 1914.01C317.161 1915.45 317.001 1916.81 316.681 1918.09C316.361 1919.37 315.817 1920.46 315.049 1921.35C314.281 1922.25 313.193 1922.84 311.785 1923.13L317.737 1943H314.185L308.473 1923.9H302.377V1943H298.729ZM302.377 1921.21H307.321C308.953 1921.21 310.217 1920.94 311.113 1920.39C312.009 1919.85 312.649 1919.05 313.033 1917.99C313.417 1916.94 313.609 1915.61 313.609 1914.01C313.609 1911.61 313.193 1909.82 312.361 1908.63C311.529 1907.45 309.881 1906.86 307.417 1906.86H302.377V1921.21ZM338.849 1943V1904.12H348.161C350.497 1904.12 352.337 1904.55 353.681 1905.42C355.025 1906.28 355.969 1907.48 356.513 1909.02C357.089 1910.55 357.377 1912.36 357.377 1914.44C357.377 1916.27 357.073 1917.96 356.465 1919.53C355.889 1921.07 354.913 1922.3 353.537 1923.23C352.193 1924.15 350.417 1924.62 348.209 1924.62H342.497V1943H338.849ZM342.497 1921.88H347.153C348.721 1921.88 349.985 1921.66 350.945 1921.21C351.937 1920.73 352.657 1919.95 353.105 1918.86C353.553 1917.77 353.777 1916.3 353.777 1914.44C353.777 1912.46 353.585 1910.92 353.201 1909.83C352.817 1908.71 352.145 1907.95 351.185 1907.53C350.257 1907.08 348.929 1906.86 347.201 1906.86H342.497V1921.88ZM360.71 1943L368.918 1904.12H372.758L381.014 1943H377.414L375.494 1932.59H366.23L364.262 1943H360.71ZM366.758 1929.95H375.014L370.886 1908.97L366.758 1929.95ZM388.577 1943V1904.12H397.361C399.793 1904.12 401.697 1904.52 403.073 1905.32C404.481 1906.09 405.489 1907.23 406.097 1908.73C406.705 1910.2 407.009 1911.96 407.009 1914.01C407.009 1915.45 406.849 1916.81 406.529 1918.09C406.209 1919.37 405.665 1920.46 404.897 1921.35C404.129 1922.25 403.041 1922.84 401.633 1923.13L407.585 1943H404.033L398.321 1923.9H392.225V1943H388.577ZM392.225 1921.21H397.169C398.801 1921.21 400.065 1920.94 400.961 1920.39C401.857 1919.85 402.497 1919.05 402.881 1917.99C403.265 1916.94 403.457 1915.61 403.457 1914.01C403.457 1911.61 403.041 1909.82 402.209 1908.63C401.377 1907.45 399.729 1906.86 397.265 1906.86H392.225V1921.21ZM420.117 1943V1906.95H412.773V1904.12H430.917V1906.95H423.765V1943H420.117Z" fill="#999999"/>
<path d="M150 110C127.909 110 110 127.909 110 150C110 172.092 127.909 190 150 190C172.091 190 190 172.092 190 150C190 127.909 172.091 110 150 110ZM139.825 132.593C140.472 130.187 142.689 128.567 145.138 128.706C145.599 128.706 146.061 128.752 146.523 128.891C146.708 128.891 146.893 128.938 147.031 129.03C147.216 128.983 147.355 128.845 147.447 128.706C147.539 128.521 147.586 128.289 147.539 128.058C147.447 127.873 147.308 127.688 147.124 127.549C146.662 127.271 146.523 126.67 146.8 126.207C147.078 125.698 147.725 125.559 148.233 125.837C148.879 126.207 149.341 126.809 149.526 127.549C149.711 128.243 149.618 129.03 149.249 129.678C149.018 130.048 148.695 130.325 148.325 130.557C148.602 131.436 148.741 132.408 148.602 133.38C148.464 134.907 147.956 136.388 147.078 137.638C148.094 137.823 149.156 137.823 150.219 137.823C151.235 137.823 152.251 137.73 153.268 137.545C152.436 136.296 151.928 134.861 151.79 133.334C151.697 132.454 151.743 131.575 151.974 130.696C151.559 130.418 151.189 130.094 150.958 129.678C150.912 129.678 150.912 129.585 150.912 129.585C150.173 128.243 150.635 126.577 151.974 125.837C152.39 125.698 152.806 125.837 153.083 126.161C153.406 126.577 153.314 127.179 152.898 127.503C152.482 127.734 152.344 128.289 152.575 128.706C152.667 128.891 152.852 129.03 153.083 129.076C153.222 128.983 153.406 128.891 153.591 128.891C154.099 128.752 154.607 128.66 155.116 128.66C157.61 128.567 159.781 130.187 160.428 132.547C160.521 132.871 160.521 133.149 160.521 133.472C160.521 134.537 160.151 135.601 159.504 136.434C158.811 137.36 157.841 138.054 156.778 138.425C154.7 139.35 152.436 139.767 150.173 139.767H149.849C147.493 139.905 145.138 139.396 143.013 138.285C142.135 137.915 141.396 137.267 140.795 136.527V136.481C140.102 135.647 139.733 134.583 139.733 133.519C139.733 133.195 139.733 132.918 139.825 132.593ZM132.065 168.274C131.418 168.274 130.725 168.089 130.17 167.765L130.078 167.672C129.154 167.117 128.6 166.191 128.461 165.127C127.907 161.101 132.434 152.956 142.181 140.276C142.504 139.859 143.105 139.767 143.521 140.091C144.999 141.247 147.401 143.978 146.339 146.94C147.586 147.495 148.51 148.559 148.972 149.855C149.803 152.308 148.602 155.454 145.322 159.249C138.578 167.394 133.82 168.274 132.065 168.274ZM156.547 164.387C154.746 168.644 152.621 170.773 150.034 170.773C147.447 170.773 145.322 168.644 143.474 164.387C143.336 164.016 143.428 163.6 143.705 163.322C144.722 162.35 145.784 161.193 146.847 159.944C147.725 158.88 148.464 157.769 149.156 156.565C149.341 156.242 149.664 156.056 150.034 156.056C150.404 156.056 150.727 156.242 150.912 156.565C151.559 157.769 152.344 158.925 153.268 159.944V159.898C154.284 161.101 155.346 162.258 156.317 163.322C156.594 163.6 156.686 164.016 156.547 164.387ZM171.515 165.173C171.422 166.238 170.822 167.163 169.851 167.718V167.811C169.251 168.181 168.604 168.32 167.911 168.32C166.203 168.32 161.444 167.441 154.654 159.296C151.512 155.547 150.357 152.4 151.143 149.901C151.605 148.605 152.529 147.587 153.73 146.986C152.575 143.978 154.977 141.247 156.547 140.136C156.963 139.813 157.564 139.905 157.887 140.322C167.727 152.956 172.208 161.101 171.515 165.173Z" fill="#79982D"/>
<path d="M150.08 158.879C149.526 159.712 148.971 160.453 148.324 161.193C147.447 162.257 146.523 163.275 145.553 164.248C146.569 166.469 148.14 168.875 150.08 168.875V168.829C151.974 168.829 153.591 166.423 154.561 164.201C153.683 163.275 152.713 162.257 151.789 161.147C151.188 160.453 150.588 159.666 150.08 158.879Z" fill="#79982D"/>
<path d="M147.124 150.503C146.709 149.438 145.877 148.698 144.815 148.374C144.491 148.328 144.26 148.096 144.122 147.819C144.029 147.541 144.029 147.217 144.214 146.94C145.415 144.996 144.029 143.191 143.105 142.265C131.418 157.398 130.078 162.906 130.402 164.803C130.448 165.358 130.771 165.867 131.233 166.145L131.326 166.238C131.603 166.376 131.88 166.376 132.157 166.376L132.065 166.422C133.266 166.422 137.47 165.775 143.983 158.093C146.616 154.899 147.679 152.262 147.124 150.503Z" fill="#79982D"/>
<path d="M155.346 136.897H155.439C155.67 136.851 155.901 136.758 156.132 136.62C157.287 136.203 158.164 135.185 158.488 133.982V133.611C158.488 133.426 158.396 133.241 158.396 133.056C157.979 131.575 156.548 130.603 155.023 130.696C154.7 130.696 154.376 130.696 154.053 130.789C153.73 130.881 153.453 131.667 153.591 133.149C153.868 135.277 154.838 136.897 155.346 136.897Z" fill="#79982D"/>
<path d="M142.782 135.786C143.151 136.11 143.568 136.434 143.983 136.666C144.26 136.804 144.538 136.897 144.815 136.943C145.323 136.943 146.339 135.324 146.57 133.195C146.709 131.76 146.432 130.927 146.108 130.835C145.785 130.696 145.461 130.696 145.138 130.696L145.184 130.65C143.614 130.511 142.182 131.575 141.812 133.102C141.72 133.288 141.72 133.473 141.72 133.658C141.766 134.491 142.135 135.277 142.782 135.786Z" fill="#79982D"/>
<path d="M156.963 142.219C156.04 143.191 154.608 144.996 155.855 146.893C156.04 147.171 156.086 147.495 155.947 147.773C155.809 148.05 155.531 148.235 155.254 148.328C154.238 148.652 153.36 149.439 152.944 150.457C152.39 152.215 153.499 154.853 156.132 158C162.599 165.728 166.849 166.33 167.958 166.33C168.235 166.377 168.558 166.33 168.789 166.191H168.882C169.344 165.913 169.713 165.404 169.713 164.849L169.667 164.757C169.944 162.859 168.651 157.491 156.963 142.219Z" fill="#79982D"/>
<path d="M221.008 171.5L215.488 132.62H221.44L224.656 157.82L228.688 132.716H233.536L237.664 157.82L240.832 132.62H246.688L241.264 171.5H235.504L231.184 145.436L226.912 171.5H221.008ZM251.196 171.5V132.62H258.252V148.892H266.22V132.62H273.276V171.5H266.22V153.932H258.252V171.5H251.196ZM279.225 171.5V132.62H295.545V137.612H286.329V148.796H293.577V153.74H286.329V166.604H295.641V171.5H279.225ZM299.756 171.5V132.62H309.068C311.692 132.62 313.9 132.94 315.692 133.58C317.516 134.188 318.892 135.244 319.82 136.748C320.78 138.252 321.26 140.3 321.26 142.892C321.26 144.46 321.116 145.868 320.828 147.116C320.54 148.364 320.044 149.436 319.34 150.332C318.668 151.196 317.724 151.868 316.508 152.348L321.932 171.5H314.828L310.124 153.692H306.86V171.5H299.756ZM306.86 149.228H309.068C310.444 149.228 311.532 149.036 312.332 148.652C313.164 148.236 313.756 147.596 314.108 146.732C314.46 145.836 314.636 144.7 314.636 143.324C314.636 141.372 314.268 139.916 313.532 138.956C312.828 137.964 311.468 137.468 309.452 137.468H306.86V149.228ZM326.662 171.5V132.62H342.982V137.612H333.766V148.796H341.014V153.74H333.766V166.604H343.078V171.5H326.662ZM364.29 171.5V156.668L356.418 132.62H363.042L367.842 148.028L372.354 132.62H378.834L371.058 156.668V171.5H364.29ZM392.254 172.028C389.502 172.028 387.31 171.516 385.678 170.492C384.046 169.468 382.878 167.996 382.174 166.076C381.47 164.156 381.118 161.884 381.118 159.26V144.716C381.118 142.092 381.47 139.852 382.174 137.996C382.878 136.108 384.046 134.668 385.678 133.676C387.31 132.684 389.502 132.188 392.254 132.188C395.07 132.188 397.278 132.684 398.878 133.676C400.51 134.668 401.678 136.108 402.382 137.996C403.118 139.852 403.486 142.092 403.486 144.716V159.308C403.486 161.9 403.118 164.156 402.382 166.076C401.678 167.964 400.51 169.436 398.878 170.492C397.278 171.516 395.07 172.028 392.254 172.028ZM392.254 166.796C393.438 166.796 394.302 166.54 394.846 166.028C395.422 165.516 395.806 164.812 395.998 163.916C396.19 163.02 396.286 162.044 396.286 160.988V143.084C396.286 141.996 396.19 141.02 395.998 140.156C395.806 139.292 395.422 138.62 394.846 138.14C394.302 137.628 393.438 137.372 392.254 137.372C391.134 137.372 390.286 137.628 389.71 138.14C389.134 138.62 388.75 139.292 388.558 140.156C388.366 141.02 388.27 141.996 388.27 143.084V160.988C388.27 162.044 388.35 163.02 388.51 163.916C388.702 164.812 389.086 165.516 389.662 166.028C390.238 166.54 391.102 166.796 392.254 166.796ZM419.397 172.028C416.517 172.028 414.277 171.5 412.677 170.444C411.077 169.388 409.973 167.884 409.365 165.932C408.757 163.98 408.453 161.644 408.453 158.924V132.62H415.365V159.74C415.365 160.956 415.445 162.108 415.605 163.196C415.765 164.252 416.133 165.116 416.709 165.788C417.317 166.428 418.213 166.748 419.397 166.748C420.645 166.748 421.541 166.428 422.085 165.788C422.661 165.116 423.029 164.252 423.189 163.196C423.381 162.108 423.477 160.956 423.477 159.74V132.62H430.341V158.924C430.341 161.644 430.037 163.98 429.429 165.932C428.821 167.884 427.717 169.388 426.117 170.444C424.549 171.5 422.309 172.028 419.397 172.028ZM447.6 171.5V132.62H463.584V137.516H454.704V148.844H461.952V153.788H454.704V171.5H447.6ZM467.62 171.5V132.62H474.628V171.5H467.62ZM484.535 171.5V137.852H478.343V132.62H497.735V137.852H491.639V171.5H484.535Z" fill="#79982D"/>
<path d="M1896.32 167.576C1894.04 167.576 1892.16 167.096 1890.65 166.136C1889.18 165.176 1888.06 163.848 1887.29 162.152C1886.56 160.456 1886.19 158.504 1886.19 156.296V139.064C1886.19 136.792 1886.54 134.808 1887.24 133.112C1887.98 131.384 1889.08 130.04 1890.56 129.08C1892.06 128.12 1893.98 127.64 1896.32 127.64C1898.65 127.64 1900.56 128.12 1902.03 129.08C1903.53 130.04 1904.64 131.384 1905.34 133.112C1906.08 134.808 1906.44 136.792 1906.44 139.064V156.296C1906.44 158.504 1906.06 160.456 1905.29 162.152C1904.56 163.848 1903.44 165.176 1901.93 166.136C1900.46 167.096 1898.59 167.576 1896.32 167.576ZM1896.32 161.864C1897.31 161.864 1898.04 161.56 1898.52 160.952C1899 160.344 1899.32 159.608 1899.48 158.744C1899.64 157.88 1899.72 157.032 1899.72 156.2V139.16C1899.72 138.264 1899.64 137.384 1899.48 136.52C1899.36 135.624 1899.05 134.872 1898.57 134.264C1898.09 133.656 1897.34 133.352 1896.32 133.352C1895.29 133.352 1894.54 133.656 1894.06 134.264C1893.58 134.872 1893.26 135.624 1893.1 136.52C1892.97 137.384 1892.91 138.264 1892.91 139.16V156.2C1892.91 157.032 1892.99 157.88 1893.15 158.744C1893.34 159.608 1893.68 160.344 1894.16 160.952C1894.64 161.56 1895.36 161.864 1896.32 161.864ZM1911.11 167V162.296L1920.71 147.464C1921.41 146.376 1922.07 145.336 1922.68 144.344C1923.32 143.352 1923.83 142.328 1924.21 141.272C1924.63 140.184 1924.84 139 1924.84 137.72C1924.84 136.28 1924.58 135.176 1924.07 134.408C1923.56 133.64 1922.76 133.256 1921.67 133.256C1920.64 133.256 1919.84 133.544 1919.27 134.12C1918.69 134.696 1918.29 135.448 1918.07 136.376C1917.88 137.304 1917.78 138.328 1917.78 139.448V141.08H1911.25V139.352C1911.25 137.048 1911.59 135.032 1912.26 133.304C1912.96 131.544 1914.07 130.168 1915.57 129.176C1917.08 128.184 1919.04 127.688 1921.48 127.688C1924.8 127.688 1927.3 128.584 1928.96 130.376C1930.63 132.168 1931.46 134.664 1931.46 137.864C1931.46 139.464 1931.24 140.92 1930.79 142.232C1930.34 143.512 1929.75 144.744 1929.01 145.928C1928.28 147.112 1927.48 148.328 1926.61 149.576L1918.64 161.672H1930.45V167H1911.11Z" fill="#79982D"/>
<path d="M122.2 422V260H190.2V280.8H151.8V327.4H182V348H151.8V401.6H190.6V422H122.2ZM232.547 422L199.947 260H226.147L247.547 374.6L267.547 260H294.347L261.747 422H232.547ZM310.872 422V260H378.872V280.8H340.472V327.4H370.672V348H340.472V401.6H379.272V422H310.872ZM396.419 422V260H435.219C446.152 260 455.352 261.333 462.819 264C470.419 266.533 476.152 270.933 480.019 277.2C484.019 283.467 486.019 292 486.019 302.8C486.019 309.333 485.419 315.2 484.219 320.4C483.019 325.6 480.952 330.067 478.019 333.8C475.219 337.4 471.285 340.2 466.219 342.2L488.819 422H459.219L439.619 347.8H426.019V422H396.419ZM426.019 329.2H435.219C440.952 329.2 445.485 328.4 448.819 326.8C452.285 325.067 454.752 322.4 456.219 318.8C457.685 315.067 458.419 310.333 458.419 304.6C458.419 296.467 456.885 290.4 453.819 286.4C450.885 282.267 445.219 280.2 436.819 280.2H426.019V329.2ZM527.417 422V360.2L494.617 260H522.217L542.217 324.2L561.017 260H588.017L555.617 360.2V422H527.417ZM643.934 424.2C632.468 424.2 623.334 422.067 616.534 417.8C609.734 413.533 604.868 407.4 601.934 399.4C599.001 391.4 597.534 381.933 597.534 371V310.4C597.534 299.467 599.001 290.133 601.934 282.4C604.868 274.533 609.734 268.533 616.534 264.4C623.334 260.267 632.468 258.2 643.934 258.2C655.668 258.2 664.868 260.267 671.534 264.4C678.334 268.533 683.201 274.533 686.134 282.4C689.201 290.133 690.734 299.467 690.734 310.4V371.2C690.734 382 689.201 391.4 686.134 399.4C683.201 407.267 678.334 413.4 671.534 417.8C664.868 422.067 655.668 424.2 643.934 424.2ZM643.934 402.4C648.868 402.4 652.468 401.333 654.734 399.2C657.134 397.067 658.734 394.133 659.534 390.4C660.334 386.667 660.734 382.6 660.734 378.2V303.6C660.734 299.067 660.334 295 659.534 291.4C658.734 287.8 657.134 285 654.734 283C652.468 280.867 648.868 279.8 643.934 279.8C639.268 279.8 635.734 280.867 633.334 283C630.934 285 629.334 287.8 628.534 291.4C627.734 295 627.334 299.067 627.334 303.6V378.2C627.334 382.6 627.668 386.667 628.334 390.4C629.134 394.133 630.734 397.067 633.134 399.2C635.534 401.333 639.134 402.4 643.934 402.4ZM712.63 422V260H733.23L772.63 352.4V260H797.03V422H777.43L737.83 325.2V422H712.63ZM821.614 422V260H889.614V280.8H851.214V327.4H881.414V348H851.214V401.6H890.014V422H821.614ZM956.594 422V260H985.794V422H956.594ZM1051.67 424.2C1041.94 424.2 1033.81 422.333 1027.27 418.6C1020.74 414.733 1015.81 409.133 1012.47 401.8C1009.14 394.467 1007.27 385.467 1006.87 374.8L1032.27 369.8C1032.54 376.067 1033.27 381.6 1034.47 386.4C1035.81 391.2 1037.74 394.933 1040.27 397.6C1042.94 400.133 1046.41 401.4 1050.67 401.4C1055.47 401.4 1058.87 400 1060.87 397.2C1062.87 394.267 1063.87 390.6 1063.87 386.2C1063.87 379.133 1062.27 373.333 1059.07 368.8C1055.87 364.267 1051.61 359.733 1046.27 355.2L1025.87 337.2C1020.14 332.267 1015.54 326.8 1012.07 320.8C1008.74 314.667 1007.07 307.133 1007.07 298.2C1007.07 285.4 1010.81 275.533 1018.27 268.6C1025.74 261.667 1035.94 258.2 1048.87 258.2C1056.47 258.2 1062.81 259.4 1067.87 261.8C1072.94 264.067 1076.94 267.267 1079.87 271.4C1082.94 275.533 1085.21 280.267 1086.67 285.6C1088.14 290.8 1089.07 296.333 1089.47 302.2L1064.27 306.6C1064.01 301.533 1063.41 297 1062.47 293C1061.67 289 1060.14 285.867 1057.87 283.6C1055.74 281.333 1052.54 280.2 1048.27 280.2C1043.87 280.2 1040.47 281.667 1038.07 284.6C1035.81 287.4 1034.67 290.933 1034.67 295.2C1034.67 300.667 1035.81 305.2 1038.07 308.8C1040.34 312.267 1043.61 315.867 1047.87 319.6L1068.07 337.4C1074.74 343 1080.41 349.6 1085.07 357.2C1089.87 364.667 1092.27 373.733 1092.27 384.4C1092.27 392.133 1090.54 399 1087.07 405C1083.74 411 1079.01 415.733 1072.87 419.2C1066.87 422.533 1059.81 424.2 1051.67 424.2ZM123 642V480H152.2V642H123ZM177.278 642V480H197.878L237.278 572.4V480H261.678V642H242.078L202.478 545.2V642H177.278ZM351.095 642V501.8H325.295V480H406.095V501.8H380.695V642H351.095ZM421.233 642V480H450.633V547.8H483.833V480H513.233V642H483.833V568.8H450.633V642H421.233ZM538.02 642V480H606.02V500.8H567.62V547.4H597.82V568H567.62V621.6H606.42V642H538.02ZM672.2 642V480H719.8C729.533 480 737.4 481.8 743.4 485.4C749.533 489 754 494.267 756.8 501.2C759.733 508 761.2 516.267 761.2 526C761.2 536.533 759.4 545.067 755.8 551.6C752.2 558 747.133 562.667 740.6 565.6C734.2 568.533 726.6 570 717.8 570H701.8V642H672.2ZM701.8 549.2H713C718.333 549.2 722.467 548.467 725.4 547C728.467 545.4 730.533 542.933 731.6 539.6C732.8 536.133 733.4 531.533 733.4 525.8C733.4 519.933 732.933 515.2 732 511.6C731.2 507.867 729.333 505.133 726.4 503.4C723.6 501.667 719.133 500.8 713 500.8H701.8V549.2ZM777.669 642V480H807.269V621.6H846.469V642H777.669ZM853.648 642L886.048 480H917.648L950.048 642H922.648L916.248 604.6H888.048L881.448 642H853.648ZM891.048 585.8H913.048L902.048 517.8L891.048 585.8ZM980.542 642V580.2L947.742 480H975.342L995.342 544.2L1014.14 480H1041.14L1008.74 580.2V642H980.542Z" fill="black"/>
<path d="M1038.15 642V614.6H1064.55V642H1038.15Z" fill="#79982D"/>
<path d="M120.752 770L112.304 718.16H118.32L123.888 755.408L130.864 718.352H135.984L143.024 755.6L148.464 718.16H154.352L146.032 770H140.784L133.552 731.6L126.256 770H120.752ZM160.273 770V718.16H167.121V736.848C168.358 735.653 169.745 734.629 171.281 733.776C172.817 732.923 174.524 732.496 176.401 732.496C177.852 732.496 178.961 732.88 179.729 733.648C180.54 734.416 181.094 735.376 181.393 736.528C181.734 737.68 181.905 738.853 181.905 740.048V770H175.057V742.032C175.057 740.709 174.865 739.685 174.481 738.96C174.097 738.235 173.308 737.872 172.113 737.872C171.302 737.872 170.449 738.107 169.553 738.576C168.7 739.045 167.889 739.621 167.121 740.304V770H160.273ZM198.821 770.512C195.92 770.512 193.68 769.957 192.101 768.848C190.522 767.696 189.413 766.032 188.773 763.856C188.176 761.637 187.877 758.928 187.877 755.728V747.28C187.877 743.995 188.197 741.264 188.837 739.088C189.477 736.912 190.586 735.269 192.165 734.16C193.786 733.051 196.005 732.496 198.821 732.496C201.936 732.496 204.218 733.136 205.669 734.416C207.162 735.696 208.144 737.552 208.613 739.984C209.082 742.373 209.317 745.253 209.317 748.624V751.632H194.725V759.056C194.725 760.549 194.853 761.765 195.109 762.704C195.408 763.643 195.856 764.347 196.453 764.816C197.093 765.243 197.904 765.456 198.885 765.456C199.909 765.456 200.677 765.221 201.189 764.752C201.744 764.24 202.106 763.536 202.277 762.64C202.49 761.701 202.597 760.613 202.597 759.376V757.136H209.253V758.544C209.253 762.256 208.464 765.179 206.885 767.312C205.306 769.445 202.618 770.512 198.821 770.512ZM194.725 747.92H202.597V744.592C202.597 743.056 202.512 741.776 202.341 740.752C202.17 739.685 201.808 738.896 201.253 738.384C200.741 737.829 199.909 737.552 198.757 737.552C197.648 737.552 196.794 737.808 196.197 738.32C195.642 738.832 195.258 739.707 195.045 740.944C194.832 742.139 194.725 743.803 194.725 745.936V747.92ZM215.711 770V733.008H222.559V738.256C223.924 735.995 225.289 734.48 226.655 733.712C228.02 732.944 229.385 732.56 230.751 732.56C230.921 732.56 231.071 732.56 231.199 732.56C231.369 732.56 231.583 732.581 231.839 732.624V740.176C231.327 739.963 230.729 739.792 230.047 739.664C229.407 739.493 228.745 739.408 228.062 739.408C226.996 739.408 226.015 739.664 225.119 740.176C224.265 740.645 223.412 741.584 222.559 742.992V770H215.711ZM246.134 770.512C243.232 770.512 240.992 769.957 239.414 768.848C237.835 767.696 236.726 766.032 236.086 763.856C235.488 761.637 235.19 758.928 235.19 755.728V747.28C235.19 743.995 235.51 741.264 236.15 739.088C236.79 736.912 237.899 735.269 239.478 734.16C241.099 733.051 243.318 732.496 246.134 732.496C249.248 732.496 251.531 733.136 252.982 734.416C254.475 735.696 255.456 737.552 255.926 739.984C256.395 742.373 256.63 745.253 256.63 748.624V751.632H242.038V759.056C242.038 760.549 242.166 761.765 242.422 762.704C242.72 763.643 243.168 764.347 243.766 764.816C244.406 765.243 245.216 765.456 246.198 765.456C247.222 765.456 247.99 765.221 248.502 764.752C249.056 764.24 249.419 763.536 249.59 762.64C249.803 761.701 249.91 760.613 249.91 759.376V757.136H256.566V758.544C256.566 762.256 255.776 765.179 254.198 767.312C252.619 769.445 249.931 770.512 246.134 770.512ZM242.038 747.92H249.91V744.592C249.91 743.056 249.824 741.776 249.654 740.752C249.483 739.685 249.12 738.896 248.566 738.384C248.054 737.829 247.222 737.552 246.07 737.552C244.96 737.552 244.107 737.808 243.51 738.32C242.955 738.832 242.571 739.707 242.358 740.944C242.144 742.139 242.038 743.803 242.038 745.936V747.92ZM267.631 770L260.335 733.008H267.247L271.791 762.768L276.399 733.008H283.055L276.015 770H267.631ZM297.696 770.512C294.795 770.512 292.555 769.957 290.976 768.848C289.397 767.696 288.288 766.032 287.648 763.856C287.051 761.637 286.752 758.928 286.752 755.728V747.28C286.752 743.995 287.072 741.264 287.712 739.088C288.352 736.912 289.461 735.269 291.04 734.16C292.661 733.051 294.88 732.496 297.696 732.496C300.811 732.496 303.093 733.136 304.544 734.416C306.037 735.696 307.019 737.552 307.488 739.984C307.957 742.373 308.192 745.253 308.192 748.624V751.632H293.6V759.056C293.6 760.549 293.728 761.765 293.984 762.704C294.283 763.643 294.731 764.347 295.328 764.816C295.968 765.243 296.779 765.456 297.76 765.456C298.784 765.456 299.552 765.221 300.064 764.752C300.619 764.24 300.981 763.536 301.152 762.64C301.365 761.701 301.472 760.613 301.472 759.376V757.136H308.128V758.544C308.128 762.256 307.339 765.179 305.76 767.312C304.181 769.445 301.493 770.512 297.696 770.512ZM293.6 747.92H301.472V744.592C301.472 743.056 301.387 741.776 301.216 740.752C301.045 739.685 300.683 738.896 300.128 738.384C299.616 737.829 298.784 737.552 297.632 737.552C296.523 737.552 295.669 737.808 295.072 738.32C294.517 738.832 294.133 739.707 293.92 740.944C293.707 742.139 293.6 743.803 293.6 745.936V747.92ZM314.586 770V733.008H321.434V738.256C322.799 735.995 324.164 734.48 325.53 733.712C326.895 732.944 328.26 732.56 329.626 732.56C329.796 732.56 329.946 732.56 330.074 732.56C330.244 732.56 330.458 732.581 330.714 732.624V740.176C330.202 739.963 329.604 739.792 328.922 739.664C328.282 739.493 327.62 739.408 326.938 739.408C325.871 739.408 324.89 739.664 323.994 740.176C323.14 740.645 322.287 741.584 321.434 742.992V770H314.586ZM349.005 779.28V774.032C350.669 774.032 351.992 773.947 352.973 773.776C353.954 773.648 354.658 773.371 355.085 772.944C355.512 772.56 355.725 772.005 355.725 771.28C355.725 770.896 355.576 770.043 355.277 768.72C354.978 767.397 354.658 765.989 354.317 764.496L346.893 733.008H353.805L358.797 760.656L363.597 733.008H370.509L361.677 772.048C361.293 773.84 360.589 775.248 359.565 776.272C358.541 777.339 357.218 778.107 355.597 778.576C354.018 779.045 352.098 779.28 349.837 779.28H349.005ZM384.82 770.512C382.089 770.512 379.934 769.957 378.356 768.848C376.777 767.739 375.646 766.16 374.964 764.112C374.324 762.064 374.004 759.653 374.004 756.88V746.128C374.004 743.355 374.324 740.944 374.964 738.896C375.646 736.848 376.777 735.269 378.356 734.16C379.934 733.051 382.089 732.496 384.82 732.496C387.55 732.496 389.684 733.051 391.22 734.16C392.798 735.269 393.908 736.848 394.548 738.896C395.23 740.944 395.572 743.355 395.572 746.128V756.88C395.572 759.653 395.23 762.064 394.548 764.112C393.908 766.16 392.798 767.739 391.22 768.848C389.684 769.957 387.55 770.512 384.82 770.512ZM384.82 765.456C386.142 765.456 387.06 765.072 387.572 764.304C388.126 763.536 388.446 762.533 388.532 761.296C388.66 760.016 388.724 758.693 388.724 757.328V745.744C388.724 744.336 388.66 743.013 388.532 741.776C388.446 740.539 388.126 739.536 387.572 738.768C387.06 737.957 386.142 737.552 384.82 737.552C383.497 737.552 382.558 737.957 382.004 738.768C381.449 739.536 381.108 740.539 380.98 741.776C380.894 743.013 380.852 744.336 380.852 745.744V757.328C380.852 758.693 380.894 760.016 380.98 761.296C381.108 762.533 381.449 763.536 382.004 764.304C382.558 765.072 383.497 765.456 384.82 765.456ZM407.143 770.512C405.692 770.512 404.562 770.128 403.751 769.36C402.94 768.592 402.364 767.632 402.023 766.48C401.724 765.328 401.575 764.155 401.575 762.96V733.008H408.423V760.912C408.423 762.235 408.615 763.28 408.999 764.048C409.383 764.773 410.172 765.136 411.367 765.136C412.135 765.136 412.924 764.923 413.735 764.496C414.588 764.027 415.399 763.472 416.167 762.832V733.008H423.015V770H416.167V766.352C414.972 767.504 413.607 768.485 412.071 769.296C410.578 770.107 408.935 770.512 407.143 770.512ZM453.22 770.512C450.19 770.512 447.758 769.573 445.924 767.696C444.089 765.776 443.044 763.259 442.788 760.144L448.484 758.416C448.825 760.763 449.401 762.533 450.212 763.728C451.022 764.88 452.217 765.456 453.796 765.456C455.033 765.456 455.972 765.115 456.612 764.432C457.252 763.707 457.572 762.747 457.572 761.552C457.572 760.485 457.337 759.525 456.868 758.672C456.398 757.819 455.63 756.944 454.564 756.048L448.228 750.608C446.948 749.499 445.86 748.261 444.964 746.896C444.11 745.531 443.684 743.76 443.684 741.584C443.684 739.621 444.068 737.979 444.836 736.656C445.646 735.291 446.756 734.267 448.164 733.584C449.614 732.859 451.3 732.496 453.22 732.496C456.292 732.496 458.638 733.456 460.26 735.376C461.881 737.253 462.82 739.536 463.076 742.224L458.212 743.952C458.041 742.672 457.785 741.563 457.444 740.624C457.102 739.643 456.612 738.896 455.972 738.384C455.332 737.829 454.5 737.552 453.476 737.552C452.366 737.552 451.47 737.936 450.788 738.704C450.148 739.429 449.828 740.304 449.828 741.328C449.828 741.968 449.956 742.608 450.212 743.248C450.51 743.845 451.001 744.443 451.684 745.04L458.212 751.056C459.108 751.867 459.94 752.741 460.708 753.68C461.518 754.619 462.18 755.685 462.692 756.88C463.204 758.075 463.46 759.461 463.46 761.04C463.46 763.131 463.033 764.88 462.18 766.288C461.326 767.696 460.132 768.763 458.596 769.488C457.06 770.171 455.268 770.512 453.22 770.512ZM478.437 770.512C476.517 770.512 474.96 770.149 473.765 769.424C472.613 768.699 471.76 767.675 471.205 766.352C470.693 765.029 470.437 763.472 470.437 761.68V737.552H466.533V733.008H470.437V722.192H477.285V733.008H483.237V737.552H477.285V761.232C477.285 762.683 477.52 763.728 477.989 764.368C478.458 764.965 479.354 765.264 480.677 765.264C481.018 765.264 481.402 765.243 481.829 765.2C482.298 765.157 482.746 765.115 483.173 765.072V770.128C482.32 770.256 481.53 770.341 480.805 770.384C480.08 770.469 479.29 770.512 478.437 770.512ZM493.837 770.512C492.386 770.512 491.106 770.107 489.997 769.296C488.887 768.443 488.013 767.376 487.373 766.096C486.733 764.773 486.413 763.387 486.413 761.936C486.413 759.632 486.797 757.691 487.565 756.112C488.333 754.533 489.378 753.211 490.701 752.144C492.066 751.035 493.623 750.075 495.373 749.264C497.165 748.453 499.042 747.664 501.005 746.896V744.272C501.005 742.779 500.919 741.541 500.749 740.56C500.578 739.579 500.215 738.853 499.661 738.384C499.149 737.872 498.359 737.616 497.293 737.616C496.354 737.616 495.586 737.829 494.989 738.256C494.434 738.683 494.029 739.301 493.773 740.112C493.517 740.88 493.389 741.797 493.389 742.864V744.72L486.605 744.464C486.69 740.368 487.629 737.36 489.421 735.44C491.213 733.477 493.986 732.496 497.741 732.496C501.41 732.496 504.013 733.499 505.549 735.504C507.085 737.509 507.853 740.411 507.853 744.208V761.104C507.853 762.256 507.874 763.365 507.917 764.432C508.002 765.499 508.087 766.501 508.173 767.44C508.301 768.336 508.407 769.189 508.493 770H502.221C502.093 769.317 501.922 768.464 501.708 767.44C501.538 766.373 501.41 765.413 501.325 764.56C500.898 766.011 500.066 767.376 498.829 768.656C497.634 769.893 495.97 770.512 493.837 770.512ZM496.525 764.624C497.207 764.624 497.847 764.432 498.445 764.048C499.042 763.664 499.575 763.237 500.045 762.768C500.514 762.256 500.834 761.851 501.005 761.552V751.056C499.938 751.653 498.935 752.251 497.997 752.848C497.058 753.445 496.226 754.085 495.501 754.768C494.818 755.408 494.263 756.155 493.837 757.008C493.453 757.819 493.26 758.757 493.26 759.824C493.26 761.317 493.538 762.491 494.093 763.344C494.647 764.197 495.458 764.624 496.525 764.624ZM514.456 770V733.008H521.304V736.656C522.541 735.504 523.907 734.523 525.4 733.712C526.893 732.901 528.536 732.496 530.328 732.496C531.821 732.496 532.952 732.88 533.72 733.648C534.531 734.416 535.085 735.376 535.384 736.528C535.725 737.68 535.896 738.853 535.896 740.048V770H529.048V742.032C529.048 740.709 528.856 739.685 528.472 738.96C528.088 738.235 527.299 737.872 526.104 737.872C525.336 737.872 524.525 738.107 523.672 738.576C522.861 739.003 522.072 739.536 521.304 740.176V770H514.456ZM551.157 770.512C548.042 770.512 545.717 769.381 544.181 767.12C542.645 764.816 541.877 760.933 541.877 755.472V748.304C541.877 745.488 542.112 742.885 542.581 740.496C543.05 738.064 543.925 736.123 545.205 734.672C546.528 733.221 548.448 732.496 550.965 732.496C552.202 732.496 553.333 732.773 554.357 733.328C555.381 733.883 556.298 734.565 557.109 735.376V718.16H563.957V770H557.109V767.632C556.298 768.485 555.402 769.189 554.421 769.744C553.482 770.256 552.394 770.512 551.157 770.512ZM552.885 765.136C553.525 765.136 554.208 765.029 554.933 764.816C555.658 764.56 556.384 764.197 557.109 763.728V739.472C556.512 739.045 555.85 738.683 555.125 738.384C554.4 738.043 553.61 737.872 552.757 737.872C551.178 737.872 550.112 738.64 549.557 740.176C549.002 741.669 548.725 743.483 548.725 745.616V756.048C548.725 757.755 548.81 759.312 548.981 760.72C549.194 762.085 549.6 763.173 550.197 763.984C550.794 764.752 551.69 765.136 552.885 765.136ZM571.086 778.384L569.998 775.44C571.15 775.056 572.046 774.373 572.686 773.392C573.368 772.453 573.71 771.323 573.71 770H570.062V762.64H577.102V769.872C577.102 772.133 576.611 773.925 575.63 775.248C574.648 776.613 573.134 777.659 571.086 778.384ZM607.312 770.512C605.392 770.512 603.835 770.149 602.64 769.424C601.488 768.699 600.635 767.675 600.08 766.352C599.568 765.029 599.312 763.472 599.312 761.68V737.552H595.408V733.008H599.312V722.192H606.16V733.008H612.112V737.552H606.16V761.232C606.16 762.683 606.395 763.728 606.864 764.368C607.333 764.965 608.229 765.264 609.552 765.264C609.893 765.264 610.277 765.243 610.704 765.2C611.173 765.157 611.621 765.115 612.048 765.072V770.128C611.195 770.256 610.405 770.341 609.68 770.384C608.955 770.469 608.165 770.512 607.312 770.512ZM617.336 770V718.16H624.184V736.848C625.421 735.653 626.808 734.629 628.344 733.776C629.88 732.923 631.586 732.496 633.464 732.496C634.914 732.496 636.024 732.88 636.792 733.648C637.602 734.416 638.157 735.376 638.456 736.528C638.797 737.68 638.968 738.853 638.968 740.048V770H632.12V742.032C632.12 740.709 631.928 739.685 631.544 738.96C631.16 738.235 630.37 737.872 629.176 737.872C628.365 737.872 627.512 738.107 626.616 738.576C625.762 739.045 624.952 739.621 624.184 740.304V770H617.336ZM655.884 770.512C652.982 770.512 650.742 769.957 649.164 768.848C647.585 767.696 646.476 766.032 645.836 763.856C645.238 761.637 644.94 758.928 644.94 755.728V747.28C644.94 743.995 645.26 741.264 645.9 739.088C646.54 736.912 647.649 735.269 649.228 734.16C650.849 733.051 653.068 732.496 655.884 732.496C658.998 732.496 661.281 733.136 662.732 734.416C664.225 735.696 665.206 737.552 665.676 739.984C666.145 742.373 666.38 745.253 666.38 748.624V751.632H651.788V759.056C651.788 760.549 651.916 761.765 652.172 762.704C652.47 763.643 652.918 764.347 653.516 764.816C654.156 765.243 654.966 765.456 655.948 765.456C656.972 765.456 657.74 765.221 658.252 764.752C658.806 764.24 659.169 763.536 659.34 762.64C659.553 761.701 659.66 760.613 659.66 759.376V757.136H666.316V758.544C666.316 762.256 665.526 765.179 663.948 767.312C662.369 769.445 659.681 770.512 655.884 770.512ZM651.788 747.92H659.66V744.592C659.66 743.056 659.574 741.776 659.404 740.752C659.233 739.685 658.87 738.896 658.316 738.384C657.804 737.829 656.972 737.552 655.82 737.552C654.71 737.552 653.857 737.808 653.26 738.32C652.705 738.832 652.321 739.707 652.108 740.944C651.894 742.139 651.788 743.803 651.788 745.936V747.92ZM113.456 865V828.008H119.792V831.528C121.029 830.12 122.395 829.075 123.888 828.392C125.381 827.709 126.917 827.368 128.496 827.368C129.861 827.368 131.077 827.709 132.144 828.392C133.253 829.075 134.043 830.291 134.512 832.04C135.835 830.419 137.264 829.245 138.8 828.52C140.379 827.752 142.021 827.368 143.728 827.368C144.923 827.368 146.011 827.667 146.992 828.264C147.973 828.819 148.763 829.736 149.36 831.016C149.957 832.253 150.256 833.896 150.256 835.944V865H143.984V836.392C143.984 834.6 143.685 833.405 143.088 832.808C142.533 832.168 141.765 831.848 140.784 831.848C139.845 831.848 138.864 832.125 137.84 832.68C136.816 833.192 135.877 833.917 135.024 834.856C135.024 835.027 135.024 835.197 135.024 835.368C135.024 835.539 135.024 835.731 135.024 835.944V865H128.752V836.392C128.752 834.6 128.453 833.405 127.856 832.808C127.301 832.168 126.533 831.848 125.552 831.848C124.613 831.848 123.632 832.125 122.608 832.68C121.627 833.192 120.688 833.917 119.792 834.856V865H113.456ZM167.132 865.512C164.401 865.512 162.247 864.957 160.668 863.848C159.089 862.739 157.959 861.16 157.276 859.112C156.636 857.064 156.316 854.653 156.316 851.88V841.128C156.316 838.355 156.636 835.944 157.276 833.896C157.959 831.848 159.089 830.269 160.668 829.16C162.247 828.051 164.401 827.496 167.132 827.496C169.863 827.496 171.996 828.051 173.532 829.16C175.111 830.269 176.22 831.848 176.86 833.896C177.543 835.944 177.884 838.355 177.884 841.128V851.88C177.884 854.653 177.543 857.064 176.86 859.112C176.22 861.16 175.111 862.739 173.532 863.848C171.996 864.957 169.863 865.512 167.132 865.512ZM167.132 860.456C168.455 860.456 169.372 860.072 169.884 859.304C170.439 858.536 170.759 857.533 170.844 856.296C170.972 855.016 171.036 853.693 171.036 852.328V840.744C171.036 839.336 170.972 838.013 170.844 836.776C170.759 835.539 170.439 834.536 169.884 833.768C169.372 832.957 168.455 832.552 167.132 832.552C165.809 832.552 164.871 832.957 164.316 833.768C163.761 834.536 163.42 835.539 163.292 836.776C163.207 838.013 163.164 839.336 163.164 840.744V852.328C163.164 853.693 163.207 855.016 163.292 856.296C163.42 857.533 163.761 858.536 164.316 859.304C164.871 860.072 165.809 860.456 167.132 860.456ZM184.144 865V828.008H190.48V831.528C191.717 830.12 193.082 829.075 194.576 828.392C196.069 827.709 197.605 827.368 199.184 827.368C200.549 827.368 201.765 827.709 202.832 828.392C203.941 829.075 204.73 830.291 205.2 832.04C206.522 830.419 207.952 829.245 209.488 828.52C211.066 827.752 212.709 827.368 214.416 827.368C215.61 827.368 216.698 827.667 217.68 828.264C218.661 828.819 219.45 829.736 220.048 831.016C220.645 832.253 220.944 833.896 220.944 835.944V865H214.672V836.392C214.672 834.6 214.373 833.405 213.776 832.808C213.221 832.168 212.453 831.848 211.472 831.848C210.533 831.848 209.552 832.125 208.528 832.68C207.504 833.192 206.565 833.917 205.712 834.856C205.712 835.027 205.712 835.197 205.712 835.368C205.712 835.539 205.712 835.731 205.712 835.944V865H199.44V836.392C199.44 834.6 199.141 833.405 198.544 832.808C197.989 832.168 197.221 831.848 196.24 831.848C195.301 831.848 194.32 832.125 193.296 832.68C192.314 833.192 191.376 833.917 190.48 834.856V865H184.144ZM237.884 865.512C234.982 865.512 232.742 864.957 231.164 863.848C229.585 862.696 228.476 861.032 227.836 858.856C227.238 856.637 226.94 853.928 226.94 850.728V842.28C226.94 838.995 227.26 836.264 227.9 834.088C228.54 831.912 229.649 830.269 231.228 829.16C232.849 828.051 235.068 827.496 237.884 827.496C240.998 827.496 243.281 828.136 244.732 829.416C246.225 830.696 247.206 832.552 247.676 834.984C248.145 837.373 248.38 840.253 248.38 843.624V846.632H233.788V854.056C233.788 855.549 233.916 856.765 234.172 857.704C234.47 858.643 234.918 859.347 235.516 859.816C236.156 860.243 236.966 860.456 237.948 860.456C238.972 860.456 239.74 860.221 240.252 859.752C240.806 859.24 241.169 858.536 241.34 857.64C241.553 856.701 241.66 855.613 241.66 854.376V852.136H248.316V853.544C248.316 857.256 247.526 860.179 245.948 862.312C244.369 864.445 241.681 865.512 237.884 865.512ZM233.788 842.92H241.66V839.592C241.66 838.056 241.574 836.776 241.404 835.752C241.233 834.685 240.87 833.896 240.316 833.384C239.804 832.829 238.972 832.552 237.82 832.552C236.71 832.552 235.857 832.808 235.26 833.32C234.705 833.832 234.321 834.707 234.108 835.944C233.894 837.139 233.788 838.803 233.788 840.936V842.92ZM254.581 865V828.008H261.429V831.656C262.666 830.504 264.032 829.523 265.525 828.712C267.018 827.901 268.661 827.496 270.453 827.496C271.946 827.496 273.077 827.88 273.845 828.648C274.656 829.416 275.21 830.376 275.509 831.528C275.85 832.68 276.021 833.853 276.021 835.048V865H269.173V837.032C269.173 835.709 268.981 834.685 268.597 833.96C268.213 833.235 267.424 832.872 266.229 832.872C265.461 832.872 264.65 833.107 263.797 833.576C262.986 834.003 262.197 834.536 261.429 835.176V865H254.581ZM292.562 865.512C290.642 865.512 289.085 865.149 287.89 864.424C286.738 863.699 285.885 862.675 285.33 861.352C284.818 860.029 284.562 858.472 284.562 856.68V832.552H280.658V828.008H284.562V817.192H291.41V828.008H297.362V832.552H291.41V856.232C291.41 857.683 291.645 858.728 292.114 859.368C292.583 859.965 293.479 860.264 294.802 860.264C295.143 860.264 295.527 860.243 295.954 860.2C296.423 860.157 296.871 860.115 297.298 860.072V865.128C296.445 865.256 295.655 865.341 294.93 865.384C294.205 865.469 293.415 865.512 292.562 865.512ZM317.211 865V828.008H324.059V833.256C325.424 830.995 326.789 829.48 328.155 828.712C329.52 827.944 330.885 827.56 332.251 827.56C332.421 827.56 332.571 827.56 332.699 827.56C332.869 827.56 333.083 827.581 333.339 827.624V835.176C332.827 834.963 332.229 834.792 331.547 834.664C330.907 834.493 330.245 834.408 329.562 834.408C328.496 834.408 327.515 834.664 326.619 835.176C325.765 835.645 324.912 836.584 324.059 837.992V865H317.211ZM342.893 865.512C341.442 865.512 340.312 865.128 339.501 864.36C338.69 863.592 338.114 862.632 337.773 861.48C337.474 860.328 337.325 859.155 337.325 857.96V828.008H344.173V855.912C344.173 857.235 344.365 858.28 344.749 859.048C345.133 859.773 345.922 860.136 347.117 860.136C347.885 860.136 348.674 859.923 349.485 859.496C350.338 859.027 351.149 858.472 351.917 857.832V828.008H358.765V865H351.917V861.352C350.722 862.504 349.357 863.485 347.821 864.296C346.328 865.107 344.685 865.512 342.893 865.512ZM365.769 865V828.008H372.617V831.656C373.854 830.504 375.219 829.523 376.713 828.712C378.206 827.901 379.849 827.496 381.641 827.496C383.134 827.496 384.265 827.88 385.033 828.648C385.843 829.416 386.398 830.376 386.697 831.528C387.038 832.68 387.209 833.853 387.209 835.048V865H380.361V837.032C380.361 835.709 380.169 834.685 379.785 833.96C379.4 833.235 378.611 832.872 377.417 832.872C376.649 832.872 375.838 833.107 374.985 833.576C374.174 834.003 373.385 834.536 372.617 835.176V865H365.769ZM402.47 865.512C399.44 865.512 397.008 864.573 395.174 862.696C393.339 860.776 392.294 858.259 392.038 855.144L397.734 853.416C398.075 855.763 398.651 857.533 399.462 858.728C400.272 859.88 401.467 860.456 403.046 860.456C404.283 860.456 405.222 860.115 405.862 859.432C406.502 858.707 406.822 857.747 406.822 856.552C406.822 855.485 406.587 854.525 406.118 853.672C405.648 852.819 404.88 851.944 403.814 851.048L397.478 845.608C396.198 844.499 395.11 843.261 394.214 841.896C393.36 840.531 392.934 838.76 392.934 836.584C392.934 834.621 393.318 832.979 394.086 831.656C394.896 830.291 396.006 829.267 397.414 828.584C398.864 827.859 400.55 827.496 402.47 827.496C405.542 827.496 407.888 828.456 409.51 830.376C411.131 832.253 412.07 834.536 412.326 837.224L407.462 838.952C407.291 837.672 407.035 836.563 406.694 835.624C406.352 834.643 405.862 833.896 405.222 833.384C404.582 832.829 403.75 832.552 402.726 832.552C401.616 832.552 400.72 832.936 400.038 833.704C399.398 834.429 399.078 835.304 399.078 836.328C399.078 836.968 399.206 837.608 399.462 838.248C399.76 838.845 400.251 839.443 400.934 840.04L407.462 846.056C408.358 846.867 409.19 847.741 409.958 848.68C410.768 849.619 411.43 850.685 411.942 851.88C412.454 853.075 412.71 854.461 412.71 856.04C412.71 858.131 412.283 859.88 411.43 861.288C410.576 862.696 409.382 863.763 407.846 864.488C406.31 865.171 404.518 865.512 402.47 865.512ZM442.312 865.512C440.392 865.512 438.835 865.149 437.64 864.424C436.488 863.699 435.635 862.675 435.08 861.352C434.568 860.029 434.312 858.472 434.312 856.68V832.552H430.408V828.008H434.312V817.192H441.16V828.008H447.112V832.552H441.16V856.232C441.16 857.683 441.395 858.728 441.864 859.368C442.333 859.965 443.229 860.264 444.552 860.264C444.893 860.264 445.277 860.243 445.704 860.2C446.173 860.157 446.621 860.115 447.048 860.072V865.128C446.195 865.256 445.405 865.341 444.68 865.384C443.955 865.469 443.165 865.512 442.312 865.512ZM452.336 865V813.16H459.184V831.848C460.421 830.653 461.808 829.629 463.344 828.776C464.88 827.923 466.586 827.496 468.464 827.496C469.914 827.496 471.024 827.88 471.792 828.648C472.602 829.416 473.157 830.376 473.456 831.528C473.797 832.68 473.968 833.853 473.968 835.048V865H467.12V837.032C467.12 835.709 466.928 834.685 466.544 833.96C466.16 833.235 465.37 832.872 464.176 832.872C463.365 832.872 462.512 833.107 461.616 833.576C460.762 834.045 459.952 834.621 459.184 835.304V865H452.336ZM480.836 865V828.008H487.684V833.256C489.049 830.995 490.414 829.48 491.78 828.712C493.145 827.944 494.51 827.56 495.876 827.56C496.046 827.56 496.196 827.56 496.324 827.56C496.494 827.56 496.708 827.581 496.964 827.624V835.176C496.452 834.963 495.854 834.792 495.172 834.664C494.532 834.493 493.87 834.408 493.188 834.408C492.121 834.408 491.14 834.664 490.244 835.176C489.39 835.645 488.537 836.584 487.684 837.992V865H480.836ZM511.195 865.512C508.464 865.512 506.309 864.957 504.731 863.848C503.152 862.739 502.021 861.16 501.339 859.112C500.699 857.064 500.379 854.653 500.379 851.88V841.128C500.379 838.355 500.699 835.944 501.339 833.896C502.021 831.848 503.152 830.269 504.731 829.16C506.309 828.051 508.464 827.496 511.195 827.496C513.925 827.496 516.059 828.051 517.595 829.16C519.173 830.269 520.283 831.848 520.923 833.896C521.605 835.944 521.947 838.355 521.947 841.128V851.88C521.947 854.653 521.605 857.064 520.923 859.112C520.283 861.16 519.173 862.739 517.595 863.848C516.059 864.957 513.925 865.512 511.195 865.512ZM511.195 860.456C512.517 860.456 513.435 860.072 513.947 859.304C514.501 858.536 514.821 857.533 514.907 856.296C515.035 855.016 515.099 853.693 515.099 852.328V840.744C515.099 839.336 515.035 838.013 514.907 836.776C514.821 835.539 514.501 834.536 513.947 833.768C513.435 832.957 512.517 832.552 511.195 832.552C509.872 832.552 508.933 832.957 508.379 833.768C507.824 834.536 507.483 835.539 507.355 836.776C507.269 838.013 507.227 839.336 507.227 840.744V852.328C507.227 853.693 507.269 855.016 507.355 856.296C507.483 857.533 507.824 858.536 508.379 859.304C508.933 860.072 509.872 860.456 511.195 860.456ZM533.518 865.512C532.067 865.512 530.937 865.128 530.126 864.36C529.315 863.592 528.739 862.632 528.398 861.48C528.099 860.328 527.95 859.155 527.95 857.96V828.008H534.798V855.912C534.798 857.235 534.99 858.28 535.374 859.048C535.758 859.773 536.547 860.136 537.742 860.136C538.51 860.136 539.299 859.923 540.11 859.496C540.963 859.027 541.774 858.472 542.542 857.832V828.008H549.39V865H542.542V861.352C541.347 862.504 539.982 863.485 538.446 864.296C536.953 865.107 535.31 865.512 533.518 865.512ZM566.186 876.584C563.924 876.584 561.876 876.328 560.042 875.816C558.25 875.347 556.82 874.6 555.754 873.576C554.73 872.552 554.218 871.208 554.218 869.544C554.218 868.264 554.516 867.133 555.114 866.152C555.711 865.213 556.479 864.403 557.418 863.72C558.356 863.037 559.338 862.504 560.362 862.12L563.562 862.568C563.007 863.08 562.474 863.613 561.962 864.168C561.45 864.68 561.023 865.213 560.682 865.768C560.34 866.365 560.17 867.005 560.17 867.688C560.17 868.797 560.639 869.629 561.578 870.184C562.559 870.739 564.287 871.016 566.762 871.016C569.194 871.016 570.986 870.717 572.138 870.12C573.332 869.565 573.93 868.669 573.93 867.432C573.93 866.664 573.78 866.024 573.482 865.512C573.183 865.043 572.671 864.659 571.946 864.36C571.22 864.061 570.175 863.848 568.81 863.72L560.746 862.696C559.082 862.483 557.844 861.949 557.034 861.096C556.223 860.243 555.818 859.304 555.818 858.28C555.818 856.744 556.244 855.443 557.098 854.376C557.994 853.309 559.188 852.115 560.682 850.792L562.986 852.584C562.73 852.925 562.41 853.416 562.026 854.056C561.642 854.653 561.45 855.251 561.45 855.848C561.45 856.317 561.684 856.701 562.154 857C562.666 857.299 563.455 857.491 564.522 857.576L570.73 858.152C573.631 858.408 575.786 859.283 577.194 860.776C578.602 862.269 579.306 864.403 579.306 867.176C579.306 869.224 578.815 870.952 577.834 872.36C576.895 873.768 575.466 874.813 573.546 875.496C571.626 876.221 569.172 876.584 566.186 876.584ZM566.442 853.608C563.924 853.608 561.876 853.053 560.298 851.944C558.719 850.835 557.546 849.299 556.778 847.336C556.052 845.373 555.69 843.133 555.69 840.616C555.69 837.757 556.095 835.368 556.906 833.448C557.716 831.485 558.911 830.013 560.49 829.032C562.111 828.008 564.095 827.496 566.442 827.496C568.874 827.496 570.858 828.115 572.394 829.352C573.93 830.547 575.06 832.147 575.786 834.152C576.511 836.157 576.874 838.376 576.874 840.808C576.874 843.325 576.532 845.565 575.85 847.528C575.21 849.448 574.122 850.941 572.586 852.008C571.092 853.075 569.044 853.608 566.442 853.608ZM566.442 848.68C567.38 848.68 568.127 848.509 568.682 848.168C569.236 847.784 569.642 847.251 569.898 846.568C570.196 845.885 570.388 845.053 570.474 844.072C570.602 843.048 570.666 841.896 570.666 840.616C570.666 839.336 570.623 838.184 570.538 837.16C570.452 836.136 570.26 835.283 569.962 834.6C569.663 833.875 569.236 833.32 568.682 832.936C568.127 832.552 567.402 832.36 566.506 832.36C565.567 832.36 564.799 832.552 564.202 832.936C563.647 833.277 563.199 833.811 562.858 834.536C562.559 835.219 562.346 836.072 562.218 837.096C562.132 838.12 562.09 839.293 562.09 840.616C562.09 841.768 562.132 842.835 562.218 843.816C562.346 844.797 562.559 845.651 562.858 846.376C563.156 847.101 563.583 847.677 564.138 848.104C564.735 848.488 565.503 848.68 566.442 848.68ZM575.594 834.216L573.994 831.656C574.335 831.059 575.103 830.312 576.298 829.416C577.492 828.52 578.772 827.773 580.138 827.176L581.93 831.656C581.332 831.784 580.522 832.019 579.498 832.36C578.516 832.701 577.62 833.064 576.81 833.448C575.999 833.789 575.594 834.045 575.594 834.216ZM584.836 865V813.16H591.684V831.848C592.921 830.653 594.308 829.629 595.844 828.776C597.38 827.923 599.086 827.496 600.964 827.496C602.414 827.496 603.524 827.88 604.292 828.648C605.102 829.416 605.657 830.376 605.956 831.528C606.297 832.68 606.468 833.853 606.468 835.048V865H599.62V837.032C599.62 835.709 599.428 834.685 599.044 833.96C598.66 833.235 597.87 832.872 596.676 832.872C595.865 832.872 595.012 833.107 594.116 833.576C593.262 834.045 592.452 834.621 591.684 835.304V865H584.836ZM627.193 874.28V869.032C628.857 869.032 630.179 868.947 631.161 868.776C632.142 868.648 632.846 868.371 633.273 867.944C633.699 867.56 633.913 867.005 633.913 866.28C633.913 865.896 633.763 865.043 633.465 863.72C633.166 862.397 632.846 860.989 632.505 859.496L625.081 828.008H631.993L636.985 855.656L641.785 828.008H648.697L639.865 867.048C639.481 868.84 638.777 870.248 637.753 871.272C636.729 872.339 635.406 873.107 633.785 873.576C632.206 874.045 630.286 874.28 628.025 874.28H627.193ZM663.007 865.512C660.276 865.512 658.122 864.957 656.543 863.848C654.964 862.739 653.834 861.16 653.151 859.112C652.511 857.064 652.191 854.653 652.191 851.88V841.128C652.191 838.355 652.511 835.944 653.151 833.896C653.834 831.848 654.964 830.269 656.543 829.16C658.122 828.051 660.276 827.496 663.007 827.496C665.738 827.496 667.871 828.051 669.407 829.16C670.986 830.269 672.095 831.848 672.735 833.896C673.418 835.944 673.759 838.355 673.759 841.128V851.88C673.759 854.653 673.418 857.064 672.735 859.112C672.095 861.16 670.986 862.739 669.407 863.848C667.871 864.957 665.738 865.512 663.007 865.512ZM663.007 860.456C664.33 860.456 665.247 860.072 665.759 859.304C666.314 858.536 666.634 857.533 666.719 856.296C666.847 855.016 666.911 853.693 666.911 852.328V840.744C666.911 839.336 666.847 838.013 666.719 836.776C666.634 835.539 666.314 834.536 665.759 833.768C665.247 832.957 664.33 832.552 663.007 832.552C661.684 832.552 660.746 832.957 660.191 833.768C659.636 834.536 659.295 835.539 659.167 836.776C659.082 838.013 659.039 839.336 659.039 840.744V852.328C659.039 853.693 659.082 855.016 659.167 856.296C659.295 857.533 659.636 858.536 660.191 859.304C660.746 860.072 661.684 860.456 663.007 860.456ZM685.331 865.512C683.88 865.512 682.749 865.128 681.939 864.36C681.128 863.592 680.552 862.632 680.211 861.48C679.912 860.328 679.763 859.155 679.763 857.96V828.008H686.611V855.912C686.611 857.235 686.803 858.28 687.187 859.048C687.571 859.773 688.36 860.136 689.555 860.136C690.323 860.136 691.112 859.923 691.923 859.496C692.776 859.027 693.587 858.472 694.355 857.832V828.008H701.203V865H694.355V861.352C693.16 862.504 691.795 863.485 690.259 864.296C688.765 865.107 687.123 865.512 685.331 865.512ZM707.886 865V857.384H714.734V865H707.886Z" fill="black"/>
<path d="M1657.27 1010.83L1833.27 1010.83L1921.27 1163.25L1833.27 1315.67L1657.27 1315.67L1569.27 1163.25L1657.27 1010.83Z" fill="#A1C559"/>
<path d="M1740.77 1164.86C1737.26 1164.86 1734.49 1162.75 1733.74 1159.38L1731.87 1151.22L1730.51 1150.75L1723.43 1155.11C1720.48 1156.94 1717.05 1156.52 1714.57 1154.03L1708.34 1147.85C1705.85 1145.31 1705.43 1141.89 1707.26 1138.99L1711.66 1131.91L1711.19 1130.64L1703.09 1128.77C1699.76 1128.02 1697.55 1125.2 1697.55 1121.74V1112.97C1697.55 1109.5 1699.71 1106.78 1703.09 1105.94L1711.1 1103.97L1711.62 1102.7L1707.21 1095.63C1705.38 1092.72 1705.76 1089.3 1708.29 1086.72L1714.52 1080.53C1716.96 1078.1 1720.38 1077.63 1723.34 1079.45L1730.41 1083.77L1731.87 1083.25L1733.74 1075.1C1734.49 1071.77 1737.26 1069.61 1740.77 1069.61H1749.73C1753.24 1069.61 1755.96 1071.77 1756.76 1075.1L1758.63 1083.25L1760.04 1083.77L1767.12 1079.45C1770.07 1077.63 1773.54 1078.1 1775.98 1080.53L1782.16 1086.72C1784.74 1089.3 1785.07 1092.72 1783.24 1095.63L1778.84 1102.7L1779.35 1103.97L1787.41 1105.94C1790.79 1106.78 1792.9 1109.5 1792.9 1112.97V1121.74C1792.9 1125.2 1790.74 1128.02 1787.41 1128.77L1779.3 1130.64L1778.79 1131.91L1783.24 1138.99C1785.02 1141.89 1784.65 1145.31 1782.12 1147.85L1775.93 1154.03C1773.44 1156.52 1769.98 1156.94 1767.02 1155.11L1759.94 1150.75L1758.63 1151.22L1756.76 1159.38C1755.96 1162.75 1753.24 1164.86 1749.73 1164.86H1740.77ZM1741.57 1157.6H1748.88C1749.68 1157.6 1750.01 1157.27 1750.15 1156.56L1752.82 1145.64C1755.59 1144.94 1758.12 1143.86 1760.09 1142.6L1769.74 1148.55C1770.26 1148.88 1770.87 1148.88 1771.38 1148.31L1776.4 1143.25C1776.96 1142.78 1776.96 1142.22 1776.59 1141.61L1770.68 1132.05C1771.8 1130.13 1772.93 1127.55 1773.63 1124.78L1784.65 1122.16C1785.3 1122.06 1785.63 1121.69 1785.63 1120.94V1113.77C1785.63 1112.97 1785.35 1112.64 1784.65 1112.45L1773.68 1109.83C1772.98 1106.92 1771.66 1104.3 1770.77 1102.52L1776.63 1092.95C1777.05 1092.35 1777.01 1091.78 1776.49 1091.27L1771.43 1086.3C1770.87 1085.78 1770.4 1085.74 1769.74 1086.06L1760.13 1091.92C1758.07 1090.8 1755.63 1089.63 1752.82 1088.97L1750.15 1077.91C1750.01 1077.2 1749.68 1076.92 1748.88 1076.92H1741.57C1740.82 1076.92 1740.44 1077.2 1740.35 1077.91L1737.73 1088.88C1735.01 1089.63 1732.24 1090.75 1730.27 1091.88L1720.76 1086.06C1720.05 1085.69 1719.59 1085.78 1719.02 1086.3L1713.96 1091.27C1713.44 1091.78 1713.44 1092.35 1713.82 1092.95L1719.73 1102.52C1718.84 1104.3 1717.52 1106.92 1716.82 1109.83L1705.85 1112.45C1705.15 1112.64 1704.87 1112.97 1704.87 1113.77V1120.94C1704.87 1121.69 1705.19 1122.06 1705.85 1122.16L1716.87 1124.78C1717.57 1127.55 1718.69 1130.08 1719.82 1132.05L1713.87 1141.66C1713.49 1142.27 1713.54 1142.78 1714.05 1143.25L1719.07 1148.31C1719.59 1148.88 1720.19 1148.92 1720.76 1148.55L1730.37 1142.6C1732.38 1143.86 1734.91 1144.94 1737.68 1145.64L1740.35 1156.56C1740.44 1157.27 1740.82 1157.6 1741.57 1157.6ZM1745.23 1134.11C1735.9 1134.11 1728.4 1126.56 1728.4 1117.24C1728.4 1107.91 1735.9 1100.36 1745.23 1100.36C1754.55 1100.36 1762.1 1107.91 1762.1 1117.24C1762.1 1126.56 1754.55 1134.11 1745.23 1134.11ZM1745.23 1126.99C1750.62 1126.99 1754.98 1122.63 1754.98 1117.24C1754.98 1111.85 1750.62 1107.49 1745.23 1107.49C1739.84 1107.49 1735.48 1111.85 1735.48 1117.24C1735.48 1122.63 1739.84 1126.99 1745.23 1126.99Z" fill="#1A3308"/>
<path d="M1670.9 1250.25L1681.91 1198.41H1688.88L1699.95 1250.25H1693.11L1690.74 1237.2H1680.18L1677.68 1250.25H1670.9ZM1681.14 1232.01H1689.78L1685.43 1208.65L1681.14 1232.01ZM1714.49 1250.76C1711.38 1250.76 1709.05 1249.63 1707.52 1247.37C1705.98 1245.07 1705.21 1241.18 1705.21 1235.72V1228.56C1705.21 1225.74 1705.45 1223.14 1705.92 1220.75C1706.39 1218.32 1707.26 1216.37 1708.54 1214.92C1709.86 1213.47 1711.78 1212.75 1714.3 1212.75C1715.54 1212.75 1716.67 1213.02 1717.69 1213.58C1718.72 1214.13 1719.64 1214.82 1720.45 1215.63V1198.41H1727.29V1250.25H1720.45V1247.88C1719.64 1248.74 1718.74 1249.44 1717.76 1250C1716.82 1250.51 1715.73 1250.76 1714.49 1250.76ZM1716.22 1245.39C1716.86 1245.39 1717.54 1245.28 1718.27 1245.07C1719 1244.81 1719.72 1244.45 1720.45 1243.98V1219.72C1719.85 1219.3 1719.19 1218.93 1718.46 1218.64C1717.74 1218.29 1716.95 1218.12 1716.09 1218.12C1714.52 1218.12 1713.45 1218.89 1712.89 1220.43C1712.34 1221.92 1712.06 1223.73 1712.06 1225.87V1236.3C1712.06 1238.01 1712.15 1239.56 1712.32 1240.97C1712.53 1242.34 1712.94 1243.42 1713.53 1244.24C1714.13 1245 1715.03 1245.39 1716.22 1245.39ZM1735.51 1250.25V1213.26H1741.85V1216.78C1743.08 1215.37 1744.45 1214.33 1745.94 1213.64C1747.44 1212.96 1748.97 1212.62 1750.55 1212.62C1751.92 1212.62 1753.13 1212.96 1754.2 1213.64C1755.31 1214.33 1756.1 1215.54 1756.57 1217.29C1757.89 1215.67 1759.32 1214.5 1760.85 1213.77C1762.43 1213 1764.08 1212.62 1765.78 1212.62C1766.98 1212.62 1768.06 1212.92 1769.05 1213.52C1770.03 1214.07 1770.82 1214.99 1771.41 1216.27C1772.01 1217.5 1772.31 1219.15 1772.31 1221.2V1250.25H1766.04V1221.64C1766.04 1219.85 1765.74 1218.66 1765.14 1218.06C1764.59 1217.42 1763.82 1217.1 1762.84 1217.1C1761.9 1217.1 1760.92 1217.38 1759.89 1217.93C1758.87 1218.44 1757.93 1219.17 1757.08 1220.11C1757.08 1220.28 1757.08 1220.45 1757.08 1220.62C1757.08 1220.79 1757.08 1220.98 1757.08 1221.2V1250.25H1750.81V1221.64C1750.81 1219.85 1750.51 1218.66 1749.91 1218.06C1749.36 1217.42 1748.59 1217.1 1747.61 1217.1C1746.67 1217.1 1745.69 1217.38 1744.66 1217.93C1743.68 1218.44 1742.74 1219.17 1741.85 1220.11V1250.25H1735.51ZM1780.74 1250.25V1213.26H1787.59V1250.25H1780.74ZM1780.74 1207.76V1200.59H1787.59V1207.76H1780.74ZM1796.2 1250.25V1213.26H1803.04V1216.91C1804.28 1215.76 1805.65 1214.77 1807.14 1213.96C1808.63 1213.15 1810.28 1212.75 1812.07 1212.75C1813.56 1212.75 1814.69 1213.13 1815.46 1213.9C1816.27 1214.67 1816.82 1215.63 1817.12 1216.78C1817.46 1217.93 1817.64 1219.1 1817.64 1220.3V1250.25H1810.79V1222.28C1810.79 1220.96 1810.6 1219.94 1810.21 1219.21C1809.83 1218.49 1809.04 1218.12 1807.84 1218.12C1807.08 1218.12 1806.26 1218.36 1805.41 1218.83C1804.6 1219.25 1803.81 1219.79 1803.04 1220.43V1250.25H1796.2Z" fill="#1A3308"/>
<path d="M1386 845.165L1562 845.165L1650 997.584L1562 1150L1386 1150L1298 997.584L1386 845.165Z" fill="#A1C559"/>
<path d="M1433.59 992.63C1424.22 992.63 1419.44 987.943 1419.44 978.662V932.208C1419.44 922.974 1424.22 918.287 1433.59 918.287H1445.83C1449.25 918.287 1450.38 917.583 1452.39 915.38L1455.95 911.49C1458.2 909.052 1460.5 907.74 1465.05 907.74H1482.72C1487.27 907.74 1489.56 909.052 1491.77 911.49L1495.33 915.38C1497.39 917.63 1498.47 918.287 1501.94 918.287H1514.45C1523.78 918.287 1528.56 922.974 1528.56 932.208V978.662C1528.56 987.943 1523.78 992.63 1514.45 992.63H1433.59ZM1433.83 984.99H1514.22C1518.48 984.99 1520.92 982.693 1520.92 978.193V932.724C1520.92 928.224 1518.48 925.927 1514.22 925.927H1499.92C1495.94 925.927 1493.78 925.224 1491.58 922.74L1488.11 918.896C1485.62 916.13 1484.31 915.38 1480.38 915.38H1467.34C1463.45 915.38 1462.14 916.13 1459.61 918.896L1456.14 922.74C1453.94 925.224 1451.83 925.927 1447.84 925.927H1433.83C1429.56 925.927 1427.12 928.224 1427.12 932.724V978.193C1427.12 982.693 1429.56 984.99 1433.83 984.99ZM1474 978.755C1460.64 978.755 1449.91 968.068 1449.91 954.615C1449.91 941.162 1460.64 930.427 1474 930.427C1487.41 930.427 1498.09 941.162 1498.09 954.615C1498.09 968.068 1487.41 978.755 1474 978.755ZM1507.33 942.005C1504.33 942.005 1501.84 939.521 1501.84 936.474C1501.84 933.474 1504.33 930.99 1507.33 930.99C1510.38 930.99 1512.86 933.474 1512.86 936.474C1512.86 939.521 1510.38 942.005 1507.33 942.005ZM1474 971.63C1483.42 971.63 1491.02 964.083 1491.02 954.615C1491.02 945.146 1483.42 937.552 1474 937.552C1464.62 937.552 1456.98 945.146 1456.98 954.615C1456.98 964.083 1464.62 971.63 1474 971.63Z" fill="#1A3308"/>
<path d="M1431.28 1084.58V1032.74H1438.52V1079.4H1451.76V1084.58H1431.28ZM1470.62 1085.16C1466.95 1085.16 1464.09 1084.39 1462.04 1082.86C1460.04 1081.32 1458.63 1079.25 1457.82 1076.65C1457.05 1074.04 1456.67 1071.14 1456.67 1067.94V1049.64C1456.67 1046.14 1457.05 1043.09 1457.82 1040.49C1458.63 1037.88 1460.04 1035.88 1462.04 1034.47C1464.09 1033.02 1466.95 1032.3 1470.62 1032.3C1473.86 1032.3 1476.42 1032.89 1478.3 1034.09C1480.22 1035.28 1481.58 1036.99 1482.39 1039.21C1483.25 1041.43 1483.67 1044.09 1483.67 1047.21V1051.3H1476.83V1047.66C1476.83 1045.74 1476.72 1044.05 1476.51 1042.6C1476.34 1041.11 1475.82 1039.95 1474.97 1039.14C1474.12 1038.33 1472.69 1037.93 1470.68 1037.93C1468.63 1037.93 1467.14 1038.38 1466.2 1039.27C1465.26 1040.12 1464.64 1041.36 1464.35 1042.98C1464.09 1044.56 1463.96 1046.42 1463.96 1048.55V1069.1C1463.96 1071.7 1464.18 1073.77 1464.6 1075.3C1465.03 1076.8 1465.73 1077.86 1466.71 1078.5C1467.7 1079.14 1469.02 1079.46 1470.68 1079.46C1472.64 1079.46 1474.05 1079.04 1474.91 1078.18C1475.76 1077.29 1476.29 1076.07 1476.51 1074.54C1476.72 1073 1476.83 1071.21 1476.83 1069.16V1065.32H1483.67V1069.16C1483.67 1072.32 1483.29 1075.11 1482.52 1077.54C1481.75 1079.93 1480.43 1081.81 1478.55 1083.18C1476.68 1084.5 1474.03 1085.16 1470.62 1085.16ZM1504.84 1085.16C1501.17 1085.16 1498.31 1084.39 1496.26 1082.86C1494.25 1081.32 1492.85 1079.25 1492.04 1076.65C1491.27 1074.04 1490.88 1071.14 1490.88 1067.94V1049.64C1490.88 1046.14 1491.27 1043.09 1492.04 1040.49C1492.85 1037.88 1494.25 1035.88 1496.26 1034.47C1498.31 1033.02 1501.17 1032.3 1504.84 1032.3C1508.08 1032.3 1510.64 1032.89 1512.52 1034.09C1514.44 1035.28 1515.8 1036.99 1516.61 1039.21C1517.46 1041.43 1517.89 1044.09 1517.89 1047.21V1051.3H1511.04V1047.66C1511.04 1045.74 1510.94 1044.05 1510.72 1042.6C1510.55 1041.11 1510.04 1039.95 1509.19 1039.14C1508.33 1038.33 1506.9 1037.93 1504.9 1037.93C1502.85 1037.93 1501.36 1038.38 1500.42 1039.27C1499.48 1040.12 1498.86 1041.36 1498.56 1042.98C1498.31 1044.56 1498.18 1046.42 1498.18 1048.55V1069.1C1498.18 1071.7 1498.39 1073.77 1498.82 1075.3C1499.25 1076.8 1499.95 1077.86 1500.93 1078.5C1501.91 1079.14 1503.24 1079.46 1504.9 1079.46C1506.86 1079.46 1508.27 1079.04 1509.12 1078.18C1509.98 1077.29 1510.51 1076.07 1510.72 1074.54C1510.94 1073 1511.04 1071.21 1511.04 1069.16V1065.32H1517.89V1069.16C1517.89 1072.32 1517.51 1075.11 1516.74 1077.54C1515.97 1079.93 1514.65 1081.81 1512.77 1083.18C1510.89 1084.5 1508.25 1085.16 1504.84 1085.16Z" fill="#1A3308"/>
<path d="M1657.27 1328.16L1833.27 1328.16L1921.27 1480.58L1833.27 1633L1657.27 1633L1569.27 1480.58L1657.27 1328.16Z" fill="#A1C559"/>
<path d="M1718.41 1472.96C1710.4 1472.96 1706.69 1469.21 1706.69 1461.24V1451.68C1706.69 1450.79 1706.46 1450.13 1705.8 1449.47L1699.05 1442.68C1693.38 1437.01 1693.38 1431.76 1699.05 1426.13L1705.8 1419.33C1706.46 1418.68 1706.69 1418.02 1706.69 1417.13V1407.57C1706.69 1399.51 1710.4 1395.8 1718.41 1395.8H1727.98C1728.87 1395.8 1729.52 1395.57 1730.18 1394.91L1736.98 1388.16C1742.65 1382.49 1747.85 1382.49 1753.52 1388.16L1760.32 1394.91C1760.98 1395.57 1761.63 1395.8 1762.52 1395.8H1772.09C1780.1 1395.8 1783.85 1399.55 1783.85 1407.57V1417.13C1783.85 1418.02 1784.09 1418.63 1784.74 1419.33L1791.49 1426.13C1797.12 1431.76 1797.16 1437.01 1791.49 1442.68L1784.74 1449.47C1784.09 1450.13 1783.85 1450.79 1783.85 1451.68V1461.24C1783.85 1469.26 1780.1 1472.96 1772.09 1472.96H1762.52C1761.63 1472.96 1761.02 1473.19 1760.32 1473.85L1753.52 1480.6C1747.9 1486.27 1742.65 1486.32 1736.98 1480.6L1730.18 1473.85C1729.52 1473.19 1728.87 1472.96 1727.98 1472.96H1718.41ZM1718.65 1465.6H1730.46C1731.77 1465.6 1732.8 1465.97 1733.79 1466.96L1742.04 1475.3C1744.85 1478.07 1745.65 1478.07 1748.46 1475.3L1756.76 1466.96C1757.74 1465.97 1758.73 1465.6 1760.09 1465.6H1771.9C1775.84 1465.6 1776.44 1464.99 1776.44 1461.05V1449.19C1776.44 1447.88 1776.87 1446.85 1777.85 1445.86L1786.15 1437.61C1788.91 1434.8 1788.91 1434.01 1786.15 1431.19L1777.85 1422.9C1776.87 1421.96 1776.44 1420.93 1776.44 1419.57V1407.76C1776.44 1403.82 1775.84 1403.21 1771.9 1403.21H1760.09C1758.73 1403.21 1757.69 1402.83 1756.76 1401.8L1748.46 1393.51C1745.65 1390.74 1744.85 1390.74 1742.04 1393.51L1733.79 1401.8C1732.8 1402.83 1731.77 1403.21 1730.46 1403.21H1718.65C1714.62 1403.21 1714.05 1403.77 1714.05 1407.76V1419.57C1714.05 1420.93 1713.63 1421.96 1712.69 1422.9L1704.4 1431.19C1701.59 1434.01 1701.59 1434.8 1704.4 1437.61L1712.69 1445.86C1713.63 1446.85 1714.05 1447.88 1714.05 1449.19V1461.05C1714.05 1464.99 1714.71 1465.6 1718.65 1465.6ZM1740.49 1455.43C1738.94 1455.43 1737.73 1454.82 1736.6 1453.32L1725.87 1440.19C1725.21 1439.35 1724.84 1438.36 1724.84 1437.38C1724.84 1435.32 1726.38 1433.72 1728.4 1433.72C1729.66 1433.72 1730.65 1434.15 1731.73 1435.51L1740.3 1446.57L1758.4 1417.51C1759.24 1416.15 1760.41 1415.44 1761.63 1415.44C1763.55 1415.44 1765.38 1416.76 1765.38 1418.82C1765.38 1419.8 1764.82 1420.83 1764.3 1421.72L1744.15 1453.32C1743.26 1454.72 1741.99 1455.43 1740.49 1455.43Z" fill="#1A3308"/>
<path d="M1637.85 1567.58L1648.86 1515.74H1655.84L1666.91 1567.58H1660.06L1657.69 1554.53H1647.13L1644.64 1567.58H1637.85ZM1648.09 1549.34H1656.73L1652.38 1525.98L1648.09 1549.34ZM1672.87 1579.74V1530.59H1679.72V1533.54C1680.53 1532.6 1681.51 1531.79 1682.66 1531.1C1683.82 1530.42 1685.18 1530.08 1686.76 1530.08C1688.68 1530.08 1690.2 1530.59 1691.3 1531.62C1692.46 1532.6 1693.31 1533.86 1693.86 1535.39C1694.42 1536.88 1694.78 1538.42 1694.95 1540C1695.12 1541.54 1695.21 1542.86 1695.21 1543.97V1552.93C1695.21 1555.53 1694.95 1558 1694.44 1560.35C1693.93 1562.66 1692.99 1564.53 1691.62 1565.98C1690.3 1567.39 1688.42 1568.1 1685.99 1568.1C1684.67 1568.1 1683.5 1567.78 1682.47 1567.14C1681.45 1566.45 1680.53 1565.68 1679.72 1564.83V1579.74H1672.87ZM1684.65 1562.72C1685.84 1562.72 1686.7 1562.29 1687.21 1561.44C1687.72 1560.54 1688.04 1559.35 1688.17 1557.86C1688.3 1556.36 1688.36 1554.72 1688.36 1552.93V1543.97C1688.36 1542.43 1688.28 1541.02 1688.1 1539.74C1687.93 1538.42 1687.57 1537.38 1687.02 1536.61C1686.46 1535.84 1685.59 1535.46 1684.39 1535.46C1683.5 1535.46 1682.64 1535.65 1681.83 1536.03C1681.02 1536.42 1680.32 1536.86 1679.72 1537.38V1561.06C1680.36 1561.52 1681.09 1561.93 1681.9 1562.27C1682.71 1562.57 1683.62 1562.72 1684.65 1562.72ZM1702.72 1579.74V1530.59H1709.56V1533.54C1710.37 1532.6 1711.36 1531.79 1712.51 1531.1C1713.66 1530.42 1715.02 1530.08 1716.6 1530.08C1718.52 1530.08 1720.04 1530.59 1721.15 1531.62C1722.3 1532.6 1723.15 1533.86 1723.71 1535.39C1724.26 1536.88 1724.62 1538.42 1724.8 1540C1724.97 1541.54 1725.05 1542.86 1725.05 1543.97V1552.93C1725.05 1555.53 1724.8 1558 1724.28 1560.35C1723.77 1562.66 1722.83 1564.53 1721.47 1565.98C1720.14 1567.39 1718.27 1568.1 1715.84 1568.1C1714.51 1568.1 1713.34 1567.78 1712.32 1567.14C1711.29 1566.45 1710.37 1565.68 1709.56 1564.83V1579.74H1702.72ZM1714.49 1562.72C1715.69 1562.72 1716.54 1562.29 1717.05 1561.44C1717.56 1560.54 1717.88 1559.35 1718.01 1557.86C1718.14 1556.36 1718.2 1554.72 1718.2 1552.93V1543.97C1718.2 1542.43 1718.12 1541.02 1717.95 1539.74C1717.78 1538.42 1717.41 1537.38 1716.86 1536.61C1716.3 1535.84 1715.43 1535.46 1714.24 1535.46C1713.34 1535.46 1712.49 1535.65 1711.68 1536.03C1710.86 1536.42 1710.16 1536.86 1709.56 1537.38V1561.06C1710.2 1561.52 1710.93 1561.93 1711.74 1562.27C1712.55 1562.57 1713.47 1562.72 1714.49 1562.72ZM1732.75 1567.58V1530.59H1739.6V1535.84C1740.96 1533.58 1742.33 1532.06 1743.69 1531.3C1745.06 1530.53 1746.42 1530.14 1747.79 1530.14C1747.96 1530.14 1748.11 1530.14 1748.24 1530.14C1748.41 1530.14 1748.62 1530.16 1748.88 1530.21V1537.76C1748.37 1537.55 1747.77 1537.38 1747.09 1537.25C1746.45 1537.08 1745.78 1536.99 1745.1 1536.99C1744.04 1536.99 1743.05 1537.25 1742.16 1537.76C1741.3 1538.23 1740.45 1539.17 1739.6 1540.58V1567.58H1732.75ZM1764.39 1568.1C1761.66 1568.1 1759.5 1567.54 1757.92 1566.43C1756.35 1565.32 1755.22 1563.74 1754.53 1561.7C1753.89 1559.65 1753.57 1557.24 1753.57 1554.46V1543.71C1753.57 1540.94 1753.89 1538.53 1754.53 1536.48C1755.22 1534.43 1756.35 1532.85 1757.92 1531.74C1759.5 1530.63 1761.66 1530.08 1764.39 1530.08C1767.12 1530.08 1769.25 1530.63 1770.79 1531.74C1772.37 1532.85 1773.48 1534.43 1774.12 1536.48C1774.8 1538.53 1775.14 1540.94 1775.14 1543.71V1554.46C1775.14 1557.24 1774.8 1559.65 1774.12 1561.7C1773.48 1563.74 1772.37 1565.32 1770.79 1566.43C1769.25 1567.54 1767.12 1568.1 1764.39 1568.1ZM1764.39 1563.04C1765.71 1563.04 1766.63 1562.66 1767.14 1561.89C1767.7 1561.12 1768.02 1560.12 1768.1 1558.88C1768.23 1557.6 1768.29 1556.28 1768.29 1554.91V1543.33C1768.29 1541.92 1768.23 1540.6 1768.1 1539.36C1768.02 1538.12 1767.7 1537.12 1767.14 1536.35C1766.63 1535.54 1765.71 1535.14 1764.39 1535.14C1763.07 1535.14 1762.13 1535.54 1761.57 1536.35C1761.02 1537.12 1760.68 1538.12 1760.55 1539.36C1760.46 1540.6 1760.42 1541.92 1760.42 1543.33V1554.91C1760.42 1556.28 1760.46 1557.6 1760.55 1558.88C1760.68 1560.12 1761.02 1561.12 1761.57 1561.89C1762.13 1562.66 1763.07 1563.04 1764.39 1563.04ZM1787.48 1567.58L1780.18 1530.59H1787.1L1791.64 1560.35L1796.25 1530.59H1802.9L1795.86 1567.58H1787.48ZM1818.83 1568.1C1815.92 1568.1 1813.68 1567.54 1812.11 1566.43C1810.53 1565.28 1809.42 1563.62 1808.78 1561.44C1808.18 1559.22 1807.88 1556.51 1807.88 1553.31V1544.86C1807.88 1541.58 1808.2 1538.85 1808.84 1536.67C1809.48 1534.5 1810.59 1532.85 1812.17 1531.74C1813.79 1530.63 1816.01 1530.08 1818.83 1530.08C1821.94 1530.08 1824.22 1530.72 1825.67 1532C1827.17 1533.28 1828.15 1535.14 1828.62 1537.57C1829.09 1539.96 1829.32 1542.84 1829.32 1546.21V1549.22H1814.73V1556.64C1814.73 1558.13 1814.86 1559.35 1815.11 1560.29C1815.41 1561.23 1815.86 1561.93 1816.46 1562.4C1817.1 1562.83 1817.91 1563.04 1818.89 1563.04C1819.91 1563.04 1820.68 1562.8 1821.19 1562.34C1821.75 1561.82 1822.11 1561.12 1822.28 1560.22C1822.49 1559.28 1822.6 1558.2 1822.6 1556.96V1554.72H1829.26V1556.13C1829.26 1559.84 1828.47 1562.76 1826.89 1564.9C1825.31 1567.03 1822.62 1568.1 1818.83 1568.1ZM1814.73 1545.5H1822.6V1542.18C1822.6 1540.64 1822.52 1539.36 1822.35 1538.34C1822.17 1537.27 1821.81 1536.48 1821.26 1535.97C1820.75 1535.41 1819.91 1535.14 1818.76 1535.14C1817.65 1535.14 1816.8 1535.39 1816.2 1535.9C1815.65 1536.42 1815.26 1537.29 1815.05 1538.53C1814.84 1539.72 1814.73 1541.39 1814.73 1543.52V1545.5ZM1836.99 1567.58V1530.59H1843.84V1535.84C1845.21 1533.58 1846.57 1532.06 1847.94 1531.3C1849.3 1530.53 1850.67 1530.14 1852.03 1530.14C1852.21 1530.14 1852.35 1530.14 1852.48 1530.14C1852.65 1530.14 1852.87 1530.16 1853.12 1530.21V1537.76C1852.61 1537.55 1852.01 1537.38 1851.33 1537.25C1850.69 1537.08 1850.03 1536.99 1849.35 1536.99C1848.28 1536.99 1847.3 1537.25 1846.4 1537.76C1845.55 1538.23 1844.7 1539.17 1843.84 1540.58V1567.58H1836.99Z" fill="#1A3308"/>
<path d="M1384 1489.16L1560 1489.16L1648 1641.58L1560 1794L1384 1794L1296 1641.58L1384 1489.16Z" fill="#A1C559"/>
<path d="M1441.48 1638.79C1439.61 1637.33 1439.23 1634.99 1440.36 1631.66L1449.55 1604.24L1426.02 1587.32C1423.2 1585.35 1422.03 1583.15 1422.78 1580.9C1423.53 1578.65 1425.69 1577.52 1429.2 1577.57L1458.08 1577.76L1466.84 1550.19C1467.97 1546.82 1469.61 1545.08 1472 1545.08C1474.39 1545.08 1476.08 1546.82 1477.16 1550.19L1485.92 1577.76L1514.8 1577.57C1518.31 1577.52 1520.47 1578.65 1521.22 1580.9C1522.02 1583.15 1520.84 1585.35 1517.98 1587.32L1494.45 1604.24L1503.69 1631.66C1504.81 1634.99 1504.39 1637.33 1502.52 1638.79C1500.55 1640.24 1498.16 1639.77 1495.34 1637.71L1472 1620.55L1448.66 1637.71C1445.84 1639.77 1443.45 1640.24 1441.48 1638.79ZM1448.38 1629.41C1448.47 1629.51 1448.56 1629.41 1448.8 1629.32L1469.66 1613.29C1471.2 1612.11 1472.8 1612.11 1474.34 1613.29L1495.25 1629.32C1495.44 1629.41 1495.58 1629.51 1495.62 1629.41C1495.72 1629.27 1495.67 1629.22 1495.62 1628.99L1486.95 1604.15C1486.3 1602.27 1486.62 1600.91 1488.31 1599.74L1509.97 1584.83C1510.16 1584.69 1510.25 1584.6 1510.2 1584.46C1510.16 1584.36 1510.06 1584.36 1509.78 1584.36L1483.48 1584.83C1481.52 1584.93 1480.34 1584.18 1479.78 1582.21L1472.28 1557.04C1472.19 1556.76 1472.14 1556.66 1472 1556.66C1471.86 1556.66 1471.81 1556.76 1471.77 1557.04L1464.27 1582.21C1463.66 1584.18 1462.48 1584.93 1460.52 1584.83L1434.22 1584.36C1433.94 1584.36 1433.84 1584.36 1433.8 1584.46C1433.75 1584.6 1433.84 1584.69 1434.03 1584.83L1455.69 1599.74C1457.42 1600.91 1457.7 1602.27 1457.05 1604.15L1448.38 1628.99C1448.33 1629.22 1448.28 1629.27 1448.38 1629.41Z" fill="#1A3308"/>
<path d="M1409.62 1728.58V1682.12H1400.85V1676.74H1425.37V1682.12H1416.85V1728.58H1409.62ZM1432.45 1729.1C1431 1729.1 1429.72 1728.69 1428.61 1727.88C1427.5 1727.03 1426.62 1725.96 1425.98 1724.68C1425.34 1723.36 1425.02 1721.97 1425.02 1720.52C1425.02 1718.22 1425.41 1716.27 1426.18 1714.7C1426.94 1713.12 1427.99 1711.79 1429.31 1710.73C1430.68 1709.62 1432.23 1708.66 1433.98 1707.85C1435.78 1707.04 1437.65 1706.25 1439.62 1705.48V1702.86C1439.62 1701.36 1439.53 1700.12 1439.36 1699.14C1439.19 1698.16 1438.83 1697.44 1438.27 1696.97C1437.76 1696.46 1436.97 1696.2 1435.9 1696.2C1434.97 1696.2 1434.2 1696.41 1433.6 1696.84C1433.05 1697.27 1432.64 1697.88 1432.38 1698.7C1432.13 1699.46 1432 1700.38 1432 1701.45V1703.3L1425.22 1703.05C1425.3 1698.95 1426.24 1695.94 1428.03 1694.02C1429.82 1692.06 1432.6 1691.08 1436.35 1691.08C1440.02 1691.08 1442.62 1692.08 1444.16 1694.09C1445.7 1696.09 1446.46 1698.99 1446.46 1702.79V1719.69C1446.46 1720.84 1446.49 1721.95 1446.53 1723.02C1446.61 1724.08 1446.7 1725.08 1446.78 1726.02C1446.91 1726.92 1447.02 1727.77 1447.1 1728.58H1440.83C1440.7 1727.9 1440.53 1727.05 1440.32 1726.02C1440.15 1724.96 1440.02 1724 1439.94 1723.14C1439.51 1724.59 1438.68 1725.96 1437.44 1727.24C1436.25 1728.48 1434.58 1729.1 1432.45 1729.1ZM1435.14 1723.21C1435.82 1723.21 1436.46 1723.02 1437.06 1722.63C1437.65 1722.25 1438.19 1721.82 1438.66 1721.35C1439.13 1720.84 1439.45 1720.43 1439.62 1720.14V1709.64C1438.55 1710.24 1437.55 1710.83 1436.61 1711.43C1435.67 1712.03 1434.84 1712.67 1434.11 1713.35C1433.43 1713.99 1432.87 1714.74 1432.45 1715.59C1432.06 1716.4 1431.87 1717.34 1431.87 1718.41C1431.87 1719.9 1432.15 1721.07 1432.7 1721.93C1433.26 1722.78 1434.07 1723.21 1435.14 1723.21ZM1454.99 1728.58V1676.74H1461.84V1728.58H1454.99ZM1480.49 1729.1C1477.59 1729.1 1475.35 1728.54 1473.77 1727.43C1472.19 1726.28 1471.08 1724.62 1470.44 1722.44C1469.85 1720.22 1469.55 1717.51 1469.55 1714.31V1705.86C1469.55 1702.58 1469.87 1699.85 1470.51 1697.67C1471.15 1695.5 1472.26 1693.85 1473.84 1692.74C1475.46 1691.63 1477.68 1691.08 1480.49 1691.08C1483.61 1691.08 1485.89 1691.72 1487.34 1693C1488.83 1694.28 1489.81 1696.14 1490.28 1698.57C1490.75 1700.96 1490.99 1703.84 1490.99 1707.21V1710.22H1476.4V1717.64C1476.4 1719.13 1476.52 1720.35 1476.78 1721.29C1477.08 1722.23 1477.53 1722.93 1478.12 1723.4C1478.76 1723.83 1479.57 1724.04 1480.56 1724.04C1481.58 1724.04 1482.35 1723.8 1482.86 1723.34C1483.41 1722.82 1483.78 1722.12 1483.95 1721.22C1484.16 1720.28 1484.27 1719.2 1484.27 1717.96V1715.72H1490.92V1717.13C1490.92 1720.84 1490.13 1723.76 1488.56 1725.9C1486.98 1728.03 1484.29 1729.1 1480.49 1729.1ZM1476.4 1706.5H1484.27V1703.18C1484.27 1701.64 1484.18 1700.36 1484.01 1699.34C1483.84 1698.27 1483.48 1697.48 1482.92 1696.97C1482.41 1696.41 1481.58 1696.14 1480.43 1696.14C1479.32 1696.14 1478.47 1696.39 1477.87 1696.9C1477.31 1697.42 1476.93 1698.29 1476.72 1699.53C1476.5 1700.72 1476.4 1702.39 1476.4 1704.52V1706.5ZM1498.47 1728.58V1691.59H1505.32V1695.24C1506.56 1694.09 1507.92 1693.11 1509.41 1692.3C1510.91 1691.48 1512.55 1691.08 1514.34 1691.08C1515.84 1691.08 1516.97 1691.46 1517.73 1692.23C1518.54 1693 1519.1 1693.96 1519.4 1695.11C1519.74 1696.26 1519.91 1697.44 1519.91 1698.63V1728.58H1513.06V1700.62C1513.06 1699.29 1512.87 1698.27 1512.49 1697.54C1512.1 1696.82 1511.31 1696.46 1510.12 1696.46C1509.35 1696.46 1508.54 1696.69 1507.69 1697.16C1506.88 1697.59 1506.09 1698.12 1505.32 1698.76V1728.58H1498.47ZM1537.73 1729.1C1535.81 1729.1 1534.25 1728.73 1533.06 1728.01C1531.91 1727.28 1531.05 1726.26 1530.5 1724.94C1529.99 1723.61 1529.73 1722.06 1529.73 1720.26V1696.14H1525.83V1691.59H1529.73V1680.78H1536.58V1691.59H1542.53V1696.14H1536.58V1719.82C1536.58 1721.27 1536.81 1722.31 1537.28 1722.95C1537.75 1723.55 1538.65 1723.85 1539.97 1723.85C1540.31 1723.85 1540.7 1723.83 1541.12 1723.78C1541.59 1723.74 1542.04 1723.7 1542.47 1723.66V1728.71C1541.61 1728.84 1540.82 1728.92 1540.1 1728.97C1539.37 1729.05 1538.58 1729.1 1537.73 1729.1Z" fill="#1A3308"/>
<path d="M1106 1328.16L1282 1328.16L1370 1480.58L1282 1633L1106 1633L1018 1480.58L1106 1328.16Z" fill="#A1C559"/>
<path d="M1149.7 1422.01C1149.7 1406.16 1160.62 1394.96 1175.06 1394.96C1183.36 1394.96 1190.06 1398.9 1194 1404.85C1197.98 1398.85 1204.64 1394.96 1212.94 1394.96C1227.38 1394.96 1238.3 1406.16 1238.3 1422.01C1238.3 1440.94 1222.45 1459.55 1197.52 1475.54C1196.44 1476.24 1194.98 1476.9 1194 1476.9C1193.02 1476.9 1191.56 1476.24 1190.48 1475.54C1165.55 1459.55 1149.7 1440.94 1149.7 1422.01ZM1157.44 1422.01C1157.44 1438.27 1174.5 1455.9 1193.11 1468.27C1193.53 1468.55 1193.81 1468.74 1194 1468.74C1194.19 1468.74 1194.47 1468.55 1194.89 1468.27C1213.5 1455.9 1230.56 1438.27 1230.56 1422.01C1230.56 1410.43 1223.02 1402.65 1212.84 1402.65C1204.64 1402.65 1200.09 1407.8 1197.09 1412.11C1195.78 1413.85 1195.08 1414.41 1194 1414.41C1192.92 1414.41 1192.12 1413.9 1190.91 1412.11C1188.09 1407.76 1183.41 1402.65 1175.16 1402.65C1164.98 1402.65 1157.44 1410.43 1157.44 1422.01Z" fill="#1A3308"/>
<path d="M1145.08 1567.58V1515.74H1165.11V1520.93H1152.31V1538.21H1162.23V1543.33H1152.31V1567.58H1145.08ZM1175.17 1568.1C1173.71 1568.1 1172.43 1567.69 1171.33 1566.88C1170.22 1566.03 1169.34 1564.96 1168.7 1563.68C1168.06 1562.36 1167.74 1560.97 1167.74 1559.52C1167.74 1557.22 1168.13 1555.27 1168.89 1553.7C1169.66 1552.12 1170.71 1550.79 1172.03 1549.73C1173.39 1548.62 1174.95 1547.66 1176.7 1546.85C1178.49 1546.04 1180.37 1545.25 1182.33 1544.48V1541.86C1182.33 1540.36 1182.25 1539.12 1182.08 1538.14C1181.91 1537.16 1181.54 1536.44 1180.99 1535.97C1180.48 1535.46 1179.69 1535.2 1178.62 1535.2C1177.68 1535.2 1176.91 1535.41 1176.32 1535.84C1175.76 1536.27 1175.36 1536.88 1175.1 1537.7C1174.85 1538.46 1174.72 1539.38 1174.72 1540.45V1542.3L1167.93 1542.05C1168.02 1537.95 1168.96 1534.94 1170.75 1533.02C1172.54 1531.06 1175.31 1530.08 1179.07 1530.08C1182.74 1530.08 1185.34 1531.08 1186.88 1533.09C1188.41 1535.09 1189.18 1537.99 1189.18 1541.79V1558.69C1189.18 1559.84 1189.2 1560.95 1189.25 1562.02C1189.33 1563.08 1189.42 1564.08 1189.5 1565.02C1189.63 1565.92 1189.74 1566.77 1189.82 1567.58H1183.55C1183.42 1566.9 1183.25 1566.05 1183.04 1565.02C1182.87 1563.96 1182.74 1563 1182.65 1562.14C1182.23 1563.59 1181.39 1564.96 1180.16 1566.24C1178.96 1567.48 1177.3 1568.1 1175.17 1568.1ZM1177.85 1562.21C1178.54 1562.21 1179.18 1562.02 1179.77 1561.63C1180.37 1561.25 1180.9 1560.82 1181.37 1560.35C1181.84 1559.84 1182.16 1559.43 1182.33 1559.14V1548.64C1181.27 1549.24 1180.26 1549.83 1179.33 1550.43C1178.39 1551.03 1177.55 1551.67 1176.83 1552.35C1176.15 1552.99 1175.59 1553.74 1175.17 1554.59C1174.78 1555.4 1174.59 1556.34 1174.59 1557.41C1174.59 1558.9 1174.87 1560.07 1175.42 1560.93C1175.98 1561.78 1176.79 1562.21 1177.85 1562.21ZM1197.06 1567.58V1530.59H1203.91V1534.24C1205.15 1533.09 1206.52 1532.11 1208.01 1531.3C1209.5 1530.48 1211.14 1530.08 1212.94 1530.08C1214.43 1530.08 1215.56 1530.46 1216.33 1531.23C1217.14 1532 1217.69 1532.96 1217.99 1534.11C1218.33 1535.26 1218.5 1536.44 1218.5 1537.63V1567.58H1211.66V1539.62C1211.66 1538.29 1211.46 1537.27 1211.08 1536.54C1210.7 1535.82 1209.91 1535.46 1208.71 1535.46C1207.94 1535.46 1207.13 1535.69 1206.28 1536.16C1205.47 1536.59 1204.68 1537.12 1203.91 1537.76V1567.58H1197.06ZM1235.05 1568.1C1232.02 1568.1 1229.58 1567.16 1227.75 1565.28C1225.92 1563.36 1224.87 1560.84 1224.61 1557.73L1230.31 1556C1230.65 1558.35 1231.23 1560.12 1232.04 1561.31C1232.85 1562.46 1234.04 1563.04 1235.62 1563.04C1236.86 1563.04 1237.8 1562.7 1238.44 1562.02C1239.08 1561.29 1239.4 1560.33 1239.4 1559.14C1239.4 1558.07 1239.16 1557.11 1238.69 1556.26C1238.22 1555.4 1237.46 1554.53 1236.39 1553.63L1230.05 1548.19C1228.77 1547.08 1227.69 1545.84 1226.79 1544.48C1225.94 1543.11 1225.51 1541.34 1225.51 1539.17C1225.51 1537.2 1225.89 1535.56 1226.66 1534.24C1227.47 1532.87 1228.58 1531.85 1229.99 1531.17C1231.44 1530.44 1233.13 1530.08 1235.05 1530.08C1238.12 1530.08 1240.46 1531.04 1242.09 1532.96C1243.71 1534.84 1244.65 1537.12 1244.9 1539.81L1240.04 1541.54C1239.87 1540.26 1239.61 1539.15 1239.27 1538.21C1238.93 1537.23 1238.44 1536.48 1237.8 1535.97C1237.16 1535.41 1236.33 1535.14 1235.3 1535.14C1234.19 1535.14 1233.3 1535.52 1232.61 1536.29C1231.97 1537.01 1231.65 1537.89 1231.65 1538.91C1231.65 1539.55 1231.78 1540.19 1232.04 1540.83C1232.34 1541.43 1232.83 1542.03 1233.51 1542.62L1240.04 1548.64C1240.93 1549.45 1241.77 1550.32 1242.53 1551.26C1243.34 1552.2 1244.01 1553.27 1244.52 1554.46C1245.03 1555.66 1245.29 1557.04 1245.29 1558.62C1245.29 1560.71 1244.86 1562.46 1244.01 1563.87C1243.15 1565.28 1241.96 1566.35 1240.42 1567.07C1238.89 1567.75 1237.09 1568.1 1235.05 1568.1Z" fill="#1A3308"/>
<path d="M1096.95 1300.23C1097.91 1301.91 1100.04 1302.5 1101.73 1301.55C1103.41 1300.59 1104 1298.46 1103.05 1296.77L1100 1298.5L1096.95 1300.23ZM1015 1148.5L1011.94 1146.8L1010.99 1148.52L1011.95 1150.23L1015 1148.5ZM1098 999V995.5H1095.94L1094.94 997.301L1098 999ZM1283.47 1001.47C1284.84 1000.11 1284.84 997.892 1283.47 996.525L1261.2 974.251C1259.83 972.884 1257.62 972.884 1256.25 974.251C1254.88 975.618 1254.88 977.834 1256.25 979.201L1276.05 999L1256.25 1018.8C1254.88 1020.17 1254.88 1022.38 1256.25 1023.75C1257.62 1025.12 1259.83 1025.12 1261.2 1023.75L1283.47 1001.47ZM1100 1298.5L1103.05 1296.77L1018.05 1146.77L1015 1148.5L1011.95 1150.23L1096.95 1300.23L1100 1298.5ZM1015 1148.5L1018.06 1150.2L1101.06 1000.7L1098 999L1094.94 997.301L1011.94 1146.8L1015 1148.5ZM1098 999V1002.5H1281V999V995.5H1098V999Z" fill="#477C1B"/>
<defs>
<clipPath id="clip0_13150_4981">
<rect width="287" height="70" fill="white" transform="translate(1651 1883)"/>
</clipPath>
</defs>
</svg>
