<?xml version="1.0" encoding="UTF-8"?>
<svg id="Layer_1" data-name="Layer 1" xmlns="http://www.w3.org/2000/svg" viewBox="0 0 83 90">
  <path d="M41.84,14.71c-1.8,0-3.3,1.4-3.3,3.2v.4c-4.2-3.3-9.4-4.9-14.7-4.6C4.44,13.71,2.64,19.81,2.64,28.61v27.5c0,9,2.1,14.9,21.2,14.9,5.2.2,10.4-1.4,14.6-4.5v6.4c0,6.8-.7,10.5-14.6,10.5s-14-2.9-14.3-8.4c-.1-1.8-1.6-3.1-3.4-3.1-1.7-.1-3.2,1.2-3.3,2.9v.8c.3,7.9,2.9,13,21,13s21.3-6,21.3-14.9V17.91c0-1.8-1.5-3.2-3.3-3.2ZM38.34,55.41c0,6.8-.7,10.4-14.6,10.4s-14.5-3.6-14.5-10.4v-25.8c0-6.8.7-10.3,14.5-10.3s14.6,3.6,14.6,10.3v25.8Z"/>
  <path d="M79.94,23.91c0,1.5-1.2,2.8-2.7,2.9h-18.3v39.9c.2,1.8-1.2,3.5-3,3.6-1.8.2-3.5-1.2-3.6-3V15.71c0-8.9,1.5-14.3,16.4-14.3h8.6c1.5-.2,2.8.8,3,2.3.2,1.5-.8,2.8-2.3,3h-9.1c-8.9,0-9.7,2.9-9.7,9.8v4.3h18.3c1.5.2,2.6,1.4,2.5,2.9v.2h-.1Z"/>
</svg>