<svg width="114" height="114" viewBox="0 0 114 114" fill="none" xmlns="http://www.w3.org/2000/svg">
<path d="M56.7031 110.203C86.2501 110.203 110.203 86.2501 110.203 56.7031C110.203 27.1561 86.2501 3.20312 56.7031 3.20312C27.1561 3.20312 3.20312 27.1561 3.20312 56.7031C3.20312 86.2501 27.1561 110.203 56.7031 110.203Z" fill="black"/>
<path d="M56.8475 70.7436C55.8495 72.2426 54.8525 73.5756 53.6885 74.9076C52.1085 76.8236 50.4455 78.6556 48.6995 80.4046C50.5285 84.4026 53.3555 88.7346 56.8475 88.7346V88.6506C60.2565 88.6506 63.1665 84.3196 64.9125 80.3216C63.3325 78.6556 61.5865 76.8236 59.9235 74.8246C58.8425 73.5756 57.7625 72.1596 56.8475 70.7436Z" fill="#B6F500"/>
<path d="M43.7113 29.1812C44.3763 29.7642 45.1243 30.3472 45.8733 30.7642C46.3713 31.0142 46.8703 31.1802 47.3693 31.2632C48.2843 31.2632 50.1133 28.3482 50.5293 24.5172C50.7783 21.9352 50.2793 20.4362 49.6973 20.2692C49.1153 20.0192 48.5333 20.0192 47.9513 20.0192L48.0343 19.9362C45.2073 19.6862 42.6303 21.6022 41.9653 24.3502C41.7993 24.6832 41.7993 25.0172 41.7993 25.3502C41.8823 26.8492 42.5473 28.2652 43.7113 29.1812Z" fill="#B6F500"/>
<path d="M51.5264 55.6676C50.7784 53.7516 49.2814 52.4196 47.3694 51.8366C46.7874 51.7536 46.3714 51.3366 46.1224 50.8366C45.9564 50.3366 45.9564 49.7536 46.2884 49.2546C48.4504 45.7566 45.9564 42.5076 44.2934 40.8416C23.2584 68.0776 20.8474 77.9896 21.4294 81.4046C21.5124 82.4036 22.0944 83.3206 22.9264 83.8196L23.0924 83.9866C23.5914 84.2366 24.0894 84.2366 24.5884 84.2366L24.4224 84.3196C26.5844 84.3196 34.1504 83.1536 45.8724 69.3276C50.6114 63.5806 52.5244 58.8326 51.5264 55.6676Z" fill="#B6F500"/>
<path d="M69.2355 40.7587C67.5725 42.5077 64.9955 45.7557 67.2405 49.1707C67.5725 49.6707 67.6555 50.2537 67.4065 50.7537C67.1575 51.2537 66.6585 51.5867 66.1595 51.7527C64.3305 52.3357 62.7505 53.7517 62.0025 55.5847C61.0045 58.7497 62.9995 63.4967 67.7395 69.1607C79.3785 83.0707 87.0275 84.1537 89.0235 84.1537C89.5215 84.2367 90.1045 84.1537 90.5195 83.9037H90.6855C91.5175 83.4037 92.1825 82.4877 92.1825 81.4877L92.0995 81.3217C92.5985 77.9067 90.2705 68.2447 69.2355 40.7587Z" fill="#B6F500"/>
<path d="M56.703 7.62939e-06C25.387 7.62939e-06 0 25.387 0 56.703C0 88.019 25.387 113.406 56.703 113.406C88.019 113.406 113.406 88.019 113.406 56.703C113.406 25.387 88.019 7.62939e-06 56.703 7.62939e-06ZM38.39 23.434C39.554 19.103 43.545 16.188 47.951 16.438C48.783 16.438 49.614 16.521 50.445 16.771C50.778 16.771 51.111 16.854 51.36 17.021C51.693 16.937 51.942 16.688 52.108 16.438C52.275 16.104 52.358 15.688 52.275 15.272C52.108 14.939 51.859 14.605 51.526 14.355C50.695 13.856 50.445 12.773 50.944 11.94C51.443 11.024 52.607 10.774 53.522 11.274C54.686 11.94 55.517 13.023 55.85 14.355C56.182 15.605 56.016 17.021 55.351 18.187C54.935 18.853 54.353 19.353 53.688 19.769C54.187 21.352 54.436 23.101 54.187 24.85C53.937 27.599 53.023 30.264 51.443 32.513C53.272 32.846 55.185 32.846 57.097 32.846C58.926 32.846 60.755 32.679 62.584 32.346C61.088 30.097 60.173 27.516 59.924 24.767C59.757 23.184 59.84 21.602 60.256 20.019C59.508 19.52 58.843 18.937 58.427 18.187C58.344 18.187 58.344 18.02 58.344 18.02C57.014 15.605 57.845 12.606 60.256 11.274C61.005 11.024 61.753 11.274 62.252 11.857C62.834 12.606 62.667 13.689 61.919 14.272C61.171 14.689 60.921 15.688 61.337 16.438C61.503 16.771 61.836 17.021 62.252 17.104C62.501 16.937 62.834 16.771 63.166 16.771C64.081 16.521 64.995 16.354 65.91 16.354C70.399 16.188 74.307 19.103 75.471 23.351C75.637 23.934 75.637 24.434 75.637 25.017C75.637 26.932 74.972 28.848 73.808 30.347C72.561 32.013 70.815 33.262 68.903 33.929C65.161 35.595 61.088 36.344 57.014 36.344H56.432C52.192 36.594 47.951 35.678 44.127 33.679C42.547 33.013 41.217 31.847 40.136 30.514V30.431C38.889 28.931 38.224 27.016 38.224 25.1C38.224 24.517 38.224 24.017 38.39 23.434ZM24.422 87.652C23.258 87.652 22.011 87.319 21.014 86.735L20.847 86.569C19.184 85.569 18.187 83.904 17.937 81.988C16.94 74.742 25.088 60.082 42.63 37.26C43.212 36.511 44.293 36.344 45.041 36.927C47.702 39.01 52.025 43.924 50.113 49.254C52.358 50.254 54.021 52.17 54.852 54.502C56.349 58.916 54.187 64.58 48.284 71.41C36.145 86.069 27.582 87.652 24.422 87.652ZM68.487 80.655C65.245 88.318 61.42 92.149 56.764 92.149C52.108 92.149 48.284 88.318 44.958 80.655C44.709 79.989 44.875 79.239 45.374 78.74C47.203 76.99 49.115 74.908 51.027 72.659C52.607 70.744 53.937 68.745 55.185 66.579C55.517 65.996 56.099 65.663 56.764 65.663C57.429 65.663 58.011 65.996 58.344 66.579C59.508 68.745 60.921 70.827 62.584 72.659V72.576C64.413 74.742 66.325 76.824 68.071 78.74C68.57 79.239 68.736 79.989 68.487 80.655ZM95.425 82.071C95.259 83.987 94.178 85.653 92.432 86.652V86.819C91.351 87.485 90.187 87.735 88.94 87.735C85.864 87.735 77.3 86.152 65.078 71.493C59.425 64.747 57.346 59.083 58.76 54.585C59.591 52.253 61.254 50.42 63.415 49.338C61.337 43.924 65.66 39.01 68.487 37.011C69.235 36.428 70.316 36.594 70.898 37.344C88.607 60.082 96.672 74.742 95.425 82.071Z" fill="#B6F500"/>
<path d="M66.3254 31.1802H66.4914C66.9074 31.0972 67.3234 30.9302 67.7384 30.6802C69.8174 29.9302 71.3974 28.0982 71.9794 25.9322V25.2672C71.9794 24.9332 71.8124 24.6002 71.8124 24.2672C71.0644 21.6022 68.4874 19.8532 65.7434 20.0192C65.1614 20.0192 64.5794 20.0192 63.9974 20.1852C63.4154 20.3522 62.9164 21.7682 63.1664 24.4342C63.6644 28.2652 65.4114 31.1802 66.3254 31.1802Z" fill="#B6F500"/>
</svg>
