<?xml version="1.0" encoding="UTF-8"?>
<svg id="Layer_1" data-name="Layer 1" xmlns="http://www.w3.org/2000/svg" viewBox="0 0 99.59 101.97">
  <defs>
    <style>
      .cls-1 {
        fill: #78992e;
      }
    </style>
  </defs>
  <path class="cls-1" d="M41.78,37.18c.41.36.87.72,1.33.98.31.15.62.26.92.31.56,0,1.69-1.8,1.95-4.16.15-1.59-.15-2.52-.51-2.62-.36-.15-.72-.15-1.08-.15l.05-.05c-1.75-.15-3.34,1.03-3.75,2.72-.1.21-.1.41-.1.62.05.92.46,1.8,1.18,2.36Z"/>
  <path class="cls-1" d="M46.6,53.5c-.46-1.18-1.39-2-2.57-2.36-.36-.05-.62-.31-.77-.62-.1-.31-.1-.67.1-.98,1.33-2.16-.21-4.16-1.23-5.18-12.99,16.79-14.48,22.89-14.12,25,.05.62.41,1.18.92,1.49l.38.19.54.12c1.33,0,6.01-.72,13.24-9.24,2.93-3.54,4.11-6.47,3.49-8.42Z"/>
  <path class="cls-1" d="M55.74,38.41h.1c.26-.05.51-.15.77-.31,1.28-.46,2.26-1.59,2.62-2.93v-.41c0-.21-.1-.41-.1-.62-.46-1.64-2.05-2.72-3.75-2.62-.36,0-.72,0-1.08.1s-.67.98-.51,2.62c.31,2.36,1.39,4.16,1.95,4.16Z"/>
  <path class="cls-1" d="M49.89,62.79c-.62.92-1.23,1.75-1.95,2.57-.98,1.18-2,2.31-3.08,3.39,1.13,2.46,2.87,5.13,5.03,5.13v-.05c2.1,0,3.9-2.67,4.98-5.13-.98-1.03-2.05-2.16-3.08-3.39-.67-.77-1.33-1.64-1.9-2.52Z"/>
  <path class="cls-1" d="M49.8,3.48C23.56,3.48,2.3,24.75,2.3,50.98s21.27,47.5,47.5,47.5,47.5-21.27,47.5-47.5S76.03,3.48,49.8,3.48ZM38.49,33.64c.72-2.67,3.18-4.47,5.9-4.31.51,0,1.03.05,1.54.21.21,0,.41.05.56.15.21-.05.36-.21.46-.36.1-.21.15-.46.1-.72-.1-.21-.26-.41-.46-.56-.51-.31-.67-.98-.36-1.49.31-.56,1.03-.72,1.59-.41.72.41,1.23,1.08,1.44,1.9.21.77.1,1.64-.31,2.36-.26.41-.62.72-1.03.98.31.98.46,2.05.31,3.13-.15,1.69-.72,3.34-1.69,4.72,1.13.21,2.31.21,3.49.21s2.26-.1,3.39-.31c-.92-1.39-1.49-2.98-1.64-4.67-.1-.98-.05-1.95.21-2.93-.46-.31-.87-.67-1.13-1.13-.05,0-.05-.1-.05-.1-.82-1.49-.31-3.34,1.18-4.16.46-.15.92,0,1.23.36.36.46.26,1.13-.21,1.49-.46.26-.62.87-.36,1.33.1.21.31.36.56.41.15-.1.36-.21.56-.21.56-.15,1.13-.26,1.69-.26,2.77-.1,5.18,1.69,5.9,4.31.1.36.1.67.1,1.03,0,1.18-.41,2.36-1.13,3.29-.77,1.03-1.85,1.8-3.03,2.21-2.31,1.03-4.83,1.49-7.34,1.49h-.36c-2.62.15-5.24-.41-7.6-1.64-.98-.41-1.8-1.13-2.46-1.95v-.05c-.77-.92-1.18-2.1-1.18-3.29,0-.36,0-.67.1-1.03ZM29.87,73.21c-.72,0-1.49-.21-2.1-.56l-.27-.18c-1.03-.62-1.48-1.56-1.63-2.74-.62-4.47,4.41-13.5,15.25-27.57.36-.46,1.03-.56,1.49-.21,1.64,1.28,4.31,4.31,3.13,7.6,1.39.62,2.41,1.8,2.93,3.23.92,2.72-.41,6.21-4.06,10.42-7.49,9.03-12.78,10.01-14.73,10.01ZM57.07,68.9c-2,4.72-4.36,7.08-7.24,7.08s-5.24-2.36-7.29-7.08c-.15-.41-.05-.87.26-1.18,1.13-1.08,2.31-2.36,3.49-3.75.98-1.18,1.8-2.41,2.57-3.75.21-.36.56-.56.98-.56s.77.21.98.56c.72,1.33,1.59,2.62,2.62,3.75v-.05c1.13,1.33,2.31,2.62,3.39,3.8.31.31.41.77.26,1.18ZM73.7,69.77c-.1,1.18-.48,2.01-1.68,2.82l-.17.1c-.67.41-1.39.56-2.16.56-1.9,0-7.19-.98-14.73-10.01-3.49-4.16-4.77-7.65-3.9-10.42.51-1.44,1.54-2.57,2.87-3.23-1.28-3.34,1.39-6.37,3.13-7.6.46-.36,1.13-.26,1.49.21,10.93,14.01,15.91,23.05,15.14,27.57Z"/>
  <path class="cls-1" d="M56.3,49.5c.21.31.26.67.1.98-.15.31-.46.51-.77.62-1.13.36-2.1,1.23-2.57,2.36-.62,1.95.62,4.88,3.54,8.37,7.19,8.57,11.91,9.24,13.14,9.24.31.05.67,0,.92-.15l.12-.07c.51-.31.84-.8.84-1.41l.02-.11c.31-2.1-1.13-8.06-14.12-25-1.03,1.08-2.62,3.08-1.23,5.18Z"/>
</svg>