<?xml version="1.0" encoding="UTF-8"?>
<svg id="Layer_1" data-name="Layer 1" xmlns="http://www.w3.org/2000/svg" viewBox="0 0 99.59 101.97">
  <defs>
    <style>
      .cls-1 {
        fill: #78992e;
      }
    </style>
  </defs>
  <path class="cls-1" d="M56.87,76.29c-2-2.2-3.7-4.7-5.1-7.3-.4-.7-1.1-1.1-1.9-1.1s-1.5.4-1.9,1.1c-1.5,2.6-3.1,5-5,7.3-2.3,2.7-4.6,5.2-6.8,7.3-.6.6-.8,1.5-.5,2.3,4,9.2,8.6,13.8,14.2,13.8s10.2-4.6,14.1-13.8c.3-.8.1-1.7-.5-2.3-2.1-2.3-4.4-4.8-6.6-7.4v.1ZM49.97,95.59c-4.2,0-7.6-5.2-9.8-10,2.1-2.1,4.1-4.3,6-6.6,1.4-1.6,2.6-3.2,3.8-5,1.1,1.7,2.4,3.4,3.7,4.9,2,2.4,4.1,4.6,6,6.6-2.1,4.8-5.6,10-9.7,10v.1ZM66.87,33.89c-.7-.9-2-1.1-2.9-.4-3.4,2.4-8.6,8.3-6.1,14.8-2.6,1.3-4.6,3.5-5.6,6.3-1.7,5.4.8,12.2,7.6,20.3,14.7,17.6,25,19.5,28.7,19.5,1.5,0,2.9-.3,4.2-1.1l.33-.2c2.33-1.58,3.07-3.2,3.27-5.5,1.5-8.8-8.2-26.4-29.5-53.7ZM92.33,86.9c0,1.2-.63,2.15-1.63,2.75l-.23.13c-.5.3-1.2.4-1.8.3-2.4,0-11.6-1.3-25.6-18-5.7-6.8-8.1-12.5-6.9-16.3.9-2.2,2.8-3.9,5-4.6.6-.2,1.2-.6,1.5-1.2.3-.6.2-1.3-.2-1.9-2.7-4.1.4-8,2.4-10.1,25.3,33,28.1,44.6,27.5,48.7l-.04.22ZM47.57,54.49c-1-2.8-3-5.1-5.7-6.3,2.3-6.4-2.9-12.3-6.1-14.8-.9-.7-2.2-.5-2.9.4C11.77,61.19,1.97,78.79,3.17,87.49c.3,2.3,1.18,4.14,3.18,5.34l.52.36c1.2.7,2.7,1.1,4.1,1.1,3.8,0,14.1-1.9,28.7-19.5,7.1-8.2,9.7-15,7.9-20.3ZM9.92,90.06l-.75-.38c-1-.6-1.7-1.7-1.8-2.9-.7-4.1,2.2-16,27.5-48.7,2,2,5,5.9,2.4,10.1-.4.6-.4,1.3-.2,1.9.3.6.8,1.1,1.5,1.2,2.3.7,4.1,2.3,5,4.6,1.2,3.8-1.1,9.5-6.8,16.4-14.1,16.6-23.2,18-25.8,18M29.87,25.69c1.3,1.6,2.9,3,4.8,3.8,4.6,2.4,9.7,3.5,14.8,3.2h.7c4.9,0,9.8-.9,14.3-2.9,2.3-.8,4.4-2.3,5.9-4.3,1.4-1.8,2.2-4.1,2.2-6.4,0-.7,0-1.3-.2-2-1.4-5.1-6.1-8.6-11.5-8.4-1.1,0-2.2.2-3.3.5-.4,0-.8.2-1.1.4-.5-.1-.9-.4-1.1-.8-.5-.9-.2-2.1.7-2.6.9-.7,1.1-2,.4-2.9-.6-.7-1.5-1-2.4-.7-2.9,1.6-3.9,5.2-2.3,8.1,0,0,0,.2.1.2.5.9,1.3,1.6,2.2,2.2-.5,1.9-.6,3.8-.4,5.7.3,3.3,1.4,6.4,3.2,9.1-2.2.4-4.4.6-6.6.6s-4.6,0-6.8-.4c1.9-2.7,3-5.9,3.3-9.2.3-2.1,0-4.2-.6-6.1.8-.5,1.5-1.1,2-1.9.8-1.4,1-3.1.6-4.6-.4-1.6-1.4-2.9-2.8-3.7-1.1-.6-2.5-.3-3.1.8-.6,1-.3,2.3.7,2.9.4.3.7.7.9,1.1.1.5,0,1-.2,1.4-.2.3-.5.6-.9.7-.3-.2-.7-.3-1.1-.3-1-.3-2-.4-3-.4-5.3-.3-10.1,3.2-11.5,8.4-.2.7-.2,1.3-.2,2,0,2.3.8,4.6,2.3,6.4v.1ZM61.37,26.49c-1.1,0-3.2-3.5-3.8-8.1-.3-3.2.3-4.9,1-5.1.7-.2,1.4-.2,2.1-.2,3.3-.2,6.4,1.9,7.3,5.1,0,.4.2.8.2,1.2v.8c-.7,2.6-2.6,4.8-5.1,5.7-.5.3-1,.5-1.5.6h-.2ZM39.27,13.09c.7,0,1.4,0,2.1.3.7.2,1.3,2,1,5.1-.5,4.6-2.7,8.1-3.8,8.1-.6-.1-1.2-.3-1.8-.6-.9-.5-1.8-1.2-2.6-1.9-1.4-1.1-2.2-2.8-2.3-4.6,0-.4,0-.8.2-1.2.8-3.3,3.9-5.6,7.3-5.3l-.1.1Z"/>
</svg>