<svg width="488" height="98" viewBox="0 0 488 98" fill="none" xmlns="http://www.w3.org/2000/svg">
<path d="M53.7981 74.0038C51.7981 71.8038 50.0981 69.3038 48.6981 66.7038C48.2981 66.0038 47.5981 65.6038 46.7981 65.6038C45.9981 65.6038 45.2981 66.0038 44.8981 66.7038C43.3981 69.3038 41.7981 71.7038 39.8981 74.0038C37.5981 76.7038 35.2981 79.2038 33.0981 81.3038C32.4981 81.9038 32.2981 82.8038 32.5981 83.6038C36.5981 92.8038 41.1981 97.4038 46.7981 97.4038C52.3981 97.4038 56.9981 92.8038 60.8981 83.6038C61.1981 82.8038 60.9981 81.9038 60.3981 81.3038C58.2981 79.0038 55.9981 76.5038 53.7981 73.9038V74.0038ZM46.8981 93.3038C42.6981 93.3038 39.2981 88.1038 37.0981 83.3038C39.1981 81.2038 41.1981 79.0038 43.0981 76.7038C44.4981 75.1038 45.6981 73.5038 46.8981 71.7038C47.9981 73.4038 49.2981 75.1038 50.5981 76.6038C52.5981 79.0038 54.6981 81.2038 56.5981 83.2038C54.4981 88.0038 50.9981 93.2038 46.8981 93.2038V93.3038ZM63.7981 31.6038C63.0981 30.7038 61.7981 30.5038 60.8981 31.2038C57.4981 33.6038 52.2981 39.5038 54.7981 46.0038C52.1981 47.3038 50.1981 49.5038 49.1981 52.3038C47.4981 57.7038 49.9981 64.5038 56.7981 72.6038C71.4981 90.2038 81.7981 92.1038 85.4981 92.1038C86.9981 92.1038 88.3981 91.8038 89.6981 91.0038V90.8038C91.7981 89.6038 93.0981 87.6038 93.2981 85.3038C94.7981 76.5038 85.0981 58.9038 63.7981 31.6038ZM89.3981 84.6038C89.3981 85.8038 88.5981 86.9038 87.5981 87.5038H87.3981C86.8981 87.8038 86.1981 87.9038 85.5981 87.8038C83.1981 87.8038 73.9981 86.5038 59.9981 69.8038C54.2981 63.0038 51.8981 57.3038 53.0981 53.5038C53.9981 51.3038 55.8981 49.6038 58.0981 48.9038C58.6981 48.7038 59.2981 48.3038 59.5981 47.7038C59.8981 47.1038 59.7981 46.4038 59.3981 45.8038C56.6981 41.7038 59.7981 37.8038 61.7981 35.7038C87.0981 68.7038 89.8981 80.3038 89.2981 84.4038L89.3981 84.6038ZM44.4981 52.2038C43.4981 49.4038 41.4981 47.1038 38.7981 45.9038C41.0981 39.5038 35.8981 33.6038 32.6981 31.1038C31.7981 30.4038 30.4981 30.6038 29.7981 31.5038C8.69813 58.9038 -1.10187 76.5038 0.0981332 85.2038C0.398133 87.5038 1.59813 89.5038 3.59813 90.7038L3.79813 90.9038C4.99813 91.6038 6.49813 92.0038 7.89813 92.0038C11.6981 92.0038 21.9981 90.1038 36.5981 72.5038C43.6981 64.3038 46.2981 57.5038 44.4981 52.2038ZM8.09813 87.9038C7.49813 87.9038 6.89813 87.9038 6.29813 87.6038L6.09813 87.4038C5.09813 86.8038 4.39813 85.7038 4.29813 84.5038C3.59813 80.4038 6.49813 68.5038 31.7981 35.8038C33.7981 37.8038 36.7981 41.7038 34.1981 45.9038C33.7981 46.5038 33.7981 47.2038 33.9981 47.8038C34.2981 48.4038 34.7981 48.9038 35.4981 49.0038C37.7981 49.7038 39.5981 51.3038 40.4981 53.6038C41.6981 57.4038 39.3981 63.1038 33.6981 70.0038C19.5981 86.6038 10.4981 88.0038 7.89813 88.0038L8.09813 87.9038ZM26.7981 23.4038C28.0981 25.0038 29.6981 26.4038 31.5981 27.2038C36.1981 29.6038 41.2981 30.7038 46.3981 30.4038H47.0981C51.9981 30.4038 56.8981 29.5038 61.3981 27.5038C63.6981 26.7038 65.7981 25.2038 67.2981 23.2038C68.6981 21.4038 69.4981 19.1038 69.4981 16.8038C69.4981 16.1038 69.4981 15.5038 69.2981 14.8038C67.8981 9.70381 63.1981 6.20381 57.7981 6.40381C56.6981 6.40381 55.5981 6.60381 54.4981 6.90381C54.0981 6.90381 53.6981 7.10381 53.3981 7.30381C52.8981 7.20381 52.4981 6.90381 52.2981 6.50381C51.7981 5.60381 52.0981 4.40381 52.9981 3.90381C53.8981 3.20381 54.0981 1.90381 53.3981 1.00381C52.7981 0.303812 51.8981 0.00381076 50.9981 0.303811C48.0981 1.90381 47.0981 5.50381 48.6981 8.40381C48.6981 8.40381 48.6981 8.60381 48.7981 8.60381C49.2981 9.50381 50.0981 10.2038 50.9981 10.8038C50.4981 12.7038 50.3981 14.6038 50.5981 16.5038C50.8981 19.8038 51.9981 22.9038 53.7981 25.6038C51.5981 26.0038 49.3981 26.2038 47.1981 26.2038C44.8981 26.2038 42.5981 26.2038 40.3981 25.8038C42.2981 23.1038 43.3981 19.9038 43.6981 16.6038C43.9981 14.5038 43.6981 12.4038 43.0981 10.5038C43.8981 10.0038 44.5981 9.40381 45.0981 8.60381C45.8981 7.20381 46.0981 5.50381 45.6981 4.00381C45.2981 2.40381 44.2981 1.10381 42.8981 0.303811C41.7981 -0.296189 40.3981 0.00381005 39.7981 1.10381C39.1981 2.10381 39.4981 3.40381 40.4981 4.00381C40.8981 4.30381 41.1981 4.70381 41.3981 5.10381C41.4981 5.60381 41.3981 6.10381 41.1981 6.50381C40.9981 6.80381 40.6981 7.10381 40.2981 7.20381C39.9981 7.00381 39.5981 6.90381 39.1981 6.90381C38.1981 6.60381 37.1981 6.50381 36.1981 6.50381C30.8981 6.20381 26.0981 9.70381 24.6981 14.9038C24.4981 15.6038 24.4981 16.2038 24.4981 16.9038C24.4981 19.2038 25.2981 21.5038 26.7981 23.3038V23.4038ZM58.2981 24.2038C57.1981 24.2038 55.0981 20.7038 54.4981 16.1038C54.1981 12.9038 54.7981 11.2038 55.4981 11.0038C56.1981 10.8038 56.8981 10.8038 57.5981 10.8038C60.8981 10.6038 63.9981 12.7038 64.8981 15.9038C64.8981 16.3038 65.0981 16.7038 65.0981 17.1038V17.9038C64.3981 20.5038 62.4981 22.7038 59.9981 23.6038C59.4981 23.9038 58.9981 24.1038 58.4981 24.2038H58.2981ZM36.1981 10.8038C36.8981 10.8038 37.5981 10.8038 38.2981 11.1038C38.9981 11.3038 39.5981 13.1038 39.2981 16.2038C38.7981 20.8038 36.5981 24.3038 35.4981 24.3038C34.8981 24.2038 34.2981 24.0038 33.6981 23.7038C32.7981 23.2038 31.8981 22.5038 31.0981 21.8038C29.6981 20.7038 28.8981 19.0038 28.7981 17.2038C28.7981 16.8038 28.7981 16.4038 28.9981 16.0038C29.7981 12.7038 32.8981 10.4038 36.2981 10.7038L36.1981 10.8038ZM247.898 21.5038C228.398 21.5038 226.598 27.6038 226.598 36.4038V63.9038C226.598 72.9038 228.498 78.8038 247.898 78.8038C267.298 78.8038 269.198 72.8038 269.198 63.9038V63.2038C269.198 61.4038 267.698 59.9038 265.898 59.9038C264.198 59.8038 262.698 61.0038 262.598 62.7038C262.598 62.7038 262.598 62.8038 262.598 62.9038V63.3038C262.598 70.1038 261.698 73.7038 247.998 73.7038C234.298 73.7038 233.198 70.1038 233.198 63.3038V52.2038H269.198V36.5038C269.198 27.7038 267.398 21.6038 247.998 21.6038L247.898 21.5038ZM262.598 46.4038H233.298V37.1038C233.298 30.3038 234.098 26.6038 247.998 26.6038C261.898 26.6038 262.598 30.2038 262.598 37.1038V46.4038ZM298.098 21.5038C278.598 21.5038 276.698 27.6038 276.698 36.4038V63.9038C276.698 72.9038 278.598 78.8038 298.098 78.8038C317.598 78.8038 319.398 72.8038 319.398 63.9038V63.2038C319.398 61.4038 317.998 59.9038 316.098 59.9038C314.198 59.9038 312.698 61.4038 312.698 63.2038C312.698 70.0038 311.898 73.6038 298.098 73.6038C284.298 73.6038 283.398 70.0038 283.398 63.2038V52.1038H319.498V36.4038C319.498 27.6038 317.598 21.5038 298.198 21.5038H298.098ZM312.698 46.4038H283.398V37.1038C283.398 30.3038 284.198 26.6038 298.098 26.6038C311.998 26.6038 312.698 30.2038 312.698 37.1038V46.4038ZM168.298 22.4038C166.498 22.4038 164.998 23.8038 164.998 25.6038V26.0038C160.798 22.7038 155.598 21.1038 150.298 21.4038C130.898 21.4038 129.098 27.5038 129.098 36.3038V63.8038C129.098 72.8038 131.198 78.7038 150.298 78.7038C155.498 78.9038 160.698 77.3038 164.898 74.2038V80.6038C164.898 87.4038 164.198 91.1038 150.298 91.1038C136.398 91.1038 136.298 88.2038 135.998 82.7038C135.898 80.9038 134.398 79.6038 132.598 79.6038C130.898 79.5038 129.398 80.8038 129.298 82.5038C129.298 82.5038 129.298 82.6038 129.298 82.7038V83.3038C129.598 91.2038 132.198 96.3038 150.298 96.3038C168.398 96.3038 171.598 90.3038 171.598 81.4038V25.6038C171.598 23.8038 170.098 22.4038 168.298 22.4038ZM164.798 63.1038C164.798 69.9038 164.098 73.5038 150.198 73.5038C136.298 73.5038 135.698 69.9038 135.698 63.1038V37.3038C135.698 30.5038 136.398 27.0038 150.198 27.0038C163.998 27.0038 164.798 30.6038 164.798 37.3038V63.1038ZM368.798 36.4038V74.3038C368.598 76.1038 366.998 77.5038 365.198 77.3038C363.598 77.2038 362.298 75.9038 362.198 74.3038V37.1038C362.198 30.3038 361.198 26.7038 347.598 26.7038C333.998 26.7038 332.998 30.3038 332.998 37.1038V74.3038C332.998 76.1038 331.498 77.6038 329.698 77.6038C327.898 77.6038 326.398 76.1038 326.398 74.3038V25.4038C326.398 23.7038 327.898 22.4038 329.598 22.5038C329.598 22.5038 329.598 22.5038 329.698 22.5038C331.498 22.5038 332.998 24.0038 332.998 25.9038V26.1038C337.198 23.0038 342.398 21.4038 347.598 21.6038C366.598 21.5038 368.798 27.4038 368.798 36.4038ZM417.498 12.5038V74.4038C417.498 76.2038 415.998 77.7038 414.198 77.7038C412.398 77.7038 410.898 76.2038 410.898 74.4038V12.5038C410.898 10.7038 412.298 9.20381 414.198 9.20381C415.998 9.20381 417.398 10.7038 417.498 12.5038ZM467.098 25.9038V81.5038C467.098 90.4038 465.298 96.4038 445.798 96.4038C426.298 96.4038 425.198 91.3038 424.798 83.5038V83.2038C424.798 81.3038 426.298 79.8038 428.198 79.8038C430.098 79.8038 431.598 81.3038 431.598 83.2038C431.898 88.4038 433.898 91.1038 445.898 91.1038C457.898 91.1038 460.498 87.4038 460.498 80.6038V74.2038C456.298 77.3038 451.098 78.9038 445.898 78.7038C426.598 78.7038 424.698 72.8038 424.698 63.8038V25.9038C424.698 24.1038 426.098 22.6038 427.998 22.6038C429.698 22.6038 431.198 23.8038 431.298 25.6038C431.298 25.7038 431.298 25.8038 431.298 26.0038V63.2038C431.298 70.0038 431.998 73.6038 445.798 73.6038C459.598 73.6038 460.398 70.0038 460.398 63.2038V26.0038C460.398 24.2038 461.798 22.7038 463.698 22.7038C465.498 22.7038 466.898 24.1038 466.898 25.9038C466.898 25.9038 466.898 25.9038 466.898 26.0038L467.098 25.9038ZM403.698 31.6038C403.698 33.1038 402.498 34.4038 400.998 34.5038H382.698V74.4038C382.898 76.2038 381.498 77.9038 379.698 78.0038C377.898 78.2038 376.198 76.8038 376.098 75.0038C376.098 74.8038 376.098 74.6038 376.098 74.4038V23.4038C376.098 14.5038 377.598 9.10381 392.498 9.10381H401.098C402.598 8.90381 403.898 9.90381 404.098 11.4038C404.298 12.9038 403.298 14.2038 401.798 14.4038C401.598 14.4038 401.498 14.4038 401.298 14.4038H392.698C383.798 14.4038 382.998 17.3038 382.998 24.2038V28.5038H401.298C402.798 28.7038 403.898 29.9038 403.798 31.4038V31.6038H403.698ZM216.298 51.9038C214.598 52.0038 213.098 50.8038 212.898 49.0038V37.3038C212.898 30.5038 211.798 26.9038 199.098 26.9038C186.398 26.9038 185.398 30.5038 185.398 37.3038V74.5038C185.298 76.3038 183.898 77.7038 182.098 77.7038C180.298 77.7038 178.798 76.3038 178.798 74.4038V25.4038C178.798 23.7038 180.298 22.4038 181.998 22.5038C181.998 22.5038 181.998 22.5038 182.098 22.5038C183.498 22.5038 184.698 23.3038 185.198 24.5038C185.198 25.0038 185.198 25.5038 185.198 26.0038C189.198 23.1038 193.998 21.5038 198.998 21.5038C216.998 21.5038 219.498 27.5038 219.498 36.4038V48.7038C219.498 50.4038 218.198 51.7038 216.598 51.8038C216.598 51.8038 216.398 51.8038 216.298 51.8038V51.9038Z" fill="white"/>
<path d="M487.898 29.1038C487.898 33.2038 484.698 36.5038 480.498 36.5038C476.298 36.5038 472.998 33.3038 472.998 29.1038C472.998 24.9038 476.298 21.8038 480.498 21.8038C484.698 21.8038 487.898 25.0038 487.898 29.1038ZM474.798 29.1038C474.798 32.3038 477.198 34.9038 480.498 34.9038C483.798 34.9038 485.998 32.3038 485.998 29.1038C485.998 25.9038 483.698 23.3038 480.398 23.3038C477.098 23.3038 474.798 25.9038 474.798 29.1038ZM479.298 32.9038H477.598V25.6038C478.298 25.5038 479.198 25.4038 480.398 25.4038C481.598 25.4038 482.398 25.6038 482.898 25.9038C483.298 26.2038 483.598 26.8038 483.598 27.5038C483.598 28.2038 482.998 28.9038 482.098 29.2038C482.798 29.6038 483.198 30.1038 483.398 31.1038C483.598 32.2038 483.798 32.7038 483.898 32.9038H482.098C481.898 32.6038 481.698 32.0038 481.498 31.1038C481.398 30.3038 480.898 29.9038 479.998 29.9038H479.198V32.8038L479.298 32.9038ZM479.398 28.8038H480.198C481.098 28.8038 481.898 28.5038 481.898 27.7038C481.898 26.9038 481.398 26.6038 480.298 26.6038C479.198 26.6038 479.498 26.6038 479.398 26.6038V28.7038V28.8038Z" fill="white"/>
</svg>
