<svg width="398" height="417" viewBox="0 0 398 417" fill="none" xmlns="http://www.w3.org/2000/svg">
<path d="M228.084 316.111C218.884 305.011 211.584 294.511 206.484 284.911C204.984 282.011 201.984 280.211 198.684 280.211C195.384 280.211 192.384 282.011 190.884 284.911C185.784 294.511 178.484 305.011 169.284 316.111C159.684 327.611 149.984 338.111 140.384 347.311C137.784 349.911 136.984 353.811 138.384 357.211C155.184 396.211 175.384 416.011 198.584 416.011C221.784 416.011 241.984 396.211 258.784 357.211C260.284 353.811 259.484 349.911 256.784 347.311C247.284 338.111 237.584 327.511 227.984 316.111H228.084ZM198.684 398.311C181.084 398.311 166.684 376.311 157.184 355.711C165.684 347.111 174.384 337.611 182.884 327.411C188.884 320.211 194.184 313.111 198.684 306.311C203.184 313.111 208.484 320.211 214.484 327.411C222.984 337.611 231.684 347.111 240.184 355.711C230.584 376.311 216.284 398.411 198.684 398.411V398.311Z" fill="white"/>
<path d="M270.684 134.711C267.784 130.911 262.384 130.211 258.484 132.911C244.084 143.311 222.284 168.511 232.484 195.811C224.284 200.111 213.384 208.211 208.684 222.811C201.384 245.511 212.284 274.611 241.084 309.211C303.584 384.211 347.484 392.311 363.384 392.311C379.284 392.311 376.984 390.811 381.084 387.811L381.884 387.211C385.984 384.311 394.684 378.111 396.784 363.611C402.284 326.311 360.984 251.411 270.584 134.711H270.684ZM379.384 361.011C378.284 368.111 374.984 370.511 371.684 372.811L370.984 373.311C370.984 373.311 368.884 374.611 363.384 374.611C352.884 374.611 313.984 369.111 254.684 297.911C230.384 268.811 220.284 244.711 225.484 228.411C230.184 213.611 246.784 209.011 246.884 209.011C249.684 208.311 251.884 206.311 252.884 203.611C253.884 200.911 253.584 198.011 252.084 195.611C240.784 178.211 253.684 161.411 262.384 152.911C369.984 293.111 381.984 343.411 379.384 361.011Z" fill="white"/>
<path d="M188.684 222.611C183.984 208.111 173.084 199.911 164.884 195.611C175.084 168.311 153.284 143.111 138.884 132.711C134.984 129.911 129.684 130.711 126.684 134.511C36.2843 251.311 -5.01569 326.111 0.48431 363.411C2.58431 377.911 11.2843 384.111 15.3843 387.011L16.1843 387.611C20.3843 390.511 26.4843 392.111 33.8843 392.111C49.8843 392.111 93.6843 384.011 156.184 309.011C184.984 274.411 195.884 245.311 188.584 222.611H188.684ZM33.9843 374.411C28.6843 374.411 26.4843 373.211 26.4843 373.211L25.6843 372.611C22.3843 370.311 19.0843 367.911 17.9843 360.811C15.3843 343.211 27.3843 292.811 134.984 152.711C143.684 161.111 156.584 178.011 145.284 195.411C143.684 197.811 143.384 200.811 144.484 203.411C145.484 206.011 147.784 208.011 150.484 208.811C150.684 208.811 167.084 213.411 171.884 228.111C177.184 244.411 167.084 268.511 142.684 297.711C83.3843 368.911 44.4843 374.411 33.9843 374.411Z" fill="white"/>
<path d="M112.884 99.6114C118.084 106.611 125.084 112.111 133.184 115.911C146.584 123.511 166.384 129.711 196.184 129.711C225.984 129.711 198.184 129.711 199.184 129.711C225.384 129.311 245.184 124.811 259.784 117.911C269.784 114.111 278.384 107.911 284.584 99.6114C290.784 91.3114 293.884 81.8113 293.784 72.2113C293.784 69.3113 293.484 66.5114 292.784 63.6114C288.184 42.6114 268.184 28.0113 244.284 28.0113C220.384 28.0113 235.684 28.5113 231.484 29.4113C229.684 29.8113 227.984 30.4113 226.484 31.3113C224.484 30.7113 222.684 29.6113 221.584 27.8113C219.384 23.9113 220.684 19.0113 224.584 16.7113C228.784 14.2113 230.284 8.81134 227.784 4.61134C225.284 0.411344 219.884 -1.08865 215.684 1.31135C203.284 8.41135 199.084 24.3114 206.184 36.6114C208.484 40.5114 211.684 43.6113 215.384 45.8113C213.284 52.5113 212.484 60.7113 213.584 70.5113C214.984 82.9113 219.484 98.8113 227.584 109.511C219.284 111.011 209.884 111.811 198.984 112.011C188.384 112.211 178.684 111.411 169.784 109.811C177.984 99.2113 182.584 83.0113 183.984 70.5113C185.084 60.4113 184.284 51.8113 181.984 45.0113C185.184 42.8113 187.884 40.0113 189.784 36.5113C193.284 30.5113 194.184 23.6113 192.384 16.9113C190.584 10.2113 186.284 4.61134 180.384 1.21134C176.184 -1.28866 170.684 0.211345 168.284 4.51134C165.784 8.81135 167.284 14.2113 171.584 16.6113C173.484 17.7113 174.784 19.4113 175.384 21.5113C175.884 23.6113 175.684 25.8113 174.584 27.7113C173.684 29.2113 172.284 30.2113 170.684 30.9113C169.284 30.2113 167.884 29.7113 166.284 29.3113C162.084 28.4113 157.784 27.9113 153.484 27.9113C129.484 27.9113 109.584 42.5113 104.884 63.5113C104.284 66.4113 103.984 69.2114 103.884 72.1114C103.784 81.7114 106.884 91.3114 113.084 99.6114H112.884ZM247.784 103.111C247.584 103.111 247.484 103.111 247.284 103.111C242.384 103.111 233.284 88.2113 231.084 68.5113C229.584 55.1113 232.484 47.2114 235.184 46.6114C238.084 45.9114 241.184 45.6114 244.084 45.6114C259.584 45.6114 272.484 54.5113 275.284 67.3113C275.684 69.0113 275.784 70.7113 275.784 72.4113C275.784 74.1113 275.784 73.6113 275.684 74.2113C275.684 74.8113 275.584 75.5114 275.484 76.1114C273.984 85.0114 267.284 94.3113 253.584 101.211C251.684 101.911 249.784 102.611 247.684 103.011L247.784 103.111ZM153.184 45.6114C156.184 45.6114 159.184 45.9114 162.084 46.6114C164.684 47.2114 167.584 55.1113 166.184 68.5113C163.984 88.2113 154.884 103.111 149.984 103.111H149.584C146.884 102.511 144.384 101.611 141.984 100.511C137.784 98.1113 133.984 95.5113 130.884 92.4113C124.784 86.4113 121.484 79.3113 121.384 72.3113C121.384 70.6113 121.584 68.9113 121.884 67.2113C124.684 54.4113 137.584 45.5113 153.084 45.5113L153.184 45.6114Z" fill="white"/>
</svg>
